<svg width="108" height="134" viewBox="0 0 108 134" fill="none" xmlns="http://www.w3.org/2000/svg">
<path d="M107.023 119.678H0.480469V13.136H107.023V119.678ZM9.87092 110.288H97.6329V22.5264H9.87092V110.288Z" fill="#EDC16A"/>
<path d="M33.0911 54.9593C18.578 69.671 0.319612 100.617 3.72286 106.891C7.51417 113.879 27.7242 93.2556 27.6463 92.0512C27.5878 91.1411 34.6975 72.3433 40.0907 58.6717C45.4794 45.0126 36.68 51.3214 33.0911 54.9593Z" fill="#EB9481"/>
<path d="M27.7827 92.0734C28.4005 90.0636 38.0743 65.2762 40.8404 57.438C43.6064 49.5998 41.0428 47.1737 33.1431 54.3528C25.2439 61.532 7.93484 85.5165 3.98423 98.2457C0.178524 110.508 6.49127 110.508 14.8212 104.856C21.6416 100.228 27.7827 92.0734 27.7827 92.0734Z" fill="#455A64"/>
<path d="M35.3942 56.5729C35.6165 57.0751 35.8101 57.5907 35.886 58.1604C35.5039 57.7311 35.2394 57.2483 35.0032 56.752C34.7819 56.2493 34.5883 55.7337 34.5114 55.1646C34.893 55.5938 35.1575 56.0771 35.3942 56.5729ZM9.69814 87.8413C9.77506 88.4105 9.96859 88.9256 10.1899 89.4288C10.4261 89.9245 10.6901 90.4079 11.0728 90.8371C10.9968 90.2675 10.8028 89.7519 10.581 89.2496C10.3438 88.7539 10.0793 88.2705 9.69814 87.8413ZM18.2539 74.8178C18.3308 75.387 18.5249 75.9026 18.7457 76.4053C18.9819 76.9016 19.2459 77.3844 19.6285 77.8137C19.5526 77.244 19.3586 76.7289 19.1367 76.2262C18.9 75.7309 18.6355 75.2476 18.2539 74.8178ZM26.6156 73.8397C27.1848 73.7628 27.7004 73.5688 28.2031 73.348C28.6994 73.1122 29.1822 72.8477 29.6115 72.4656C29.0418 72.5416 28.5267 72.7351 28.024 72.9574C27.5282 73.1941 27.0454 73.4586 26.6156 73.8397ZM18.6043 87.0081C19.1735 86.9312 19.689 86.7372 20.1917 86.5163C20.688 86.2806 21.1708 86.0161 21.6001 85.634C21.0304 85.7099 20.5153 85.904 20.0126 86.1258C19.5168 86.3625 19.0335 86.627 18.6043 87.0081ZM25.118 64.4533C25.6872 64.3763 26.2028 64.1823 26.7055 63.9615C27.2017 63.7253 27.6846 63.4613 28.1138 63.0792C27.5441 63.1551 27.029 63.3491 26.5263 63.5709C26.0306 63.8072 25.5472 64.0716 25.118 64.4533ZM31.8664 79.5332C31.5185 79.9902 31.2908 80.4914 31.0918 81.0035C30.9082 81.5211 30.7533 82.0496 30.7201 82.6233C31.0689 82.1667 31.2967 81.665 31.4947 81.1529C31.6773 80.6348 31.8322 80.1063 31.8664 79.5332ZM15.1028 95.2259C14.7549 95.683 14.5271 96.1842 14.3281 96.6963C14.1445 97.2139 13.9897 97.7424 13.9564 98.316C14.3053 97.8595 14.5331 97.3583 14.7311 96.8457C14.9142 96.3281 15.069 95.7996 15.1028 95.2259ZM24.3969 93.8349C24.8212 94.161 25.2857 94.3798 25.7636 94.5674C25.8663 94.4468 25.9601 94.3307 26.0539 94.219C26.0405 94.2146 26.0316 94.2101 26.0182 94.2057C25.5001 94.0225 24.9686 93.8662 24.3969 93.8349ZM7.77371 103.941C7.31667 103.593 6.81545 103.365 6.30333 103.166C5.78574 102.983 5.25725 102.828 4.68359 102.795C5.14014 103.144 5.64183 103.371 6.15396 103.569C6.67204 103.752 7.20054 103.907 7.77371 103.941ZM34.3397 66.8779C34.7997 67.2263 35.2999 67.4541 35.8135 67.6506C36.1753 67.7801 36.546 67.8962 36.9301 67.9587C36.9569 67.8873 36.9837 67.8114 37.0105 67.7399C36.6755 67.5389 36.3227 67.3871 35.9609 67.2486C35.4428 67.0655 34.9158 66.9092 34.3397 66.8779Z" fill="#37474F"/>
<path d="M29.5181 110.285H84.6981C84.6981 110.285 75.927 67.0068 54.7651 48.2745C52.1499 45.9595 46.25 46.4855 42.4006 48.3981C41.026 49.0814 36.0924 55.9837 34.6845 62.5093C33.2871 69.0285 29.3638 110.09 29.5181 110.285Z" fill="#455A64"/>
<path d="M34.2053 65.2092C33.7725 66.6656 33.4142 68.1777 33.121 69.6967C33.119 69.6377 33.1145 69.5791 33.1125 69.5201C33.0907 68.667 33.0833 67.7976 32.9934 66.9495C32.989 66.9048 32.917 66.8919 32.9096 66.9421C32.786 67.7872 32.7925 68.6799 32.8396 69.532C32.8619 69.9389 32.8867 70.3468 32.9215 70.7542C32.8054 71.4361 32.7016 72.1174 32.6168 72.7943C32.4545 74.0825 32.0218 78.8763 31.9846 79.8295C31.9766 80.0305 32.2079 80.0623 32.264 79.8548C32.5235 78.8916 33.2118 73.9476 33.4311 72.6752C33.8524 70.2317 34.1502 67.6934 34.303 65.2181C34.3065 65.1595 34.2201 65.1585 34.2053 65.2092Z" fill="#263238"/>
<path d="M52.1868 60.9807C52.4091 61.4829 52.6026 61.9985 52.6786 62.5682C52.2964 62.139 52.0319 61.6561 51.7957 61.1599C51.5744 60.6567 51.3809 60.1416 51.3039 59.5724C51.6856 60.0016 51.9501 60.485 52.1868 60.9807ZM57.899 80.1398C57.976 80.7089 58.17 81.2245 58.3913 81.7272C58.6275 82.2235 58.8915 82.7063 59.2741 83.1356C59.1982 82.5659 59.0042 82.0508 58.7824 81.5481C58.5447 81.0523 58.2802 80.5695 57.899 80.1398ZM75.8234 88.0072C75.9003 88.5764 76.0939 89.092 76.3152 89.5947C76.5514 90.0909 76.8154 90.5743 77.198 91.0031C77.1221 90.4334 76.9281 89.9183 76.7062 89.4156C76.469 88.9198 76.2045 88.437 75.8234 88.0072ZM62.6476 102.096C62.7245 102.665 62.9186 103.181 63.1394 103.684C63.3756 104.18 63.6396 104.663 64.0222 105.092C63.9463 104.522 63.7523 104.007 63.5304 103.504C63.2932 103.009 63.0287 102.525 62.6476 102.096ZM39.6422 74.8726C39.7191 75.4418 39.9131 75.9569 40.134 76.4601C40.3702 76.9563 40.6342 77.4392 41.0168 77.8684C40.9409 77.2988 40.7468 76.7836 40.525 76.281C40.2878 75.7852 40.0233 75.3019 39.6422 74.8726ZM32.3945 89.8245C32.4714 90.3937 32.665 90.9093 32.8863 91.412C33.1225 91.9082 33.3865 92.391 33.7686 92.8203C33.6927 92.2506 33.4987 91.735 33.2768 91.2328C33.0401 90.7371 32.7756 90.2537 32.3945 89.8245ZM49.9343 100.598C50.0112 101.168 50.2048 101.683 50.4261 102.186C50.6623 102.682 50.9263 103.165 51.3089 103.594C51.233 103.025 51.039 102.509 50.8171 102.007C50.5799 101.511 50.3154 101.028 49.9343 100.598ZM66.7451 71.451C66.822 72.0202 67.0156 72.5358 67.2369 73.0385C67.4731 73.5347 67.7371 74.0181 68.1197 74.4468C68.0438 73.8771 67.8497 73.362 67.6279 72.8593C67.3907 72.3641 67.1262 71.8807 66.7451 71.451ZM45.3584 68.8244C45.9276 68.7475 46.4432 68.5534 46.9459 68.3326C47.4422 68.0969 47.925 67.8324 48.3543 67.4503C47.7846 67.5262 47.2695 67.7202 46.7668 67.942C46.271 68.1787 45.7877 68.4433 45.3584 68.8244ZM41.8783 86.5795C42.4475 86.5026 42.9631 86.3086 43.4658 86.0877C43.962 85.8515 44.4448 85.5875 44.8741 85.2049C44.3044 85.2809 43.7893 85.4749 43.2866 85.6967C42.7909 85.9339 42.308 86.1984 41.8783 86.5795ZM74.3253 105.394C74.8945 105.317 75.41 105.123 75.9127 104.902C76.409 104.666 76.8918 104.402 77.3211 104.02C76.7514 104.095 76.2358 104.289 75.7336 104.511C75.2379 104.748 74.755 105.013 74.3253 105.394ZM41.6783 108.701C41.975 108.685 42.2629 108.66 42.5596 108.644C42.6747 108.594 42.7819 108.545 42.8975 108.495C43.3918 108.257 43.8776 107.993 44.3059 107.614C43.7377 107.688 43.2186 107.886 42.7164 108.108C42.3616 108.273 42.0073 108.462 41.6783 108.701ZM61.9211 91.0189C62.4903 90.942 63.0059 90.748 63.5086 90.5272C64.0049 90.2909 64.4877 90.0269 64.917 89.6443C64.3473 89.7203 63.8321 89.9143 63.3295 90.1361C62.8337 90.3733 62.3509 90.6378 61.9211 91.0189ZM45.3584 53.1053C45.9276 53.0284 46.4427 52.8349 46.9459 52.6135C47.4422 52.3773 47.925 52.1133 48.3543 51.7312C47.7846 51.8071 47.2695 52.0012 46.7668 52.223C46.271 52.4597 45.7877 52.7242 45.3584 53.1053ZM43.565 58.8389C43.2171 59.296 42.9894 59.7972 42.7904 60.3093C42.6068 60.8269 42.4519 61.3554 42.4187 61.929C42.7675 61.4725 42.9953 60.9708 43.1933 60.4587C43.3759 59.9411 43.5308 59.4126 43.565 58.8389ZM34.8013 99.9102C34.4535 100.367 34.2257 100.868 34.0267 101.381C33.8431 101.898 33.6882 102.427 33.655 103C34.0038 102.544 34.2316 102.043 34.4296 101.53C34.6127 101.012 34.7671 100.483 34.8013 99.9102ZM58.4722 69.1633C58.1243 69.6203 57.8966 70.1216 57.6976 70.6337C57.5135 71.1513 57.3591 71.6798 57.3259 72.2534C57.6747 71.7969 57.902 71.2952 58.1005 70.783C58.2831 70.265 58.438 69.7365 58.4722 69.1633ZM51.6568 87.2415C51.3089 87.6986 51.0811 88.1998 50.8821 88.7119C50.698 89.2295 50.5432 89.758 50.5104 90.3316C50.8593 89.8751 51.0871 89.3739 51.2851 88.8613C51.4682 88.3437 51.623 87.8147 51.6568 87.2415ZM82.7465 110.286H82.8895C82.8984 110.21 82.9029 110.134 82.9073 110.058C82.8493 110.134 82.7957 110.21 82.7465 110.286ZM67.2736 110.286H67.7202C67.7381 110.237 67.7604 110.183 67.7783 110.134C67.9614 109.616 68.1133 109.089 68.149 108.513C67.8006 108.973 67.5728 109.473 67.3719 109.987C67.3361 110.085 67.3049 110.188 67.2736 110.286ZM70.9165 95.6251C70.5687 96.0821 70.3409 96.5833 70.1419 97.0955C69.9578 97.613 69.8035 98.1415 69.7702 98.7152C70.1191 98.2587 70.3469 97.757 70.5449 97.2448C70.728 96.7272 70.8828 96.1987 70.9165 95.6251ZM57.5537 53.083C57.2058 53.54 56.978 54.0412 56.779 54.5533C56.5949 55.0709 56.4401 55.5994 56.4073 56.1731C56.7562 55.7165 56.9835 55.2148 57.182 54.7027C57.3651 54.1851 57.5199 53.6561 57.5537 53.083ZM44.035 96.7714C43.5779 96.4235 43.0767 96.1958 42.5646 95.9968C42.047 95.8127 41.5185 95.6583 40.9448 95.6251C41.4014 95.9744 41.9031 96.2017 42.4152 96.3997C42.9328 96.5828 43.4613 96.7377 44.035 96.7714ZM58.4797 110.06C58.0226 109.712 57.5214 109.484 57.0093 109.285C56.4917 109.101 55.9632 108.947 55.3895 108.914C55.8461 109.262 56.3473 109.49 56.8599 109.688C57.3775 109.871 57.9065 110.026 58.4797 110.06ZM80.7898 97.5694C81.0265 97.7525 81.2811 97.8999 81.5402 98.0294C81.5044 97.9088 81.4642 97.7793 81.4285 97.6542C81.2186 97.6096 81.0087 97.5828 80.7898 97.5694ZM70.4516 82.7217C69.995 82.3734 69.4933 82.1461 68.9812 81.9471C68.4636 81.763 67.9351 81.6086 67.3614 81.5754C67.818 81.9243 68.3197 82.152 68.8318 82.35C69.3499 82.5331 69.8784 82.688 70.4516 82.7217ZM58.8707 97.3446C58.4137 96.9967 57.9124 96.7689 57.4003 96.5699C56.8827 96.3863 56.3542 96.2315 55.7806 96.1982C56.2371 96.5471 56.7388 96.7744 57.2509 96.9729C57.769 97.156 58.2975 97.3108 58.8707 97.3446ZM51.9917 76.3703C51.5347 76.0224 51.0335 75.7946 50.5214 75.5956C50.0038 75.412 49.4753 75.2572 48.9016 75.2239C49.3582 75.5728 49.8599 75.8001 50.372 75.9986C50.8896 76.1817 51.4181 76.3365 51.9917 76.3703ZM37.4319 68.0234C36.9749 67.6756 36.4737 67.4478 35.9615 67.2488C35.444 67.0652 34.9154 66.9103 34.3418 66.8771C34.7983 67.226 35.2995 67.4532 35.8122 67.6517C36.3302 67.8344 36.8588 67.9892 37.4319 68.0234ZM63.4664 63.1414C63.0099 62.7935 62.5082 62.5657 61.9961 62.3667C61.4785 62.1831 60.95 62.0283 60.3763 61.995C60.8328 62.3439 61.3346 62.5717 61.8467 62.7697C62.3643 62.9523 62.8928 63.1071 63.4664 63.1414Z" fill="#37474F"/>
<path d="M3.72315 106.891C6.98993 111.563 15.8826 112.454 38.0628 116.799C41.1321 117.4 51.2024 96.8817 47.9575 96.0708C43.8709 95.0501 27.79 91.9733 26.5857 91.8969C16.4275 91.2523 1.50741 103.721 3.72315 106.891Z" fill="#EB9481"/>
<path d="M43.5207 95.0591C43.5207 95.0591 52.9176 96.4793 57.6235 98.7536C63.9248 101.799 68.1116 107.023 69.7338 109.318C73.1202 114.108 77.9958 128.032 74.2308 130.136C70.8221 132.041 66.5573 117.556 66.5573 117.556C66.5573 117.556 73.3425 131.607 68.8173 133.145C64.2915 134.684 60.2972 117.588 60.2972 117.588C60.2972 117.588 66.9449 132.181 62.0271 133.029C58.3108 133.67 53.8207 118.39 53.8207 118.39C53.8207 118.39 59.4482 130.972 55.6544 131.797C51.4621 132.707 46.4326 118.862 46.4326 118.862C36.4368 119.334 31.4842 115.469 28.2889 112.301C27.5148 111.534 43.5207 95.0591 43.5207 95.0591Z" fill="#EB9481"/>
<path d="M64.5198 112.546C65.3763 114.168 66.2547 115.804 66.9643 117.496C67.674 119.188 68.325 120.907 68.8744 122.657C70.2207 126.951 70.3924 129.851 70.3621 129.673C69.65 125.465 67.2035 119.367 66.4934 117.674C65.7852 115.986 65.1615 114.261 64.4543 112.571C64.4365 112.528 64.4995 112.508 64.5198 112.546Z" fill="#263238"/>
<path d="M58.3637 114.998C59.3681 117.116 60.443 119.181 61.3541 121.345C62.2607 123.497 62.9326 125.619 63.6884 127.828C63.7465 127.998 63.6363 127.973 63.5708 127.805C62.7272 125.628 61.7789 123.679 60.9099 121.513C60.0435 119.353 59.255 117.144 58.3111 115.017C58.2967 114.984 58.3483 114.965 58.3637 114.998Z" fill="#263238"/>
<path d="M52.7003 116.151C54.4009 119.309 55.517 122.778 56.5303 126.206C56.581 126.377 56.4415 126.329 56.38 126.158C55.1696 122.792 54.2446 120.142 52.5901 116.211C52.5643 116.149 52.6641 116.085 52.7003 116.151Z" fill="#263238"/>
<path d="M45.4824 95.0588L26.0489 116.7C26.0489 116.7 6.3986 112.188 3.50301 107.148C1.59743 103.83 16.391 90.3931 27.561 91.9592L45.4824 95.0588Z" fill="#455A64"/>
<path d="M29.1076 109.97C29.3299 110.473 29.5234 110.988 29.5993 111.558C29.2172 111.129 28.9527 110.646 28.7165 110.15C28.4952 109.646 28.3017 109.131 28.2247 108.562C28.6063 108.992 28.8708 109.475 29.1076 109.97ZM13.8421 105.941C13.919 106.511 14.113 107.026 14.3338 107.529C14.5701 108.025 14.8341 108.508 15.2167 108.937C15.1407 108.368 14.9467 107.852 14.7249 107.35C14.4877 106.854 14.2237 106.371 13.8421 105.941ZM22.9452 103.687C23.5144 103.611 24.03 103.416 24.5327 103.196C25.0289 102.959 25.5118 102.695 25.941 102.313C25.3713 102.389 24.8562 102.583 24.3535 102.805C23.8578 103.042 23.3749 103.306 22.9452 103.687ZM15.1025 95.226C14.7547 95.683 14.5269 96.1842 14.3279 96.6963C14.1443 97.2139 13.9894 97.7424 13.9562 98.3161C14.305 97.8595 14.5328 97.3583 14.7308 96.8457C14.9139 96.3281 15.0688 95.7996 15.1025 95.226ZM34.8005 99.91C34.4526 100.367 34.2248 100.868 34.0258 101.38C33.8422 101.898 33.6874 102.426 33.6541 103C34.003 102.544 34.2308 102.042 34.4288 101.53C34.6119 101.012 34.7662 100.483 34.8005 99.91ZM44.0341 96.7713C43.5771 96.4234 43.0759 96.1956 42.5637 95.9966C42.0462 95.8125 41.5176 95.6582 40.944 95.6249C41.4005 95.9743 41.9022 96.2016 42.4144 96.3996C42.9319 96.5827 43.4605 96.7375 44.0341 96.7713ZM27.4863 94.9803C27.0293 94.632 26.5281 94.4047 26.0159 94.2057C25.4984 94.0221 24.9699 93.8672 24.3962 93.834C24.8528 94.1828 25.3544 94.4101 25.8666 94.6086C26.3847 94.7917 26.9132 94.9461 27.4863 94.9803ZM21.3651 114.007C20.9081 113.659 20.4069 113.432 19.8948 113.233C19.3772 113.049 18.8487 112.894 18.275 112.861C18.7316 113.21 19.2333 113.437 19.7454 113.636C20.263 113.819 20.7915 113.973 21.3651 114.007ZM5.00195 103.014C5.36818 103.246 5.75674 103.416 6.15423 103.568C6.67231 103.751 7.19932 103.907 7.77546 103.943C7.31544 103.595 6.81523 103.367 6.30161 103.166C5.92199 103.032 5.53789 102.911 5.13593 102.844C5.09127 102.902 5.04662 102.96 5.00195 103.014Z" fill="#37474F"/>
<path d="M14.2347 95.4802C16.0365 94.1751 21.1076 91.1321 27.5752 91.943C27.6323 91.9499 27.6338 92.0422 27.5752 92.0407C22.6991 91.9033 16.1189 94.4525 14.2773 95.5606C14.2292 95.5899 14.1895 95.513 14.2347 95.4802Z" fill="#263238"/>
<path d="M20.7346 113.077C22.7444 110.582 24.8847 108.198 27.0319 105.82C29.1807 103.441 31.3249 101.056 33.5327 98.7296C34.7803 97.4155 36.0204 96.0931 37.3136 94.8222C37.3474 94.7889 37.4114 94.8371 37.3806 94.8758C35.3753 97.3664 33.2424 99.7623 31.1145 102.15C28.9817 104.544 26.822 106.918 24.6415 109.27C23.4093 110.599 22.1533 111.906 20.8606 113.177C20.7961 113.24 20.6755 113.149 20.7346 113.077Z" fill="#263238"/>
<path d="M45.5164 94.7785C44.3304 94.3855 43.1017 94.1796 41.8739 93.9493C40.6477 93.7196 39.4175 93.5106 38.1858 93.3126C35.7359 92.9196 30.5888 91.8075 26.0651 91.8199C26.0149 91.8199 26.271 92.0626 26.3211 92.0601C28.4753 91.944 43.912 95.0148 45.1794 95.1051C45.1298 95.1874 45.0817 95.2708 45.043 95.3631C45.0172 95.4252 45.0792 95.5065 45.1462 95.4614C45.305 95.3547 45.4181 95.2212 45.5675 95.1036C45.6901 95.0073 45.6702 94.8292 45.5164 94.7785Z" fill="#263238"/>
<path d="M102.55 31.264C102.667 28.6135 102.131 16.4193 101.223 13.0592C100.314 9.69915 96.9997 0.219382 94.3558 0.653597C91.7118 1.08781 92.4601 3.94072 92.4601 3.94072C92.4601 3.94072 90.4265 0.159337 87.8053 0.839193C85.1841 1.51905 86.4942 5.91876 86.4942 5.91876C86.4942 5.91876 84.1227 2.18749 81.5566 3.05245C78.9905 3.9174 81.0489 8.12109 81.0489 8.12109C81.0489 8.12109 79.0396 4.60867 77.2254 6.21104C75.0429 8.13846 79.4783 14.1956 80.2028 17.98C80.3676 18.8395 82.297 35.6374 82.297 35.6374L102.55 31.264Z" fill="#EB9481"/>
<path d="M80.8791 7.75749C84.1305 12.2197 84.7811 14.7342 85.1434 20.1572C85.1503 20.2634 85.3096 20.2763 85.3121 20.1651C85.4411 14.8225 85.0799 11.5503 81.0871 7.58877C80.8915 7.39474 80.7243 7.5451 80.8791 7.75749Z" fill="#263238"/>
<path d="M86.2291 5.56931C89.2016 10.4985 89.931 13.2199 90.728 18.8717C90.7394 18.9516 90.8759 18.9411 90.8714 18.8593C90.5533 13.2492 90.1181 9.99334 86.5015 5.45816C86.3377 5.25321 86.0931 5.34402 86.2291 5.56931Z" fill="#263238"/>
<path d="M92.4921 4.22985C95.0254 9.21017 95.9544 12.1588 96.0234 17.7456C96.0248 17.8776 96.2174 17.8875 96.2283 17.755C96.7117 12.0517 95.5797 8.36307 92.6514 4.1693C92.4519 3.88297 92.3323 3.91672 92.4921 4.22985Z" fill="#263238"/>
<path d="M82.4651 39.1057C82.4651 39.1057 77.4277 34.3646 75.674 31.7936C73.9208 29.2225 70.912 17.2357 73.4642 16.4387C76.7593 15.41 79.8593 21.9878 80.9565 25.4079C80.9565 25.4079 88.5764 23.0209 91.8228 27.2604C95.0688 31.4998 82.4651 39.1057 82.4651 39.1057Z" fill="#EB9481"/>
<path d="M74.4627 16.4528C78.1444 17.6825 79.2947 22.2648 80.6072 25.5028C80.707 25.749 80.9402 25.7554 81.1134 25.6418C84.3737 24.8547 89.2027 24.6935 91.8511 27.0432C91.9286 27.1122 92.0368 27.0114 91.9683 26.9315C89.4702 24.026 84.7132 23.7968 81.1968 24.8875C79.9026 21.5458 78.5468 17.0007 74.4727 16.4161C74.4493 16.4141 74.4389 16.4454 74.4627 16.4528Z" fill="#263238"/>
<path d="M51.7186 54.7272C55.03 60.4604 74.1797 78.1351 90.8714 81.1974C93.1367 81.6133 101.76 79.7906 103.564 74.0689C106.777 63.88 104.207 42.8446 102.565 30.1899C102.244 27.7181 79.2875 32.7957 79.883 36.5731C80.542 40.755 83.0009 56.1177 82.6228 56.2924C81.2477 56.9266 66.5752 50.5915 56.9431 48.5147C50.1157 47.0434 49.1679 50.3116 51.7186 54.7272Z" fill="#EB9481"/>
<path d="M105.804 36.4495L79.6463 42.1131C79.6463 42.1131 82.0253 55.4795 81.5569 55.4016C81.0884 55.3236 62.7378 48.6318 55.6598 47.9291C48.5819 47.2264 48.5819 50.3374 52.1727 56.1787C55.7635 62.02 79.2712 81.5805 90.8545 81.576C96.7509 81.5735 102.238 77.7966 103.306 75.9943C106.629 70.3872 105.804 36.4495 105.804 36.4495Z" fill="#455A64"/>
<path d="M105.804 36.4495L79.6463 42.1131C79.6463 42.1131 82.0253 55.4795 81.5569 55.4016C81.0884 55.3236 62.7378 48.6318 55.6598 47.9291C48.5819 47.2264 48.5819 50.3374 52.1727 56.1787C55.7635 62.02 79.2712 81.5805 90.8545 81.576C96.7509 81.5735 102.238 77.7966 103.306 75.9943C106.629 70.3872 105.804 36.4495 105.804 36.4495Z" fill="#455A64"/>
<path d="M67.4328 53.6652C67.5077 54.2378 67.7052 54.75 67.9256 55.2566C68.1603 55.7494 68.4233 56.2332 68.8084 56.6605C68.7334 56.0923 68.5359 55.5757 68.3151 55.0735C68.0759 54.5807 67.8129 54.0969 67.4328 53.6652ZM88.223 77.014C88.2979 77.5822 88.4905 78.0988 88.7113 78.601C88.9505 79.0987 89.2135 79.5821 89.5941 80.0098C89.5192 79.4416 89.3266 78.925 89.1058 78.4228C88.8661 77.9296 88.6031 77.4462 88.223 77.014ZM103.627 61.0036C103.707 61.5718 103.9 62.0884 104.12 62.5906C104.355 63.0884 104.622 63.5717 105.003 63.999C104.928 63.4308 104.736 62.9142 104.51 62.412C104.276 61.9192 104.008 61.4354 103.627 61.0036ZM80.8513 61.0696C80.9312 61.6378 81.1237 62.1544 81.344 62.6566C81.5787 63.1544 81.8462 63.6377 82.2268 64.065C82.1519 63.4968 81.9594 62.9802 81.7336 62.478C81.4994 61.9852 81.2363 61.5014 80.8513 61.0696ZM92.312 67.6662C92.387 68.2344 92.5845 68.7505 92.8053 69.2532C93.04 69.7509 93.303 70.2343 93.6881 70.6616C93.6132 70.0934 93.4157 69.5768 93.1954 69.0746C92.9601 68.5768 92.6926 68.0935 92.312 67.6662ZM91.3027 51.5854C91.3776 52.1536 91.5701 52.6702 91.791 53.1724C92.0302 53.6701 92.2932 54.1535 92.6738 54.5807C92.5989 54.0125 92.4063 53.4959 92.1855 52.9937C91.9458 52.496 91.6833 52.0127 91.3027 51.5854ZM102.942 39.6313C103.017 40.204 103.215 40.7161 103.435 41.2233C103.67 41.7161 103.933 42.1999 104.318 42.6272C104.238 42.059 104.045 41.5424 103.825 41.0402C103.585 40.5469 103.322 40.0631 102.942 39.6313ZM56.4082 56.1722C56.7556 55.7166 56.9809 55.2144 57.1828 54.7028C57.366 54.1862 57.5208 53.6557 57.5535 53.0831C57.2062 53.5386 56.9759 54.0408 56.7789 54.5524C56.5963 55.069 56.4415 55.5995 56.4082 56.1722ZM71.9025 66.8633C72.2548 66.4077 72.4801 65.9055 72.6771 65.3939C72.8602 64.8773 73.015 64.3468 73.0478 63.7742C72.7004 64.2297 72.4751 64.7319 72.2732 65.2436C72.09 65.7646 71.9352 66.2906 71.9025 66.8633ZM83.5369 54.8155C83.8843 54.3599 84.1096 53.8577 84.3116 53.3461C84.4947 52.8295 84.645 52.299 84.6823 51.7263C84.3349 52.1864 84.1046 52.6841 83.9076 53.1957C83.725 53.7168 83.5697 54.2428 83.5369 54.8155ZM85.044 72.253C85.3914 71.7975 85.6167 71.2953 85.8187 70.7836C86.0018 70.267 86.1566 69.7366 86.1894 69.1639C85.842 69.6194 85.6117 70.1216 85.4147 70.6333C85.2321 71.1499 85.0773 71.6804 85.044 72.253ZM99.9656 70.3708C100.313 69.9152 100.543 69.413 100.74 68.9014C100.923 68.3803 101.078 67.8543 101.111 67.2816C100.764 67.7372 100.533 68.2394 100.336 68.751C100.153 69.2671 99.9984 69.7976 99.9656 70.3708ZM95.2607 45.7208C95.6081 45.2608 95.8334 44.763 96.0354 44.2514C96.2185 43.7303 96.3733 43.2043 96.4061 42.6267C96.0587 43.0867 95.8284 43.5894 95.6314 44.101C95.4488 44.6176 95.2935 45.1481 95.2607 45.7208ZM97.0214 59.7079C97.3688 59.2479 97.599 58.7502 97.796 58.2336C97.9792 57.717 98.134 57.1865 98.1667 56.6138C97.8194 57.0739 97.5941 57.5716 97.3921 58.0882C97.2095 58.6043 97.0546 59.1303 97.0214 59.7079ZM60.3757 61.9941C60.8312 62.3415 61.3334 62.5718 61.8451 62.7688C62.3661 62.9519 62.8921 63.1067 63.4648 63.1395C63.0093 62.7921 62.5071 62.5668 61.9954 62.3648C61.4793 62.1822 60.9488 62.0274 60.3757 61.9941ZM88.0493 61.356C88.5049 61.7033 89.0071 61.9336 89.5187 62.1306C90.0397 62.3137 90.5657 62.4685 91.1384 62.5018C90.6829 62.1544 90.1807 61.9291 89.669 61.7272C89.1524 61.5436 88.622 61.3887 88.0493 61.356ZM85.4386 44.9178C85.8941 45.2702 86.3963 45.4955 86.9079 45.6925C87.429 45.8756 87.955 46.0304 88.5277 46.0632C88.0721 45.7158 87.5699 45.4905 87.0583 45.2885C86.5422 45.1059 86.0112 44.9511 85.4386 44.9178ZM100.289 50.0783C100.745 50.4257 101.247 50.6559 101.759 50.8529C102.275 51.036 102.806 51.1909 103.378 51.2236C102.923 50.8763 102.421 50.646 101.909 50.449C101.388 50.2659 100.862 50.1111 100.289 50.0783ZM75.593 72.3751C76.0486 72.7225 76.5508 72.9527 77.0624 73.1497C77.5835 73.3328 78.1095 73.4877 78.6822 73.5204C78.2266 73.173 77.7244 72.9478 77.2128 72.7458C76.6962 72.5632 76.1657 72.4083 75.593 72.3751ZM95.4766 76.7232C95.9321 77.0706 96.4343 77.3008 96.946 77.4978C97.4626 77.6809 97.993 77.8358 98.5657 77.8685C98.1102 77.5212 97.608 77.2909 97.0963 77.0939C96.5802 76.9108 96.0498 76.7559 95.4766 76.7232ZM74.0482 54.5902C74.5038 54.9425 75.006 55.1678 75.5176 55.3648C76.0387 55.5479 76.5647 55.7027 77.1374 55.7355C76.6818 55.3881 76.1796 55.1628 75.668 54.9609C75.1514 54.7777 74.6209 54.6229 74.0482 54.5902Z" fill="#37474F"/>
<path d="M81.3558 55.5181C81.5002 57.5214 81.9597 59.488 82.3954 61.4363C82.8371 63.4124 83.4539 65.3284 84.0389 67.2607C84.0523 67.3044 84.1194 67.2801 84.1079 67.2364C83.6047 65.2936 83.2405 63.3101 82.8103 61.3485C82.3815 59.3933 82.0832 57.4048 81.582 55.4695C81.5498 55.3449 81.3468 55.3905 81.3558 55.5181Z" fill="#263238"/>
<path d="M81.1863 47.0448C84.2154 46.2915 87.2822 45.7 90.3515 45.1174C93.4222 44.5343 96.493 43.9448 99.5786 43.4381C101.322 43.1518 103.065 42.855 104.819 42.6297C104.865 42.6238 104.886 42.6987 104.839 42.7106C101.816 43.4639 98.7475 44.0688 95.6881 44.6708C92.6213 45.2742 89.5451 45.8464 86.4654 46.3888C84.725 46.6955 82.9793 46.9709 81.2255 47.1972C81.1387 47.2086 81.0975 47.0672 81.1863 47.0448Z" fill="#263238"/>
<path d="M72.5503 73.7661C72.0664 73.3399 71.5349 72.9786 71.0298 72.5796C70.5395 72.1925 70.0447 71.8119 69.55 71.4308C68.5426 70.6547 67.5303 69.885 66.5244 69.1069C64.5096 67.5482 62.5321 65.9413 60.5367 64.3578C59.3993 63.4552 58.2733 62.5391 57.1553 61.6116C57.1096 61.5739 57.0471 61.6374 57.0912 61.6791C58.4639 62.9698 59.8509 64.2496 61.2791 65.4803C61.0989 65.394 60.9183 65.3081 60.7396 65.2188C60.1928 64.9454 59.6549 64.6506 59.1199 64.3548C59.0728 64.329 59.039 64.3965 59.0807 64.4263C59.5809 64.7841 60.1035 65.1002 60.6449 65.3915C60.9104 65.5344 61.1798 65.6679 61.4532 65.7945C61.5847 65.855 61.7163 65.915 61.8512 65.9667C61.8542 65.9676 61.8572 65.9691 61.8597 65.9701C62.1837 66.2441 62.5068 66.5195 62.8363 66.7874C64.8108 68.3943 66.8286 69.9456 68.89 71.4383C69.4592 71.8501 70.0343 72.2561 70.6219 72.6421C71.2412 73.0491 71.8372 73.4937 72.4868 73.853C72.5399 73.8823 72.5974 73.8073 72.5503 73.7661Z" fill="#263238"/>
<path d="M42.6549 57.5414C45.9947 58.194 51.4757 52.9149 53.5579 48.7296C53.6989 48.4418 53.1525 45.4976 52.6572 41.8889C52.3655 39.6974 52.092 37.2509 52.0037 35C51.9878 34.538 38.0215 38.9828 38.0215 38.9828C38.0215 38.9828 39.5941 43.6466 39.7241 47.5714C39.7315 47.8994 39.7107 48.2061 39.6631 48.4988C39.6601 48.5415 39.6497 48.5931 39.6487 48.6527C39.4318 50.4178 39.4278 56.9082 42.6549 57.5414Z" fill="#EB9481"/>
<path d="M41.0997 48.6706C40.5717 48.7039 40.0923 48.6994 39.6487 48.6508C39.6502 48.5912 39.6591 48.5421 39.6631 48.4964C39.7117 48.2051 39.7306 47.899 39.7211 47.5694C39.5911 43.6481 38.0215 38.9834 38.0215 38.9834C38.0215 38.9834 49.3572 35.3742 51.6151 34.9966C51.2807 37.6143 49.4178 48.16 41.0997 48.6706Z" fill="#263238"/>
<path d="M55.4732 21.1879C56.562 26.3106 52.6719 40.4977 48.8429 43.4028C43.2919 47.6149 34.8284 47.3271 31.4078 40.7975C28.0919 34.4679 33.4886 16.0686 37.7072 13.4931C43.9207 9.69879 53.8649 13.6201 55.4732 21.1879Z" fill="#EB9481"/>
<path d="M42.2775 29.3608C42.2948 29.3266 42.34 29.4263 42.3281 29.465C42.0403 30.4138 41.871 31.5487 42.6511 32.0991C42.6755 32.1159 42.6596 32.1636 42.6288 32.1502C41.6125 31.718 41.8532 30.2133 42.2775 29.3608Z" fill="#263238"/>
<path d="M43.401 28.5912C44.9711 28.8885 44.2615 32.0074 42.807 31.732C41.3748 31.4615 42.0844 28.3426 43.401 28.5912Z" fill="#263238"/>
<path d="M36.7712 28.0089C36.7722 27.9702 36.6853 28.0372 36.6774 28.0774C36.4883 29.0506 36.1077 30.1329 35.1609 30.2549C35.1311 30.2589 35.1232 30.308 35.1564 30.3105C36.2571 30.4033 36.7479 28.9612 36.7712 28.0089Z" fill="#263238"/>
<path d="M36.1388 26.8034C34.6119 26.332 33.7812 29.4206 35.196 29.8573C36.5879 30.2876 37.4186 27.1989 36.1388 26.8034Z" fill="#263238"/>
<path d="M45.1206 27.0575C44.6928 26.9195 44.3221 26.7205 43.9132 26.5404C43.4522 26.3369 43.0641 26.2223 42.7822 25.7781C42.6314 25.54 42.7272 25.137 42.945 24.9683C43.4517 24.5762 44.0784 24.6849 44.6432 24.9072C45.256 25.1484 45.6669 25.4913 45.9895 26.0645C46.3021 26.6203 45.6843 27.2396 45.1206 27.0575Z" fill="#263238"/>
<path d="M35.2906 24.9588C35.7392 24.9865 36.1571 24.9374 36.6032 24.9191C37.1069 24.8982 37.5098 24.9335 37.9341 24.6233C38.1619 24.4571 38.22 24.0467 38.079 23.8099C37.751 23.2596 37.1282 23.1321 36.5208 23.1321C35.8618 23.1326 35.3541 23.3008 34.8445 23.7167C34.3507 24.1191 34.6996 24.9215 35.2906 24.9588Z" fill="#263238"/>
<path d="M41.1291 38.1987C40.8462 38.3724 40.5445 38.6314 40.1872 38.5808C39.8443 38.5326 39.485 38.291 39.2041 38.1014C39.1763 38.0826 39.1381 38.1079 39.151 38.1416C39.3178 38.5694 39.7922 38.9217 40.2581 38.945C40.7127 38.9684 41.0149 38.6393 41.2124 38.2637C41.2397 38.2106 41.1707 38.1734 41.1291 38.1987Z" fill="#263238"/>
<path d="M40.7758 35.0748C40.0443 35.7903 39.1451 36.0677 38.2469 36.039C37.8455 36.029 37.439 35.9501 37.051 35.8241C36.9736 35.8047 36.8976 35.7784 36.8311 35.7467C36.7626 35.7219 36.7006 35.699 36.6267 35.6658C36.5175 35.6236 36.4768 35.5164 36.4823 35.4053L36.4843 35.3983C36.4927 35.3631 36.4996 35.3348 36.516 35.3015C36.516 35.3015 36.516 35.3015 36.5175 35.2946L36.5383 35.2102C36.6872 34.4619 37.0167 33.3468 37.0167 33.3468C36.714 33.4213 35.1861 33.7294 35.2967 33.3453C36.2207 30.1718 37.248 26.6426 38.8379 23.68C38.8856 23.5797 39.0424 23.6408 39.0086 23.745C38.2414 26.8301 36.9363 29.7595 36.1165 32.8461C36.5969 32.7786 37.3889 32.6317 37.7765 32.728C37.8752 32.7826 37.1011 34.8713 37.0609 35.2132C37.0609 35.2132 37.0574 35.2276 37.0594 35.2499C38.2727 35.6941 39.3009 35.5308 40.7048 34.9676C40.7897 34.9289 40.8512 35.0112 40.7758 35.0748Z" fill="#263238"/>
<path d="M37.5508 35.9412C37.5508 35.9412 38.1567 36.9312 39.0693 37.3505C39.4052 37.5064 39.7755 37.5887 40.1764 37.5193C41.0007 37.3793 41.0865 36.6419 40.9952 35.9963C40.9218 35.4653 40.7208 34.9958 40.7208 34.9958C40.7208 34.9958 39.4469 35.9923 37.5508 35.9412Z" fill="#263238"/>
<path d="M39.0703 37.3506C39.4063 37.5064 39.7765 37.5888 40.1774 37.5193C41.0017 37.3794 41.0876 36.642 40.9962 35.9963C40.1253 36.0082 39.2187 36.5184 39.0703 37.3506Z" fill="#FF9ABB"/>
<path d="M52.6993 33.851C52.6993 33.851 57.8901 26.1692 57.6707 21.5685C57.572 19.4887 54.8208 17.9538 54.8208 17.9538C54.8208 17.9538 55.789 15.4781 53.5767 13.177C51.2449 10.7513 45.2924 10.9727 45.2924 10.9727C45.2924 10.9727 41.7274 5.22961 36.1823 7.1605C30.6368 9.09139 33.8713 15.4289 33.8713 15.4289C33.8713 15.4289 31.7355 18.1598 36.4969 20.6152C41.1334 23.0061 50.9372 21.37 50.9372 21.37C50.9372 21.37 49.9065 26.3007 50.5873 31.4209C50.8394 33.3191 52.6993 33.851 52.6993 33.851Z" fill="#263238"/>
<path d="M44.3526 10.999C45.5788 10.5379 46.9058 10.4238 48.2114 10.4908C49.3687 10.5503 50.5542 10.7538 51.6281 11.2009C53.548 12.0004 55.2149 13.5278 55.4372 15.6919C55.5489 16.7797 55.2194 17.8208 54.5281 18.663C54.4998 18.6972 54.4497 18.6461 54.48 18.6123C55.8154 17.1191 55.274 14.6662 54.0408 13.2986C52.6454 11.7513 50.4267 11.0808 48.4109 10.8947C47.0616 10.7702 45.7163 10.9186 44.3824 11.118C44.3035 11.129 44.2792 11.0262 44.3526 10.999Z" fill="#263238"/>
<path d="M32.1649 9.59023C32.6924 8.09157 34.0456 7.17798 35.5339 6.78346C37.2305 6.33386 39.0667 6.52591 40.6705 7.21917C42.3056 7.92582 43.6768 9.1178 44.7239 10.5485C44.7472 10.5802 44.6921 10.6209 44.6683 10.5897C42.7443 8.07073 39.614 6.53435 36.4212 7.04548C34.9935 7.27375 33.5434 7.93177 32.8214 9.24881C32.1579 10.4596 32.2095 12.0442 32.7425 13.2917C33.401 14.8331 34.7027 16.0389 36.0624 16.9689C36.0936 16.9902 36.0644 17.0394 36.0311 17.0195C34.7086 16.2201 33.4814 15.2281 32.6964 13.8738C31.9555 12.595 31.6656 11.009 32.1649 9.59023Z" fill="#263238"/>
<path d="M35.3101 20.8153C37.4142 21.85 39.7574 22.2708 42.0863 22.3398C44.5254 22.4122 46.9346 22.1646 49.3295 21.712C50.7195 21.4495 52.1 21.1344 53.4727 20.7945C53.5168 20.7835 53.5312 20.8476 53.4895 20.8624C51.0569 21.7125 48.5782 22.446 46.0141 22.768C43.6257 23.0682 41.2462 22.973 38.9143 22.3497C37.6444 22.0103 36.4276 21.5046 35.2823 20.86C35.2525 20.8431 35.2803 20.8004 35.3101 20.8153Z" fill="#263238"/>
<path d="M50.4898 33.0539C50.4898 33.0539 54.2425 28.7499 56.2294 30.1369C58.2164 31.5234 55.0459 38.0059 52.4684 38.6624C49.8909 39.319 49.2363 36.9449 49.2363 36.9449L50.4898 33.0539Z" fill="#EB9481"/>
<path d="M55.2745 31.9719C55.3147 31.9729 55.3167 32.0295 55.2805 32.0399C53.4667 32.5575 52.3789 34.0711 51.5592 35.6729C52.1452 35.0854 52.8866 34.8085 53.6821 35.5161C53.7238 35.5533 53.6727 35.6198 53.625 35.604C52.9293 35.3752 52.4028 35.4437 51.8604 35.9623C51.4768 36.3295 51.1889 36.8148 50.8952 37.255C50.7969 37.4019 50.5255 37.2882 50.6039 37.116C50.6098 37.1031 50.6163 37.0902 50.6222 37.0773C50.8163 34.8561 52.8712 31.9397 55.2745 31.9719Z" fill="#263238"/>
<path d="M38.6001 51.3876C38.6031 51.3588 38.6502 51.3598 38.6502 51.3891C38.6363 54.1527 38.8021 60.5498 43.5487 59.9205C45.4607 59.667 47.1445 58.4928 48.5409 57.3549C49.9746 56.1868 51.232 54.8509 52.3555 53.4336C53.6021 51.861 54.8824 50.2125 55.8243 48.4722C55.8645 48.3982 55.9801 48.4632 55.9459 48.5411C55.0497 50.5693 54.0874 52.0774 52.8766 53.7294C51.7114 55.3194 50.3651 56.8121 48.7677 58.0631C47.2705 59.2352 45.4726 60.4133 43.4425 60.5934C41.5111 60.7651 40.0333 59.7543 39.3633 58.1653C38.483 56.0781 38.3639 53.5865 38.6001 51.3876Z" fill="#263238"/>
</svg>
