<svg width="150" height="121" viewBox="0 0 150 121" fill="none" xmlns="http://www.w3.org/2000/svg">
<path d="M116.436 51.0434L123.533 59.0417L136.795 47.2748L129.698 39.2765L116.436 51.0434Z" fill="#AB1F34"/>
<path d="M123.491 44.7849L130.588 52.7832L132.192 51.3598L125.095 43.3615L123.491 44.7849Z" fill="white"/>
<path d="M129.698 39.2764L136.795 47.2747L138.129 46.091L131.032 38.0928L129.698 39.2764Z" fill="white"/>
<path d="M130.727 38.3643L137.824 46.3625L138.837 45.464L131.74 37.4657L130.727 38.3643Z" fill="#AB1F34"/>
<path d="M148.905 29.3866L147.296 30.0887L146.131 28.7759L146.302 30.5226L144.693 31.2246L146.407 31.6021L146.578 33.3491L147.467 31.8354L149.181 32.2128L148.016 30.9L148.905 29.3866Z" fill="#FF2E4D"/>
<path d="M146.545 31.48L138.841 45.4632L135.292 41.4637L131.744 37.4645L146.545 31.48Z" fill="#41C482"/>
<path d="M146.544 31.48L136.647 42.9921L135.291 41.4637L133.936 39.9355L146.544 31.48Z" fill="#FF2E4D"/>
<path d="M120.193 47.7015L116.785 50.7288L123.888 58.7247L127.296 55.6974L120.193 47.7015Z" fill="#8C192B"/>
<path d="M118.419 47.9336L117.291 48.934L118.515 50.3141L119.643 49.3133L120.774 50.5887L119.647 51.5891L120.871 52.9691L121.998 51.9683L123.13 53.2438L122.002 54.2445L123.391 55.8097L124.519 54.8089L125.65 56.0843L124.523 57.0851L125.582 58.2793L126.71 57.2785L127.842 58.5539L126.714 59.5547L125.943 60.2384L108.431 75.7756L97.877 63.8795L115.389 48.3423L116.159 47.6586L117.287 46.6582L118.419 47.9336Z" fill="#FF2E4D"/>
<path d="M110.002 53.1205L120.557 65.0157L121.259 64.3928L110.704 52.4975L110.002 53.1205Z" fill="#AB1F34"/>
<path d="M103.543 58.8494L114.098 70.7446L115.502 69.4987L104.947 57.6035L103.543 58.8494Z" fill="#AB1F34"/>
<path d="M113.836 65.2644L115.307 66.9224L117.701 64.7978L116.23 63.1398L113.836 65.2644Z" fill="#AB1F34"/>
<path d="M110.642 61.6643L112.113 63.3223L114.508 61.1977L113.037 59.5397L110.642 61.6643Z" fill="#AB1F34"/>
<path d="M107.484 58.1052L108.955 59.7632L111.35 57.6386L109.878 55.9807L107.484 58.1052Z" fill="#AB1F34"/>
<path d="M100.794 64.1139L108.592 72.8918L111.78 70.0598L103.982 61.2819L100.794 64.1139Z" fill="#AB1F34"/>
<path d="M129.694 39.2759L128.83 40.0435L135.929 48.0345L136.793 47.267L129.694 39.2759Z" fill="#8C192B"/>
<path d="M125.025 44.7973C123.277 46.348 123.117 49.0222 124.668 50.7703C126.219 52.5184 128.893 52.678 130.641 51.1272C132.389 49.5765 132.548 46.902 130.998 45.1542C129.447 43.4065 126.773 43.2465 125.025 44.7973Z" fill="#FF2E4D"/>
<path d="M125.543 45.3821C124.118 46.6464 123.988 48.8266 125.252 50.2519C126.516 51.6769 128.697 51.8074 130.122 50.5427C131.547 49.2785 131.677 47.0983 130.413 45.6733C129.148 44.248 126.968 44.1179 125.543 45.3821Z" fill="white"/>
<path d="M125.001 48.3394C125.03 48.3714 125.073 48.3901 125.119 48.385L127.847 48.1C127.875 48.0971 127.902 48.0852 127.924 48.0658L129.828 46.377C129.885 46.3263 129.89 46.239 129.839 46.1818C129.788 46.1247 129.701 46.1193 129.644 46.1703L127.774 47.8297L125.091 48.1104C125.015 48.1183 124.96 48.1863 124.968 48.2625C124.97 48.2916 124.983 48.3182 125.001 48.3394Z" fill="#41C482"/>
<path d="M113.752 53.9323L120.156 61.1416L122.175 59.3485L115.771 52.1392L113.752 53.9323Z" fill="#AB1F34"/>
<path d="M30.2696 48.8784L30.2329 47.3384C29.8418 47.4969 29.4493 47.6533 29.0546 47.8046C27.7953 46.9085 26.5641 45.9864 25.3613 45.0396C35.1566 41.6925 43.8512 35.9902 50.8243 28.3406C51.2133 29.8209 51.5684 31.3177 51.8887 32.8297C51.5925 33.1316 51.2927 33.4293 50.9915 33.7248L52.3891 34.3722L30.2696 48.8784Z" fill="#AB1F34"/>
<path d="M26.7636 46.1162C26.2931 45.76 25.8233 45.403 25.3613 45.0396C35.1566 41.6925 43.8512 35.9902 50.8243 28.3406C50.976 28.9172 51.118 29.4988 51.2593 30.0804C44.4875 37.3533 36.1398 42.8188 26.7636 46.1162Z" fill="#331C16"/>
<path d="M32.193 52.1032L54.582 37.4199L53.522 35.8036L31.133 50.4869L32.193 52.1032Z" fill="#AB1F34"/>
<path d="M47.6667 34.5553C48.3584 34.1016 49.2872 34.2947 49.7409 34.9863L60.07 50.7359L57.5648 52.3787L47.2357 36.6291C46.7821 35.9375 46.9751 35.009 47.6667 34.5553Z" fill="#FF2E4D"/>
<path d="M32.3933 44.5719C33.0849 44.1182 34.0138 44.3113 34.4675 45.0029L44.7966 60.7525L42.2914 62.3953L31.9623 46.6457C31.5086 45.9544 31.7017 45.0256 32.3933 44.5719Z" fill="#FF2E4D"/>
<path d="M42.0384 44.7971L44.1934 43.3838L41.5082 39.2894L39.3532 40.7027L42.0384 44.7971Z" fill="#FF2E4D"/>
<path d="M47.7738 36.0661C47.9981 36.4083 48.4575 36.5035 48.7997 36.2792C49.1419 36.0549 49.2372 35.5955 49.0129 35.2533C48.7886 34.9111 48.3292 34.8158 47.9869 35.0401C47.6447 35.2644 47.5495 35.7238 47.7738 36.0661Z" fill="#AB1F34"/>
<path d="M32.5005 46.0827C32.7248 46.4249 33.1842 46.5202 33.5264 46.2958C33.8686 46.0715 33.9639 45.6121 33.7396 45.2699C33.5153 44.9277 33.0559 44.8324 32.7137 45.0567C32.3714 45.281 32.2758 45.7405 32.5005 46.0827Z" fill="#AB1F34"/>
<path d="M82.5208 21.7156C82.5208 17.8009 74.57 11.5371 74.57 11.5371C74.57 11.5371 66.6191 17.8009 66.6191 21.7156C66.6191 22.3619 66.7166 22.9378 66.8985 23.449C67.1357 24.1155 67.2518 24.7438 67.2518 25.4509V27.0937H81.8878V25.4509C81.8878 24.7435 82.0039 24.1151 82.2412 23.449C82.4234 22.9378 82.5208 22.3619 82.5208 21.7156Z" fill="#FFD5A3"/>
<path d="M74.57 13.2313C74.57 13.2313 81.6013 18.7719 82.4382 22.6876C82.4914 22.3824 82.5208 22.0596 82.5208 21.7156C82.5208 17.8009 74.57 11.5371 74.57 11.5371C74.57 11.5371 66.6191 17.8009 66.6191 21.7156C66.6191 22.06 66.6486 22.3824 66.7018 22.6876C67.5387 18.7719 74.57 13.2313 74.57 13.2313Z" fill="#FFE2C2"/>
<path d="M81.886 25.989H67.25V27.0937H81.886V25.989Z" fill="#C4A47D"/>
<path d="M81.9094 24.9678H67.2324C67.2425 25.0939 67.2468 25.223 67.2486 25.3535H81.8928C81.8954 25.223 81.8993 25.0939 81.9094 24.9678Z" fill="#C4A47D"/>
<path d="M82.7721 26.4866H66.7324V50.0515H82.7721V26.4866Z" fill="#FFD5A3"/>
<path d="M74.7527 32.9302C72.3823 32.9302 70.4609 34.8113 70.4609 37.1317V50.0516H79.0445V37.1317C79.0445 34.8113 77.1231 32.9302 74.7527 32.9302Z" fill="#8C755A"/>
<path d="M66.7326 30.905H54.582V50.0517H66.7326V30.905Z" fill="#FFD5A3"/>
<path d="M59.6096 37.901H56.6641V33.8889C56.6641 33.3594 57.0933 32.9302 57.6228 32.9302H58.6512C59.1807 32.9302 59.6099 33.3594 59.6099 33.8889L59.6096 37.901Z" fill="#8C755A"/>
<path d="M64.6487 37.901H61.7031V33.8889C61.7031 33.3594 62.1323 32.9302 62.6618 32.9302H63.6903C64.2198 32.9302 64.649 33.3594 64.649 33.8889V37.901H64.6487Z" fill="#8C755A"/>
<path d="M59.6096 46.6459H56.6641V42.6338C56.6641 42.1043 57.0933 41.675 57.6228 41.675H58.6512C59.1807 41.675 59.6099 42.1043 59.6099 42.6338L59.6096 46.6459Z" fill="#8C755A"/>
<path d="M64.6487 46.6459H61.7031V42.6338C61.7031 42.1043 62.1323 41.675 62.6618 41.675H63.6903C64.2198 41.675 64.649 42.1043 64.649 42.6338V46.6459H64.6487Z" fill="#8C755A"/>
<path d="M65.5955 27.5438C65.5955 26.0085 62.4775 24.0432 62.4775 24.0432C62.4775 24.0432 59.3594 26.0085 59.3594 27.5438C59.3594 27.7972 59.3975 28.0229 59.469 28.2235C59.5621 28.4849 59.6078 28.7602 59.6078 29.0374V30.1442H65.3479V29.0374C65.3479 28.7599 65.3935 28.4849 65.4866 28.2235C65.5571 28.0233 65.5955 27.7976 65.5955 27.5438Z" fill="#FFD5A3"/>
<path d="M61.1958 28.7881H60.2637V30.1444H61.1958V28.7881Z" fill="#C4A47D"/>
<path d="M62.9438 28.7881H62.0117V30.1444H62.9438V28.7881Z" fill="#C4A47D"/>
<path d="M64.647 28.7881H63.7148V30.1444H64.647V28.7881Z" fill="#C4A47D"/>
<path d="M66.7343 29.8005H55.2969V30.9052H66.7343V29.8005Z" fill="#C4A47D"/>
<path d="M82.7752 50.0515H94.9258V30.9049H82.7752V50.0515Z" fill="#FFD5A3"/>
<path d="M89.8968 37.901H92.8424V33.8889C92.8424 33.3594 92.4132 32.9302 91.8837 32.9302H90.8552C90.3257 32.9302 89.8965 33.3594 89.8965 33.8889V37.901H89.8968Z" fill="#8C755A"/>
<path d="M84.8558 37.901H87.8014V33.8889C87.8014 33.3594 87.3722 32.9302 86.8426 32.9302H85.8142C85.2847 32.9302 84.8555 33.3594 84.8555 33.8889V37.901H84.8558Z" fill="#8C755A"/>
<path d="M89.8968 46.6456H92.8424V42.6335C92.8424 42.104 92.4132 41.6748 91.8837 41.6748H90.8552C90.3257 41.6748 89.8965 42.104 89.8965 42.6335V46.6456H89.8968Z" fill="#8C755A"/>
<path d="M84.8558 46.6456H87.8014V42.6335C87.8014 42.104 87.3722 41.6748 86.8426 41.6748H85.8142C85.2847 41.6748 84.8555 42.104 84.8555 42.6335V46.6456H84.8558Z" fill="#8C755A"/>
<path d="M83.9082 27.5438C83.9082 26.0085 87.0263 24.0432 87.0263 24.0432C87.0263 24.0432 90.1444 26.0085 90.1444 27.5438C90.1444 27.7972 90.1063 28.0229 90.0347 28.2235C89.9416 28.4849 89.896 28.7602 89.896 29.0374V30.1442H84.1559V29.0374C84.1559 28.7599 84.1102 28.4849 84.0171 28.2235C83.9467 28.0233 83.9082 27.7976 83.9082 27.5438Z" fill="#FFD5A3"/>
<path d="M88.3101 30.1443H89.2422V28.788H88.3101V30.1443Z" fill="#C4A47D"/>
<path d="M86.562 30.1443H87.4941V28.788H86.562V30.1443Z" fill="#C4A47D"/>
<path d="M84.8569 30.1443H85.7891V28.788H84.8569V30.1443Z" fill="#C4A47D"/>
<path d="M82.7736 30.9053H94.2109V29.8006H82.7736V30.9053Z" fill="#C4A47D"/>
<path d="M68.1379 26.4866H66.6191V50.0515H68.1379V26.4866Z" fill="#EBC496"/>
<path d="M82.7727 26.4866H81.2539V50.0515H82.7727V26.4866Z" fill="#EBC496"/>
<path d="M25.9045 64.1807L10.0103 92.5328L8.58789 91.7355L11.1793 74.5569L24.4817 63.3831L25.9045 64.1807Z" fill="#FFD5A3"/>
<path d="M19.6882 69.7548L19.6759 69.7483L12.7079 75.4147L11.5098 84.3156L11.5216 84.3224L19.6882 69.7548Z" fill="#C4A47D"/>
<path d="M27.1452 61.9696L9.28125 93.8361L10.9052 94.7464L28.7692 62.88L27.1452 61.9696Z" fill="#8C755A"/>
<path d="M43.0621 73.7986L27.168 102.151L28.4389 102.864L44.333 74.5111L43.0621 73.7986Z" fill="#8C755A"/>
<path d="M45.1575 73.0409L27.6152 104.333L28.8861 105.046L46.4284 73.7533L45.1575 73.0409Z" fill="#C4A47D"/>
<path d="M47.3448 72.1177L27.9688 106.682L29.2396 107.394L48.6156 72.8302L47.3448 72.1177Z" fill="#8C755A"/>
<path d="M11.9838 88.0269L11.207 89.4126L12.0543 89.8876L12.8311 88.5019L11.9838 88.0269Z" fill="#8C755A"/>
<path d="M13.6557 85.0466L12.8789 86.4323L13.7262 86.9072L14.503 85.5216L13.6557 85.0466Z" fill="#8C755A"/>
<path d="M15.4194 81.898L14.6426 83.2837L15.4898 83.7587L16.2666 82.373L15.4194 81.898Z" fill="#8C755A"/>
<path d="M17.0893 78.9177L16.3125 80.3033L17.1598 80.7783L17.9365 79.3926L17.0893 78.9177Z" fill="#8C755A"/>
<path d="M18.851 75.7778L18.0742 77.1635L18.9215 77.6384L19.6983 76.2528L18.851 75.7778Z" fill="#8C755A"/>
<path d="M20.5209 72.802L19.7441 74.1876L20.5914 74.6626L21.3682 73.2769L20.5209 72.802Z" fill="#8C755A"/>
<path d="M22.2846 69.6514L21.5078 71.0371L22.3551 71.5121L23.1319 70.1264L22.2846 69.6514Z" fill="#8C755A"/>
<path d="M23.9545 66.6735L23.1777 68.0592L24.025 68.5342L24.8018 67.1485L23.9545 66.6735Z" fill="#8C755A"/>
<path d="M27.5308 65.0912L11.6367 93.4438L12.6721 94.0243L28.5662 65.6717L27.5308 65.0912Z" fill="#C4A47D"/>
<path d="M15.5818 89.8273L13.9219 92.7883L27.9958 100.678L29.6557 97.717L15.5818 89.8273Z" fill="#FFD5A3"/>
<path d="M15.2686 90.3897L14.2402 92.2241L28.3142 100.114L29.3425 98.2794L15.2686 90.3897Z" fill="#C4A47D"/>
<path d="M14.957 90.9423L14.5488 91.6704L28.6228 99.5601L29.0309 98.832L14.957 90.9423Z" fill="#FFD5A3"/>
<path d="M15.3203 89.3018L13.2598 92.9774L14.107 93.4524L16.1676 89.7767L15.3203 89.3018Z" fill="#FFD5A3"/>
<path d="M19.8259 82.2523L18.166 85.2134L32.2399 93.103L33.8999 90.142L19.8259 82.2523Z" fill="#FFD5A3"/>
<path d="M19.5127 82.8149L18.4844 84.6493L32.5583 92.5389L33.5866 90.7046L19.5127 82.8149Z" fill="#C4A47D"/>
<path d="M19.2011 83.3675L18.793 84.0956L32.8669 91.9852L33.2751 91.2571L19.2011 83.3675Z" fill="#FFD5A3"/>
<path d="M19.5644 81.7272L17.5039 85.4028L18.3512 85.8778L20.4117 82.2021L19.5644 81.7272Z" fill="#FFD5A3"/>
<path d="M23.9959 74.818L22.3359 77.7791L36.4099 85.6687L38.0698 82.7077L23.9959 74.818Z" fill="#FFD5A3"/>
<path d="M23.6807 75.3802L22.6523 77.2146L36.7263 85.1043L37.7546 83.2699L23.6807 75.3802Z" fill="#C4A47D"/>
<path d="M23.3711 75.9331L22.9629 76.6613L37.0368 84.5509L37.445 83.8228L23.3711 75.9331Z" fill="#FFD5A3"/>
<path d="M23.7344 74.2925L21.6738 77.9681L22.5211 78.4431L24.5816 74.7674L23.7344 74.2925Z" fill="#FFD5A3"/>
<path d="M28.3259 67.0878L26.666 70.0488L40.7399 77.9385L42.3999 74.9775L28.3259 67.0878Z" fill="#FFD5A3"/>
<path d="M28.0108 67.6523L26.9824 69.4867L41.0563 77.3764L42.0847 75.542L28.0108 67.6523Z" fill="#C4A47D"/>
<path d="M27.7011 68.2032L27.293 68.9313L41.3669 76.8209L41.7751 76.0928L27.7011 68.2032Z" fill="#FFD5A3"/>
<path d="M28.0644 66.5623L26.0039 70.2379L26.8512 70.7129L28.9117 67.0372L28.0644 66.5623Z" fill="#FFD5A3"/>
<path d="M140.392 64.7107L108.547 72.0145L121.269 97.8075L140.392 64.7107Z" fill="#FBB03B"/>
<path d="M140.393 64.7107L105.041 64.9055L112.53 80.0901L140.393 64.7107Z" fill="#D4792C"/>
<path d="M136.715 71.0797L136.056 69.745L134.75 70.5524L135.795 72.6711L136.715 71.0797Z" fill="#D4792C"/>
<path d="M132.015 79.2135L131.496 78.1606L130.189 78.968L131.096 80.8049L132.015 79.2135Z" fill="#D4792C"/>
<path d="M127.804 76.8449L126.414 74.027L127.72 73.2192L129.11 76.0375L127.804 76.8449Z" fill="#D4792C"/>
<path d="M122.783 91.6219L121.393 88.8036L122.699 87.9958L124.089 90.8141L122.783 91.6219Z" fill="#D4792C"/>
<path d="M127.397 83.8921L124.738 78.5007L126.044 77.693L128.704 83.0844L127.397 83.8921Z" fill="#D4792C"/>
<path d="M118.206 87.3355L115.547 81.9437L116.853 81.1364L119.512 86.5277L118.206 87.3355Z" fill="#D4792C"/>
<path d="M121.913 83.5248L119.254 78.1334L120.56 77.3257L123.22 82.7171L121.913 83.5248Z" fill="#D4792C"/>
<path d="M132.55 74.2306L131.16 71.4124L132.466 70.6046L133.856 73.4229L132.55 74.2306Z" fill="#D4792C"/>
<path d="M123.529 68.1802L124.919 70.9985L126.226 70.1907L124.836 67.3724L123.529 68.1802Z" fill="#A65E23"/>
<path d="M134.866 66.2081L136.173 65.4007L135.844 64.7354L134.145 64.7447L134.866 66.2081Z" fill="#A65E23"/>
<path d="M110.455 71.0205L111.845 73.8388L113.151 73.0314L111.761 70.2131L110.455 71.0205Z" fill="#A65E23"/>
<path d="M118.969 66.808L121.628 72.1994L122.934 71.392L120.275 66.0006L118.969 66.808Z" fill="#A65E23"/>
<path d="M114.906 69.3201L117.566 74.7115L118.872 73.9041L116.213 68.5127L114.906 69.3201Z" fill="#A65E23"/>
<path d="M129.02 67.0717L130.41 69.8899L131.716 69.0822L130.326 66.2643L129.02 67.0717Z" fill="#A65E23"/>
<path d="M115.949 111.483C120.776 111.658 124.647 100.867 118.569 87.906C115.852 82.112 119.112 81.5545 115.348 75.094C111.584 68.6336 100.275 63.9086 102.362 70.4554C104.449 77.0025 104.866 111.082 115.949 111.483Z" fill="#FFF187"/>
<path d="M92.7793 79.1636L117.461 38.9877L104.784 30.6602L79.6797 71.5223L92.7793 79.1636Z" fill="#FFD5A3"/>
<path d="M116.95 38.6538L105.164 30.9119L108.206 25.9612L119.992 33.7032L116.95 38.6538Z" fill="#FFD5A3"/>
<path d="M120.598 34.9633L106.973 26.0134L107.729 24.783L121.354 33.7328L120.598 34.9633Z" fill="#C4A47D"/>
<path d="M109.311 29.3524C108.799 29.0159 108.132 29.1514 107.823 29.6551L106.768 31.3726L108.624 32.592L109.679 30.8744C109.988 30.3708 109.824 29.6892 109.311 29.3524Z" fill="#8C755A"/>
<path d="M112.979 31.7616C112.467 31.4247 111.8 31.5603 111.491 32.0642L110.436 33.7818L112.292 35.0011L113.347 33.2836C113.656 32.7796 113.492 32.0984 112.979 31.7616Z" fill="#8C755A"/>
<path d="M116.555 34.11C116.043 33.7731 115.376 33.9087 115.067 34.4126L114.012 36.1302L115.868 37.3495L116.923 35.632C117.233 35.128 117.068 34.4468 116.555 34.11Z" fill="#8C755A"/>
<path d="M104.643 38.825C103.737 38.2301 102.56 38.4695 102.013 39.3599L100.148 42.3943L103.428 44.5482L105.292 41.5139C105.839 40.6235 105.548 39.4196 104.643 38.825Z" fill="#8C755A"/>
<path d="M110.246 42.5055C109.341 41.9105 108.163 42.1499 107.616 43.0404L105.752 46.0747L109.031 48.2287L110.895 45.1943C111.442 44.3039 111.152 43.1004 110.246 42.5055Z" fill="#8C755A"/>
<path d="M97.916 49.7757C97.0105 49.1808 95.8332 49.4202 95.2861 50.3106L93.4219 53.3449L96.701 55.4989L98.5652 52.4646C99.1123 51.5745 98.8215 50.3707 97.916 49.7757Z" fill="#8C755A"/>
<path d="M103.52 53.4562C102.614 52.8612 101.436 53.1006 100.89 53.991L99.0254 57.0254L102.305 59.1793L104.169 56.145C104.716 55.255 104.425 54.0511 103.52 53.4562Z" fill="#8C755A"/>
<path d="M91.1875 60.7264C90.282 60.1315 89.1047 60.3709 88.5576 61.2613L86.6934 64.2956L89.9725 66.4496L91.8367 63.4153C92.3838 62.5252 92.093 61.3213 91.1875 60.7264Z" fill="#8C755A"/>
<path d="M96.791 64.407C95.8855 63.8121 94.7082 64.0518 94.1611 64.9419L92.2969 67.9762L95.576 70.1302L97.4402 67.0959C97.9873 66.2054 97.6965 65.0016 96.791 64.407Z" fill="#8C755A"/>
<path d="M111.141 50.9052L97.0332 41.6383L97.7892 40.4075L111.897 49.6747L111.141 50.9052Z" fill="#C4A47D"/>
<path d="M117.795 40.0724L103.688 30.8055L104.443 29.5747L118.551 38.8419L117.795 40.0724Z" fill="#C4A47D"/>
<path d="M97.8306 72.5706L83.7227 63.3037L84.4786 62.0729L98.5865 71.3398L97.8306 72.5706Z" fill="#C4A47D"/>
<path d="M104.485 61.7377L90.377 52.4708L91.1333 51.24L105.241 60.5069L104.485 61.7377Z" fill="#C4A47D"/>
<path d="M19.8548 44.5007L13.4434 53.0073L45.3323 77.0418L51.7437 68.5352L19.8548 44.5007Z" fill="#FBB03B"/>
<path d="M40.5381 67.2715L39.5527 68.5789L47.3049 74.4216L48.2903 73.1143L40.5381 67.2715Z" fill="#B56228"/>
<path d="M39.1611 69.1017L38.1758 70.4091L45.928 76.2518L46.9133 74.9445L39.1611 69.1017Z" fill="#B56228"/>
<path d="M41.9189 65.441L40.9336 66.7483L48.6858 72.5911L49.6711 71.2837L41.9189 65.441Z" fill="#B56228"/>
<path d="M43.2998 63.6114L42.3145 64.9187L50.0667 70.7615L51.052 69.4541L43.2998 63.6114Z" fill="#B56228"/>
<path d="M30.5107 59.71L29.5254 61.0173L37.2776 66.8601L38.2629 65.5528L30.5107 59.71Z" fill="#B56228"/>
<path d="M29.1299 61.5406L28.1445 62.8479L35.8967 68.6907L36.8821 67.3833L29.1299 61.5406Z" fill="#B56228"/>
<path d="M31.8877 57.88L30.9023 59.1874L38.6545 65.0302L39.6399 63.7228L31.8877 57.88Z" fill="#B56228"/>
<path d="M33.2685 56.0498L32.2832 57.3572L40.0354 63.2L41.0207 61.8926L33.2685 56.0498Z" fill="#B56228"/>
<path d="M37.3779 67.7581L36.3926 69.0654L37.6807 70.0363L38.666 68.7289L37.3779 67.7581Z" fill="#D4792C"/>
<path d="M38.7568 65.9264L37.7715 67.2338L39.0596 68.2046L40.0449 66.8973L38.7568 65.9264Z" fill="#D4792C"/>
<path d="M40.0791 64.1714L39.0938 65.4788L40.3819 66.4496L41.3672 65.1423L40.0791 64.1714Z" fill="#D4792C"/>
<path d="M41.4599 62.3427L40.4746 63.65L41.7627 64.6209L42.7481 63.3135L41.4599 62.3427Z" fill="#D4792C"/>
<path d="M32.6972 53.4286L25.5625 62.8949L26.4025 63.528L33.5372 54.0617L32.6972 53.4286Z" fill="#D4792C"/>
<path d="M30.541 51.8028L23.4062 61.2692L24.2462 61.9023L31.3809 52.4359L30.541 51.8028Z" fill="#D4792C"/>
<path d="M19.7675 43.6836L12.6328 53.1499L13.4728 53.783L20.6075 44.3167L19.7675 43.6836Z" fill="#7A461A"/>
<path d="M26.2266 56.343C27.4783 54.9425 27.3577 52.7925 25.9573 51.5408C24.5568 50.2891 22.4068 50.4097 21.1551 51.8102C19.9034 53.2106 20.024 55.3607 21.4244 56.6124C22.8249 57.8641 24.9749 57.7435 26.2266 56.343Z" fill="white"/>
<path d="M19.4049 44.1663L12.9929 52.6725L10.1412 50.5228L5.62695 40.2383L16.5532 42.017L19.4049 44.1663Z" fill="#331C16"/>
<path d="M16.5917 41.2903L9.45703 50.7566L10.297 51.3897L17.4317 41.9234L16.5917 41.2903Z" fill="#7A461A"/>
<path d="M6.09198 37.3687C4.10157 36.6911 2.73126 36.6479 2.05077 37.1451L1.74414 36.9139L0.324219 36.2424L1.36058 37.4226L1.66038 37.6483C1.34297 38.4352 1.75421 39.7531 2.97246 41.5069C3.24566 41.9002 3.89703 42.4063 4.38052 42.5979C2.89482 40.6694 2.35776 39.2311 2.66763 38.4075L6.60279 41.3736L6.98635 40.8649L3.0591 37.9046C3.77912 37.4064 5.29898 37.5376 7.52844 38.4216C7.21102 38.01 6.54527 37.5232 6.09198 37.3687Z" fill="#331C16"/>
<path d="M15.9007 52.5317C15.6102 52.9171 15.6871 53.4649 16.0725 53.7557L17.3864 54.7461L18.4385 53.3502L17.125 52.3599C16.7393 52.0694 16.1911 52.1464 15.9007 52.5317Z" fill="#B56228"/>
<path d="M17.9807 49.7738C17.6903 50.1592 17.7672 50.707 18.1526 50.9978L19.4664 51.9882L20.5186 50.5927L19.2051 49.6024C18.819 49.3115 18.2712 49.3885 17.9807 49.7738Z" fill="#B56228"/>
<path d="M20.0061 47.0857C19.7157 47.471 19.7926 48.0189 20.178 48.3097L21.4918 49.3001L22.5437 47.9042L21.2301 46.9139C20.8444 46.623 20.2966 46.7 20.0061 47.0857Z" fill="#B56228"/>
<path d="M23.1484 46.2305L16.0137 55.6968L16.8537 56.3299L23.9884 46.8635L23.1484 46.2305Z" fill="#D4792C"/>
<path d="M80.9065 38.1917H68.5982C66.0412 38.1917 63.9609 40.2719 63.9609 42.8289V47.2946H67.775V42.8289C67.775 42.3748 68.1445 42.0053 68.5985 42.0053H80.9069C81.3609 42.0053 81.7304 42.3748 81.7304 42.8289V47.2946H85.5445V42.8289C85.5441 40.2723 83.4635 38.1917 80.9065 38.1917Z" fill="#BA2335"/>
<path d="M83.5789 46.9992V43.3451C83.5789 41.2526 81.8765 39.5505 79.7843 39.5505H69.7126C67.6201 39.5505 65.918 41.253 65.918 43.3451V46.9992H67.7711V42.8293C67.7711 42.3753 68.1406 42.0057 68.5946 42.0057H80.903C81.357 42.0057 81.7265 42.3753 81.7265 42.8293V46.9992H83.5789Z" fill="#911B29"/>
<path d="M68.4684 45.9192H63.2676C62.6453 45.9192 62.1406 46.4235 62.1406 47.0461C62.1406 47.6684 62.6453 48.1731 63.2676 48.1731H68.4684C69.0907 48.1731 69.5954 47.6687 69.5954 47.0461C69.5954 46.4235 69.0907 45.9192 68.4684 45.9192Z" fill="#911B29"/>
<path d="M86.238 45.9192H81.0371C80.4149 45.9192 79.9102 46.4235 79.9102 47.0461C79.9102 47.6684 80.4149 48.1731 81.0371 48.1731H86.238C86.8602 48.1731 87.3649 47.6687 87.3649 47.0461C87.3649 46.4235 86.8606 45.9192 86.238 45.9192Z" fill="#911B29"/>
<path d="M103.759 47.0588H45.7417C44.0184 47.0588 42.6211 48.4558 42.6211 50.1794V89.7054C42.6211 91.4287 44.0184 92.826 45.7417 92.826H103.759C105.482 92.826 106.88 91.4291 106.88 89.7054V50.1791C106.88 48.4558 105.483 47.0588 103.759 47.0588Z" fill="#FF7E42"/>
<path d="M106.88 89.7049V85.4865C102.827 85.4865 99.541 88.772 99.541 92.8251H103.759C105.483 92.8251 106.88 91.4282 106.88 89.7049Z" fill="#BA2335"/>
<path d="M103.759 47.0588H99.541C99.541 51.1119 102.827 54.3975 106.88 54.3975V50.1791C106.88 48.4558 105.483 47.0588 103.759 47.0588Z" fill="#BA2335"/>
<path d="M42.6211 85.4865V89.7049C42.6211 91.4282 44.0184 92.8255 45.7417 92.8255H49.9601C49.9598 88.772 46.6742 85.4865 42.6211 85.4865Z" fill="#BA2335"/>
<path d="M42.6211 50.1791V54.3975C46.6742 54.3975 49.9598 51.1119 49.9598 47.0588H45.7413C44.018 47.0588 42.6211 48.4558 42.6211 50.1791Z" fill="#BA2335"/>
<path d="M60.6541 47.0591H56.0312V92.8259H60.6541V47.0591Z" fill="#782E0B"/>
<path d="M93.4744 47.0591H88.8516V92.8259H93.4744V47.0591Z" fill="#782E0B"/>
<path d="M60.4642 55.6108H56.217C55.2296 55.6108 54.4258 56.4146 54.4258 57.4025V63.0077C54.4258 63.9952 55.2296 64.799 56.217 64.799H60.4642C61.4521 64.799 62.2558 63.9956 62.2558 63.0077V57.4025C62.2558 56.4146 61.4521 55.6108 60.4642 55.6108ZM61.2155 63.0077C61.2155 63.4218 60.8783 63.7587 60.4642 63.7587H56.217C55.8029 63.7587 55.4657 63.4218 55.4657 63.0077V57.4025C55.4657 56.988 55.8026 56.6512 56.217 56.6512H57.8207V59.5262C57.8207 59.8134 58.0532 60.0464 58.3408 60.0464C58.628 60.0464 58.861 59.8134 58.861 59.5262V56.6512H60.4646C60.8787 56.6512 61.2159 56.988 61.2159 57.4025V63.0077H61.2155Z" fill="white"/>
<path d="M93.2845 55.6108H89.0374C88.0499 55.6108 87.2461 56.4146 87.2461 57.4025V63.0077C87.2461 63.9952 88.0499 64.799 89.0374 64.799H93.2845C94.2724 64.799 95.0762 63.9956 95.0762 63.0077V57.4025C95.0762 56.4146 94.2724 55.6108 93.2845 55.6108ZM94.0358 63.0077C94.0358 63.4218 93.6987 63.7587 93.2845 63.7587H89.0374C88.6232 63.7587 88.2861 63.4218 88.2861 63.0077V57.4025C88.2861 56.988 88.6229 56.6512 89.0374 56.6512H90.641V59.5262C90.641 59.8134 90.8739 60.0464 91.1611 60.0464C91.4483 60.0464 91.6813 59.8134 91.6813 59.5262V56.6512H93.2849C93.699 56.6512 94.0362 56.988 94.0362 57.4025V63.0077H94.0358Z" fill="white"/>
<path d="M58.3422 68.1212C58.6855 68.1212 58.9638 67.843 58.9638 67.4997C58.9638 67.1564 58.6855 66.8782 58.3422 66.8782C57.999 66.8782 57.7207 67.1564 57.7207 67.4997C57.7207 67.843 57.999 68.1212 58.3422 68.1212Z" fill="#FF7E42"/>
<path d="M58.9638 70.6884C58.9638 71.0317 58.6855 71.31 58.3422 71.31C57.9989 71.31 57.7207 71.0317 57.7207 70.6884C57.7207 70.3451 57.9989 70.0669 58.3422 70.0669C58.6855 70.0669 58.9638 70.3451 58.9638 70.6884Z" fill="#FF7E42"/>
<path d="M58.3422 74.5299C58.6855 74.5299 58.9638 74.2517 58.9638 73.9084C58.9638 73.5651 58.6855 73.2869 58.3422 73.2869C57.999 73.2869 57.7207 73.5651 57.7207 73.9084C57.7207 74.2517 57.999 74.5299 58.3422 74.5299Z" fill="#FF7E42"/>
<path d="M58.3422 77.719C58.6855 77.719 58.9638 77.4407 58.9638 77.0975C58.9638 76.7542 58.6855 76.476 58.3422 76.476C57.999 76.476 57.7207 76.7542 57.7207 77.0975C57.7207 77.4407 57.999 77.719 58.3422 77.719Z" fill="#FF7E42"/>
<path d="M91.1625 68.121C91.5058 68.121 91.7841 67.8427 91.7841 67.4995C91.7841 67.1562 91.5058 66.8779 91.1625 66.8779C90.8193 66.8779 90.541 67.1562 90.541 67.4995C90.541 67.8427 90.8193 68.121 91.1625 68.121Z" fill="#FF7E42"/>
<path d="M91.7841 70.6883C91.7841 71.0316 91.5058 71.3098 91.1625 71.3098C90.8192 71.3098 90.541 71.0316 90.541 70.6883C90.541 70.345 90.8192 70.0668 91.1625 70.0668C91.5058 70.0668 91.7841 70.345 91.7841 70.6883Z" fill="#FF7E42"/>
<path d="M91.1625 74.5298C91.5058 74.5298 91.7841 74.2515 91.7841 73.9083C91.7841 73.565 91.5058 73.2867 91.1625 73.2867C90.8193 73.2867 90.541 73.565 90.541 73.9083C90.541 74.2515 90.8193 74.5298 91.1625 74.5298Z" fill="#FF7E42"/>
<path d="M91.1625 77.7189C91.5058 77.7189 91.7841 77.4406 91.7841 77.0974C91.7841 76.7541 91.5058 76.4758 91.1625 76.4758C90.8193 76.4758 90.541 76.7541 90.541 77.0974C90.541 77.4406 90.8193 77.7189 91.1625 77.7189Z" fill="#FF7E42"/>
<path d="M63.1842 88.8599H56.6504V90.7112H63.1842C63.6954 90.7112 64.1098 90.2967 64.1098 89.7855C64.1098 89.2743 63.6954 88.8599 63.1842 88.8599Z" fill="#2B2B40"/>
<path d="M33.9238 83.7678V91.4171C33.9238 92.1853 34.5464 92.8079 35.3146 92.8079H36.379V83.7675H33.9238V83.7678Z" fill="#37374F"/>
<path d="M35.0792 81.8561C34.4411 81.8561 33.9238 82.3734 33.9238 83.0114V86.1169H36.2342V83.0114C36.2342 82.3734 35.7172 81.8561 35.0792 81.8561Z" fill="#EBE4CA"/>
<path d="M63.9484 90.7114H60.4036C59.8759 90.7114 59.4478 90.2836 59.4478 89.7556V83.7675H56.9922V90.7114V92.8079V92.8251H63.948C64.4923 92.8251 64.9333 92.352 64.9333 91.7683C64.9337 91.1845 64.4926 90.7114 63.9484 90.7114Z" fill="#37374F"/>
<path d="M58.2921 81.7936C57.654 81.7936 57.1367 82.3109 57.1367 82.9489V86.0544H59.4471V82.9489C59.4474 82.3109 58.9301 81.7936 58.2921 81.7936Z" fill="#EBE4CA"/>
<path d="M46.3068 77.9186H43.2046C43.0572 77.9186 42.9375 78.0383 42.9375 78.1857C42.9375 78.333 43.0572 78.4528 43.2046 78.4528H46.3068C46.4542 78.4528 46.5739 78.333 46.5739 78.1857C46.5743 78.0379 46.4546 77.9186 46.3068 77.9186Z" fill="#6E6E78"/>
<path d="M41.704 77.5062H37.2285V78.998H41.704V77.5062Z" fill="#6E6E78"/>
<path d="M41.8227 77.0504H37.1089C37.0086 77.0504 36.9277 77.1317 36.9277 77.2316V77.6148C36.9277 77.7151 37.009 77.796 37.1089 77.796H41.8227C41.923 77.796 42.0039 77.7147 42.0039 77.6148V77.2316C42.0042 77.1317 41.923 77.0504 41.8227 77.0504Z" fill="#48484F"/>
<path d="M55.964 77.6532H52.7578V78.7219H55.964V77.6532Z" fill="#6E6E78"/>
<path d="M56.0473 77.3268H52.6708C52.5989 77.3268 52.541 77.385 52.541 77.4565V77.7312C52.541 77.8031 52.5993 77.861 52.6708 77.861H56.0473C56.1192 77.861 56.1771 77.8027 56.1771 77.7312V77.4565C56.1775 77.385 56.1192 77.3268 56.0473 77.3268Z" fill="#48484F"/>
<path d="M56.7462 92.8249H36.7329C35.8396 92.8249 35.1152 92.1005 35.1152 91.2072V79.8029C35.1152 78.9096 35.8396 78.1853 36.7329 78.1853H56.7462C57.6395 78.1853 58.3639 78.9096 58.3639 79.8029V91.2072C58.3639 92.1009 57.6395 92.8249 56.7462 92.8249Z" fill="#EBE4CA"/>
<path d="M58.3639 81.1946H35.1152V91.1405H58.3639V81.1946Z" fill="#48484F"/>
<path d="M58.3639 82.0876H35.1152V90.2473H58.3639V82.0876Z" fill="#6E6E78"/>
<path d="M47.9446 90.641C50.3066 90.641 52.2213 88.7262 52.2213 86.3643C52.2213 84.0024 50.3066 82.0876 47.9446 82.0876C45.5827 82.0876 43.668 84.0024 43.668 86.3643C43.668 88.7262 45.5827 90.641 47.9446 90.641Z" fill="white"/>
<path d="M47.9455 89.8019C49.844 89.8019 51.3831 88.2628 51.3831 86.3643C51.3831 84.4657 49.844 82.9266 47.9455 82.9266C46.0469 82.9266 44.5078 84.4657 44.5078 86.3643C44.5078 88.2628 46.0469 89.8019 47.9455 89.8019Z" fill="#6E6E78"/>
<path d="M49.8385 86.3641C49.8385 87.4091 48.9916 88.256 47.9466 88.256C46.902 88.256 46.0547 87.4091 46.0547 86.3641C46.0547 85.3191 46.9016 84.4722 47.9466 84.4722C48.9916 84.4722 49.8385 85.3194 49.8385 86.3641Z" fill="#56565E"/>
<path d="M47.6392 84.7793C47.6392 85.1747 47.3185 85.4954 46.9231 85.4954C46.5277 85.4954 46.207 85.1747 46.207 84.7793C46.207 84.3839 46.5277 84.0632 46.9231 84.0632C47.3185 84.0632 47.6392 84.3839 47.6392 84.7793Z" fill="white"/>
<path d="M49.724 87.7216C49.724 87.9862 49.5094 88.2008 49.2448 88.2008C48.9802 88.2008 48.7656 87.9862 48.7656 87.7216C48.7656 87.457 48.9802 87.2424 49.2448 87.2424C49.5094 87.2424 49.724 87.4567 49.724 87.7216Z" fill="white"/>
<path d="M54.9055 78.9362H43.3848V80.5937H54.9055V78.9362Z" fill="#6E6E78"/>
<path d="M54.3604 79.309H43.9277V80.2206H54.3604V79.309Z" fill="#48484F"/>
<path d="M42.5953 83.7847C42.5953 84.0823 42.3541 84.3235 42.0564 84.3235C41.7588 84.3235 41.5176 84.0823 41.5176 83.7847C41.5176 83.4871 41.7588 83.2458 42.0564 83.2458C42.3541 83.2458 42.5953 83.4871 42.5953 83.7847Z" fill="white"/>
<path d="M39.2875 83.1216C39.2875 83.3319 39.1167 83.5027 38.9064 83.5027C38.6961 83.5027 38.5254 83.3323 38.5254 83.1216C38.5254 82.9113 38.6958 82.7406 38.9064 82.7406C39.1171 82.7406 39.2875 82.9113 39.2875 83.1216Z" fill="white"/>
<path d="M91.0619 97.6408L82.252 95.2453L83.5453 70.9326L92.355 73.3278L91.0619 97.6408Z" fill="white"/>
<path d="M107.717 96.873L98.834 95.855L100.127 71.542L109.01 72.56L107.717 96.873Z" fill="white"/>
<path d="M98.8331 95.855L91.0605 97.6409L92.3536 73.3279L100.126 71.542L98.8331 95.855Z" fill="white"/>
<path d="M115.489 95.0867L107.717 96.8729L109.01 72.5599L116.783 70.774L115.489 95.0867Z" fill="white"/>
<path d="M83.9023 94.1305L85.0318 72.9L92.3299 74.8842L100.232 73.0685L109.115 74.0866L115.089 72.7137L113.963 93.8871L107.614 95.3459L98.7306 94.3278L91.0871 96.0842L83.9023 94.1305Z" fill="#01A0C8"/>
<path d="M90.5401 85.421L89.8876 87.87C89.8876 87.87 89.4509 88.2288 90.0922 88.9319C90.7338 89.6347 90.947 89.5506 90.8711 90.9795C90.7953 92.4084 91.1508 93.5738 91.433 94.1619C91.7152 94.75 92.0811 95.7249 92.2407 94.6824C92.4007 93.64 91.5775 93.4052 92.3572 92.4914C93.1369 91.5777 92.5732 90.3946 93.5129 90.4C94.4526 90.4058 94.4803 87.9232 94.4803 87.9232C94.4803 87.9232 92.2508 86.2761 92.249 85.5119C92.2472 84.7477 90.888 84.7707 90.888 84.7707C90.888 84.7707 89.5842 85.2268 89.7111 84.8037C89.838 84.3806 89.2754 84.1596 89.3351 84.0194C89.3948 83.8792 90.5214 83.3184 89.9584 83.0973C89.3959 82.8762 88.5435 84.1685 88.9487 83.4259C89.3538 82.6832 89.7144 81.7949 91.1228 81.8219C92.5312 81.8492 93.8623 80.3916 93.8458 79.7219C93.8292 79.0522 94.0334 78.1556 92.7684 78.3749C91.5035 78.5942 92.075 77.6693 92.6006 77.6017C93.1265 77.5341 93.143 78.2038 93.6524 77.4665C94.1618 76.7292 94.4702 75.8381 93.5798 75.8863C92.6894 75.9344 92.9345 76.2339 91.9718 76.6606C91.0092 77.0869 90.4081 77.0071 89.2176 76.6095C88.0266 76.212 87.6549 76.327 86.6858 76.8766C85.7166 77.4262 85.5398 77.7886 85.7256 78.2387C85.9873 78.8717 86.5269 77.8993 87.3109 77.8932C88.0946 77.8871 87.9382 77.8788 87.4978 79.2883C87.0575 80.6978 86.3993 81.2838 87.1477 81.9445C87.8958 82.6052 87.651 84.2638 88.1693 84.3393C89.4501 84.5255 89.4735 85.4903 89.9858 85.5345C90.498 85.5791 90.5401 85.421 90.5401 85.421Z" fill="#43F799"/>
<path d="M96.0574 75.4926C97.1484 75.5983 98.1829 75.7827 98.5816 76.1454C98.9802 76.5077 98.5431 76.8669 97.8066 76.9707C97.07 77.075 96.4499 76.9463 96.3104 77.6077C96.171 78.2688 95.8255 78.8716 95.5753 78.6671C95.3251 78.4629 95.0296 78.2559 95.0178 77.9208C95.0059 77.5858 94.8751 77.1012 94.8955 76.7202C94.9157 76.3391 94.1841 76.3481 94.7201 76.09C95.2561 75.8319 94.8596 75.4286 95.3284 75.4538C95.7967 75.4789 96.0574 75.4926 96.0574 75.4926Z" fill="#43F799"/>
<path d="M112.35 78.4289L113.507 78.9634C113.507 78.9634 114.168 78.2891 114.118 78.0497C114.069 77.8106 113.169 77.1122 112.428 76.9543C111.687 76.7965 111.089 76.2918 109.533 76.2088C107.976 76.1261 106.709 76.4727 106.709 76.4727C106.709 76.4727 105.429 77.055 105.055 77.0352C104.682 77.0155 103.156 76.3429 102.885 76.7423C102.614 77.1416 101.341 77.6064 101.695 77.9799C102.05 78.3538 102.223 78.3628 101.582 78.8017C100.942 79.2406 100.711 78.8736 100.916 79.7122C101.122 80.5512 101.427 80.6857 102.186 80.4894C102.946 80.2931 103.072 80.2788 103.426 80.663C103.78 81.0473 103.765 81.3421 103.765 81.3421C103.765 81.3421 103.488 81.8594 103.176 81.8428C102.865 81.8263 103.251 81.6102 102.451 81.3903C101.651 81.1703 100.514 81.4053 100.175 81.9198C99.8348 82.4338 98.1097 83.17 99.1245 84.0518C100.139 84.9336 99.8869 84.9792 100.874 85.2093C101.86 85.439 101.297 85.4685 101.642 87.2015C101.987 88.9349 102.161 90.3634 102.515 90.7369C102.87 91.1108 102.577 91.9228 103.356 91.3729C104.134 90.8229 104.456 88.2972 105.322 87.2788C106.188 86.2604 107.335 86.4398 106.214 85.4929C105.093 84.5461 104.972 84.4806 105.669 84.2811C106.366 84.0816 106.8 82.9813 107.102 83.1747C107.404 83.3681 107.695 84.921 107.975 85.5274C108.255 86.1335 108.796 87.7001 108.797 86.5174C108.797 85.3348 108.392 83.5687 109.116 84.036C109.84 84.5033 109.448 84.8373 110.049 85.283C110.65 85.7291 110.918 84.2057 111.058 83.9174C111.198 83.6291 111.765 83.541 111.744 82.771C111.722 82.001 111.069 81.3752 111.881 81.359C112.694 81.3432 112.476 80.7403 112.446 80.1472C112.415 79.5541 112.378 79.0792 112.01 78.9415C111.643 78.8053 112.35 78.4289 112.35 78.4289Z" fill="#43F799"/>
<path opacity="0.11" d="M115.489 95.0867L107.717 96.8729L109.01 72.5599L116.783 70.774L115.489 95.0867Z" fill="black"/>
<path opacity="0.11" d="M98.8331 95.855L91.0605 97.6409L92.3536 73.3279L100.126 71.542L98.8331 95.855Z" fill="black"/>
<path d="M109.141 87.3128C109.266 87.8923 109.289 88.0741 109.682 88.5256C110.075 88.9771 110.149 89.7345 110.823 89.878C111.497 90.0214 111.903 90.9399 111.654 89.9222C111.405 88.9042 109.061 86.9458 109.141 87.3128Z" fill="#43F799"/>
<path d="M113.776 86.3394C113.688 86.8923 113.215 87.6371 112.893 87.9786C112.572 88.3204 112.338 89.1688 112.56 89.2526C112.783 89.3363 112.715 90.1577 112.988 90.244C113.261 90.3303 114.152 90.3058 114.152 90.3058L114.361 86.3703C114.361 86.3703 113.833 85.9839 113.776 86.3394Z" fill="#43F799"/>
<path d="M112.388 90.607C112.266 90.6286 111.966 91.1588 112.45 91.3278C112.933 91.4971 114.093 91.4151 114.093 91.4151L114.116 90.9859C114.116 90.9859 113.421 90.8774 113.043 90.8572C112.665 90.8371 112.561 90.5761 112.388 90.607Z" fill="#43F799"/>
<path d="M114.115 95.415H35.1307C33.6435 95.415 32.4375 96.6207 32.4375 98.1082V118.255C32.4375 119.743 33.6432 120.948 35.1307 120.948H114.115C115.602 120.948 116.809 119.743 116.809 118.255V98.1082C116.809 96.6207 115.603 95.415 114.115 95.415Z" fill="#FFA740"/>
<path d="M116.808 104.666H32.4375V107.083H116.808V104.666Z" fill="#EB9A3A"/>
<path d="M116.808 118.266V114.658C113.334 114.658 110.518 117.474 110.518 120.949H114.126C115.607 120.949 116.808 119.747 116.808 118.266Z" fill="#782E0B"/>
<path d="M32.4336 114.658V118.266C32.4336 119.748 33.6346 120.949 35.1163 120.949H38.7244C38.7244 117.474 35.9079 114.658 32.4336 114.658Z" fill="#782E0B"/>
<path d="M116.895 92.8246H32.3563C31.3807 92.8246 30.5898 93.6154 30.5898 94.591V102.9C30.5898 103.875 31.3807 104.666 32.3563 104.666H116.894C117.87 104.666 118.661 103.875 118.661 102.9V94.5914C118.661 93.6158 117.87 92.8246 116.895 92.8246Z" fill="#FFB054"/>
<path d="M116.996 92.8246H114.221C114.221 95.2769 116.209 97.2652 118.661 97.2652V94.4897C118.662 93.5701 117.916 92.8246 116.996 92.8246Z" fill="#782E0B"/>
<path d="M30.5898 94.4903V97.2658C33.0422 97.2658 35.0304 95.2775 35.0304 92.8252H32.2549C31.3354 92.8248 30.5898 93.5704 30.5898 94.4903Z" fill="#782E0B"/>
<path d="M48.2375 104.667H42.7329C42.395 104.667 42.1211 104.941 42.1211 105.279V107.015C42.1211 107.353 42.395 107.627 42.7329 107.627H48.2375C48.5754 107.627 48.8494 107.353 48.8494 107.015V105.279C48.8494 104.941 48.5758 104.667 48.2375 104.667Z" fill="white"/>
<path d="M43.8352 107.084C44.3526 107.084 44.772 106.664 44.772 106.147C44.772 105.629 44.3526 105.21 43.8352 105.21C43.3178 105.21 42.8984 105.629 42.8984 106.147C42.8984 106.664 43.3178 107.084 43.8352 107.084Z" fill="#BDBDBD"/>
<path d="M47.6169 105.21C47.4508 105.21 47.3164 105.345 47.3164 105.511V106.783C47.3164 106.949 47.4512 107.084 47.6169 107.084C47.783 107.084 47.9174 106.949 47.9174 106.783V105.511C47.9178 105.345 47.783 105.21 47.6169 105.21Z" fill="#BDBDBD"/>
<path d="M101.014 104.667H106.519C106.857 104.667 107.131 104.941 107.131 105.279V107.015C107.131 107.353 106.857 107.627 106.519 107.627H101.014C100.676 107.627 100.402 107.353 100.402 107.015V105.279C100.402 104.941 100.676 104.667 101.014 104.667Z" fill="white"/>
<path d="M105.419 107.084C105.937 107.084 106.356 106.664 106.356 106.147C106.356 105.629 105.937 105.21 105.419 105.21C104.902 105.21 104.482 105.629 104.482 106.147C104.482 106.664 104.902 107.084 105.419 107.084Z" fill="#BDBDBD"/>
<path d="M101.638 105.211C101.804 105.211 101.939 105.345 101.939 105.511V106.783C101.939 106.949 101.804 107.084 101.638 107.084C101.472 107.084 101.338 106.949 101.338 106.783V105.511C101.338 105.345 101.472 105.211 101.638 105.211Z" fill="#BDBDBD"/>
<path d="M65.1267 107.781H61.8271C60.8224 107.781 60.0078 108.596 60.0078 109.6V111.142C60.0078 112.147 60.8224 112.961 61.8271 112.961H65.1267C65.7058 112.961 66.1753 112.492 66.1753 111.913V108.829C66.1753 108.25 65.7058 107.781 65.1267 107.781Z" fill="#782E0B"/>
<path d="M84.1228 107.781H87.4224C88.4271 107.781 89.2417 108.596 89.2417 109.6V111.142C89.2417 112.147 88.4271 112.961 87.4224 112.961H84.1228C83.5437 112.961 83.0742 112.492 83.0742 111.913V108.829C83.0746 108.25 83.5437 107.781 84.1228 107.781Z" fill="#782E0B"/>
<path d="M63.959 108.831L61.7363 109.724V112.138C61.7363 112.867 62.4862 113.354 63.1519 113.058L64.5697 112.429C64.8533 112.303 65.0359 112.022 65.0359 111.712V109.559C65.0363 109.003 64.4744 108.623 63.959 108.831Z" fill="#BDBDBD"/>
<path d="M85.2938 108.831C84.7783 108.624 84.2168 109.003 84.2168 109.559V111.712C84.2168 112.022 84.3994 112.303 84.683 112.429L86.1008 113.058C86.7665 113.354 87.5164 112.866 87.5164 112.138V109.724L85.2938 108.831Z" fill="#BDBDBD"/>
<path d="M61.7363 109.724V112.507C61.7363 113.158 62.2644 113.686 62.9158 113.686H86.3366C86.9879 113.686 87.516 113.158 87.516 112.507V109.724H61.7363Z" fill="white"/>
<path d="M77.5797 76.5376H67.2305V92.825H77.5797C78.2102 92.825 78.7218 92.3138 78.7218 91.683V77.6793C78.7218 77.0488 78.2102 76.5376 77.5797 76.5376Z" fill="#2B2B40"/>
<path d="M77.1079 76.7019H66.8633V92.825H77.1079C77.7323 92.825 78.2381 92.3189 78.2381 91.6948V77.8325C78.2385 77.2081 77.7323 76.7019 77.1079 76.7019Z" fill="#EBE4CA"/>
<path d="M76.7399 76.5376H66.3906V92.825H76.7399C77.3704 92.825 77.8819 92.3138 77.8819 91.683V77.6793C77.8819 77.0488 77.3704 76.5376 76.7399 76.5376Z" fill="#37374F"/>
<path d="M68.5956 76.5376H66.3906V92.825H68.5956V76.5376Z" fill="#2B2B40"/>
<path d="M72.9772 80.7111C71.1988 80.7111 69.752 82.1579 69.752 83.9363C69.752 85.7146 71.1988 87.1615 72.9772 87.1615C74.7555 87.1615 76.2024 85.7146 76.2024 83.9363C76.2024 82.1579 74.7555 80.7111 72.9772 80.7111ZM75.771 83.726H74.5064C74.4877 83.0937 74.3866 82.5171 74.2242 82.0408H75.0384C75.4536 82.4923 75.7228 83.0782 75.771 83.726ZM72.9772 86.7409C72.7715 86.7409 72.5573 86.5637 72.3718 86.252H73.5821C73.3967 86.564 73.1824 86.7409 72.9772 86.7409ZM74.0538 86.252H74.5567C74.3417 86.399 74.1048 86.5158 73.8525 86.5992C73.9244 86.4957 73.9916 86.3796 74.0538 86.252ZM72.1015 86.5992C71.8495 86.5162 71.6126 86.3994 71.3976 86.252H71.9005C71.9624 86.3796 72.0296 86.4957 72.1015 86.5992ZM72.1726 85.8318C72.0051 85.3925 71.8883 84.8159 71.8675 84.1465H74.0861C74.0656 84.8159 73.9488 85.3925 73.7813 85.8318H72.1726ZM71.8678 83.726C71.8883 83.0566 72.0051 82.48 72.173 82.0408H73.7817C73.9492 82.48 74.066 83.0566 74.0865 83.726H71.8678ZM72.9772 81.1316C73.1828 81.1316 73.3967 81.3089 73.5821 81.6205H72.3718C72.5573 81.3085 72.7715 81.1316 72.9772 81.1316ZM71.9002 81.6205H71.3973C71.6122 81.4735 71.8491 81.3567 72.1011 81.2736C72.0296 81.3768 71.9624 81.4929 71.9002 81.6205ZM73.8525 81.2733C74.1048 81.3563 74.3414 81.4731 74.5567 81.6205H74.0538C73.9916 81.4929 73.9244 81.3768 73.8525 81.2733ZM70.9156 82.0408H71.7294C71.5669 82.5174 71.4659 83.0937 71.4472 83.726H70.1826C70.2311 83.0782 70.5004 82.4923 70.9156 82.0408ZM70.183 84.1465H71.4476C71.4663 84.7789 71.5673 85.3551 71.7298 85.8318H70.9159C70.5004 85.3803 70.2311 84.7943 70.183 84.1465ZM75.0384 85.8318H74.2242C74.3866 85.3551 74.4877 84.7789 74.5064 84.1465H75.771C75.7228 84.7943 75.4536 85.3803 75.0384 85.8318Z" fill="white"/>
<path d="M24.8402 12.9192C23.3887 7.92758 18.1655 5.05754 13.1739 6.50874C8.18222 7.9603 5.31218 13.1835 6.76338 18.1751C8.01471 22.4787 17.7726 29.7911 17.7726 29.7911L21.9195 28.5855C21.9195 28.5855 26.0765 17.1718 24.8402 12.9192Z" fill="#DB383F"/>
<path d="M21.9815 13.7503C20.53 8.7586 16.5865 5.5165 13.1733 6.50865C9.76012 7.50116 8.1698 12.3523 9.62136 17.3443C10.8727 21.6479 18.4051 29.6074 18.4051 29.6074L21.2406 28.7827C21.2406 28.7827 23.2181 18.0028 21.9815 13.7503Z" fill="#FFFEFC"/>
<path d="M18.6403 14.722C17.1892 9.73038 14.7415 6.05332 13.1738 6.50914C11.6062 6.96495 11.512 11.3811 12.9635 16.3727C14.2149 20.6764 19.1458 29.3922 19.1458 29.3922L20.4481 29.0136C20.4481 29.0136 19.8769 18.9746 18.6403 14.722Z" fill="#DB383F"/>
<path d="M15.3789 27.8877C16.7755 29.0442 17.7726 29.7915 17.7726 29.7915L21.9195 28.5858C21.9195 28.5858 22.3423 27.4251 22.8775 25.7075L15.3789 27.8877Z" fill="#37374F"/>
<path d="M17.8034 29.3968L17.5742 29.5254L19.2086 32.4378L19.4377 32.3092L17.8034 29.3968Z" fill="#37374F"/>
<path d="M18.775 29.135L18.5273 29.2229L19.6169 32.2935L19.8645 32.2056L18.775 29.135Z" fill="#37374F"/>
<path d="M21.9069 28.262L21.6445 28.2764L21.8265 31.6105L22.0889 31.5962L21.9069 28.262Z" fill="#37374F"/>
<path d="M20.9319 28.5244L20.6758 28.583L21.4024 31.7592L21.6585 31.7006L20.9319 28.5244Z" fill="#37374F"/>
<path d="M18.9414 32.6186L19.6413 35.025C19.7477 35.3905 20.1302 35.6008 20.4958 35.4944L22.5343 34.9017C22.8999 34.7953 23.1102 34.4128 23.0038 34.0472L22.3039 31.6409L18.9414 32.6186Z" fill="#FFC061"/>
<path d="M22.2284 31.179L18.7278 32.1967C18.5977 32.2344 18.5226 32.3706 18.5607 32.5011L18.6865 32.9332C18.7243 33.0633 18.8605 33.1385 18.991 33.1004L22.4915 32.0823C22.6217 32.0446 22.6968 31.9083 22.6587 31.7779L22.5329 31.3458C22.4948 31.216 22.3585 31.1412 22.2284 31.179Z" fill="#FFC061"/>
<path d="M22.4349 32.0965L19.0723 33.0742L19.1471 33.3317L22.5098 32.354L22.4349 32.0965Z" fill="#DBA653"/>
<path d="M141.406 13.1893C142.967 8.23035 140.211 2.94572 135.252 1.38561C130.293 -0.174511 125.009 2.58086 123.449 7.5398C122.104 11.815 126.169 23.311 126.169 23.311L130.289 24.6069C130.289 24.6069 140.077 17.4138 141.406 13.1893Z" fill="#DB383F"/>
<path d="M138.567 12.296C140.127 7.33703 138.643 2.4525 135.252 1.38558C131.862 0.318661 127.848 3.47412 126.288 8.43307C124.943 12.7083 126.798 23.5087 126.798 23.5087L129.615 24.3948C129.615 24.3948 137.238 16.5205 138.567 12.296Z" fill="#FFFEFC"/>
<path d="M135.247 11.2518C136.807 6.29287 136.809 1.87565 135.252 1.38569C133.695 0.895729 131.168 4.51851 129.608 9.47745C128.263 13.7527 127.533 23.7403 127.533 23.7403L128.827 24.1472C128.827 24.1472 133.918 15.476 135.247 11.2518Z" fill="#DB383F"/>
<path d="M125.234 20.3994C125.755 22.1364 126.171 23.3112 126.171 23.3112L130.29 24.6071C130.29 24.6071 131.286 23.8755 132.684 22.7428L125.234 20.3994Z" fill="#37374F"/>
<path d="M126.147 22.9742L125.893 26.3037L126.155 26.3238L126.409 22.9943L126.147 22.9742Z" fill="#37374F"/>
<path d="M127.12 23.2604L126.324 26.4199L126.579 26.4841L127.375 23.3246L127.12 23.2604Z" fill="#37374F"/>
<path d="M130.225 24.1976L128.527 27.0732L128.754 27.2068L130.451 24.3312L130.225 24.1976Z" fill="#37374F"/>
<path d="M129.266 23.9143L128.109 26.9604L128.355 27.0537L129.512 24.0076L129.266 23.9143Z" fill="#37374F"/>
<path d="M125.575 26.312L124.823 28.7025C124.709 29.0656 124.911 29.4527 125.274 29.5671L127.299 30.204C127.662 30.3184 128.049 30.1163 128.164 29.7533L128.916 27.3628L125.575 26.312Z" fill="#FFC061"/>
<path d="M129.108 26.936L125.63 25.8422C125.501 25.8015 125.363 25.8734 125.322 26.0028L125.187 26.4321C125.147 26.5615 125.218 26.6991 125.348 26.7401L128.825 27.834C128.955 27.8746 129.092 27.8027 129.133 27.6733L129.269 27.2441C129.309 27.1147 129.237 26.9767 129.108 26.936Z" fill="#FFC061"/>
<path d="M128.772 27.8158L125.432 26.7649L125.351 27.0207L128.692 28.0716L128.772 27.8158Z" fill="#DBA653"/>
</svg>
