<svg width="148" height="147" viewBox="0 0 148 147" fill="none" xmlns="http://www.w3.org/2000/svg">
<path d="M107.285 90.9567H109.844V88.0644H107.285V90.9567Z" fill="white"/>
<path d="M120.529 76.051H118.117V79.5456H120.529V76.051Z" fill="#FAFAFA"/>
<path d="M111.07 92.4989C111.032 92.4989 111.002 88.8968 111.002 84.4546C111.002 80.0109 111.032 76.4097 111.07 76.4097C111.107 76.4097 111.137 80.0109 111.137 84.4546C111.137 88.8968 111.107 92.4989 111.07 92.4989Z" fill="#E0E0E0"/>
<path d="M103.576 29.8752L104.834 25.9327C103.854 23.9673 103.389 21.716 103.601 19.3696C104.212 12.6207 110.185 7.64536 116.943 8.25676C123.701 8.8678 128.685 14.8342 128.075 21.5831C127.464 28.3316 121.491 33.3069 114.733 32.6958C111.911 32.4406 109.587 31.4189 107.662 29.6292L103.576 29.8752Z" fill="#FAFAFA"/>
<path d="M103.578 29.8752C103.578 29.8752 103.672 29.8655 103.85 29.8523C104.033 29.8391 104.294 29.8203 104.635 29.796C105.328 29.7486 106.342 29.6791 107.661 29.5889L107.678 29.5878L107.691 29.5996C108.852 30.6716 110.625 31.8612 113.023 32.3681C113.617 32.4958 114.244 32.5952 114.898 32.6359C115.226 32.6484 115.558 32.6608 115.896 32.6733C116.234 32.6708 116.577 32.6355 116.926 32.6177C118.315 32.4886 119.771 32.115 121.169 31.432C122.566 30.7521 123.901 29.7646 125.017 28.4905C126.13 27.2185 127.035 25.6628 127.539 23.9198C128.041 22.1798 128.168 20.2721 127.842 18.3905C127.786 17.915 127.636 17.4569 127.517 16.9891C127.465 16.7528 127.364 16.531 127.283 16.3025C127.196 16.0761 127.116 15.8458 127.022 15.6212C126.603 14.7428 126.142 13.8633 125.515 13.0894C125.231 12.6808 124.88 12.3315 124.55 11.9675C124.391 11.7785 124.194 11.6299 124.016 11.462C123.832 11.3015 123.658 11.1286 123.466 10.9796L122.88 10.5472L122.588 10.3322L122.277 10.1465L121.659 9.77644C121.45 9.65808 121.228 9.56789 121.014 9.46236C119.29 8.65347 117.419 8.26061 115.61 8.29982C113.8 8.33547 112.062 8.77682 110.541 9.51192C109.017 10.2456 107.711 11.267 106.683 12.4295C105.653 13.5924 104.903 14.894 104.41 16.197C104.351 16.3613 104.293 16.5239 104.235 16.6858C104.173 16.8465 104.12 17.0077 104.085 17.1738C104.003 17.5018 103.923 17.8248 103.844 18.1424C103.756 18.7905 103.637 19.4133 103.625 20.0229C103.526 22.4664 104.171 24.4927 104.872 25.9144L104.88 25.9294L104.875 25.9447C104.458 27.215 104.137 28.1918 103.918 28.8584C103.809 29.1868 103.726 29.4381 103.667 29.6142C103.61 29.785 103.578 29.8752 103.578 29.8752C103.578 29.8752 103.599 29.7939 103.65 29.6263C103.703 29.4513 103.78 29.2017 103.88 28.8759C104.09 28.1996 104.398 27.2085 104.798 25.9201L104.8 25.9505C104.08 24.5266 103.415 22.4867 103.502 20.0183C103.511 19.4026 103.628 18.7727 103.714 18.1171C103.792 17.7959 103.872 17.469 103.953 17.1367C103.988 16.9688 104.041 16.8052 104.103 16.6426C104.161 16.479 104.22 16.3139 104.279 16.1474C104.772 14.8273 105.526 13.5068 106.567 12.3258C107.604 11.1454 108.925 10.1069 110.468 9.35969C112.008 8.6114 113.771 8.16007 115.608 8.12193C117.443 8.07986 119.342 8.47593 121.093 9.29624C121.31 9.40283 121.535 9.49445 121.747 9.61459L122.375 9.98963L122.691 10.1782L122.988 10.396L123.583 10.8349C123.778 10.986 123.954 11.1614 124.142 11.3244C124.322 11.4948 124.522 11.6456 124.683 11.8374C125.019 12.2067 125.375 12.5618 125.663 12.9764C126.299 13.7625 126.768 14.6548 127.193 15.5471C127.288 15.7753 127.369 16.0091 127.457 16.2391C127.54 16.4708 127.641 16.6961 127.694 16.936C127.815 17.4105 127.967 17.8761 128.024 18.3588C128.353 20.2693 128.222 22.2047 127.711 23.9697C127.197 25.7376 126.276 27.3144 125.145 28.6017C124.01 29.8912 122.655 30.8883 121.238 31.5728C119.82 32.2601 118.345 32.6337 116.939 32.7585C116.587 32.7753 116.239 32.8095 115.898 32.8102C115.556 32.7959 115.22 32.7817 114.889 32.7678C114.229 32.7236 113.597 32.6202 112.997 32.4883C110.578 31.9639 108.795 30.7486 107.637 29.6584L107.667 29.6691C106.334 29.7386 105.31 29.7921 104.61 29.8288C104.274 29.8452 104.015 29.8577 103.835 29.8666C103.661 29.8741 103.578 29.8752 103.578 29.8752Z" fill="black" fill-opacity="0.85"/>
<path d="M108.867 20.0126L110.889 18.2618L114.295 21.757L121.93 15.3984L123.546 17.4105L113.764 25.3758L108.867 20.0126Z" fill="#EDC16A"/>
<path d="M87.8944 102.694L31.5479 115.251C30.1801 115.556 28.8244 114.694 28.5197 113.326L10.2331 31.2735C9.92844 29.9057 10.79 28.5499 12.1578 28.2452L68.5045 15.6879C69.8723 15.3831 71.228 16.2447 71.5327 17.6125L89.819 99.6657C90.124 101.033 89.2622 102.389 87.8944 102.694Z" fill="#FF7E42"/>
<path d="M87.8974 102.694C87.8974 102.694 87.96 102.674 88.0843 102.639C88.208 102.602 88.389 102.532 88.6123 102.409C88.8309 102.279 89.0883 102.084 89.3243 101.789C89.5558 101.493 89.765 101.091 89.8394 100.599C89.8817 100.354 89.8767 100.088 89.8332 99.8143C89.787 99.5411 89.7118 99.2557 89.6478 98.9551C89.5129 98.3545 89.3657 97.6975 89.2058 96.9859C88.887 95.5622 88.5191 93.92 88.1048 92.0715C86.4517 84.6745 84.0599 73.9721 81.1042 60.7481C79.6283 54.1353 78.0113 46.892 76.2759 39.1162C75.4085 35.2282 74.5111 31.207 73.587 27.0651C73.1251 24.9942 72.6565 22.893 72.181 20.763C71.9421 19.699 71.7021 18.6277 71.46 17.5493C71.3319 17.0224 71.013 16.5488 70.5882 16.2103C70.1571 15.8794 69.6176 15.6822 69.0687 15.6843C68.7937 15.6831 68.5266 15.7372 68.251 15.8021C67.9768 15.8633 67.7024 15.9244 67.4274 15.9858C66.8776 16.1083 66.3261 16.2314 65.7728 16.3548C64.6665 16.6017 63.5537 16.8497 62.4342 17.0994C60.1955 17.5986 57.9315 18.1035 55.6431 18.6138C51.0663 19.6343 46.3932 20.6763 41.636 21.737C32.1213 23.8579 22.2699 26.0538 12.1802 28.3028C11.5625 28.4382 11.006 28.8179 10.6575 29.3426C10.3046 29.8642 10.1642 30.5218 10.2744 31.1395C10.5403 32.39 10.8285 33.6426 11.1033 34.8879C11.6586 37.3799 12.2102 39.8555 12.7579 42.3128C13.853 47.2278 14.9319 52.0708 15.9921 56.8292C18.1118 66.3465 20.1566 75.5268 22.1045 84.2719C24.0514 93.0173 25.9014 101.328 27.633 109.105C27.8492 110.077 28.0637 111.041 28.2765 111.996C28.3849 112.473 28.4839 112.953 28.5988 113.42C28.7178 113.881 28.9787 114.299 29.3266 114.616C29.6754 114.934 30.1138 115.145 30.5734 115.227C30.804 115.265 31.0382 115.271 31.2695 115.249C31.4984 115.218 31.729 115.162 31.9594 115.111C32.88 114.906 33.7915 114.704 34.6941 114.503C38.3042 113.7 41.7688 112.928 45.0756 112.193C58.3032 109.253 69.0073 106.875 76.4058 105.231C80.1046 104.411 82.9765 103.775 84.925 103.344C85.8984 103.129 86.641 102.966 87.1411 102.856C87.6409 102.746 87.8974 102.694 87.8974 102.694C87.8974 102.694 87.6426 102.755 87.1443 102.868C86.6448 102.981 85.9031 103.148 84.9308 103.367C82.9836 103.804 80.1131 104.448 76.4164 105.276C69.0202 106.93 58.3188 109.321 45.0947 112.276C41.7885 113.015 38.3245 113.788 34.715 114.594C33.8126 114.795 32.9011 114.999 31.9809 115.204C31.7511 115.255 31.5219 115.311 31.2809 115.344C31.0406 115.367 30.7973 115.361 30.5575 115.321C30.0797 115.237 29.6243 115.017 29.2617 114.687C28.8997 114.359 28.6285 113.924 28.5045 113.445C28.3873 112.97 28.2894 112.496 28.1804 112.018C27.9671 111.062 27.7523 110.099 27.5351 109.127C25.8003 101.35 23.9465 93.0405 21.9957 84.296C20.0459 75.5515 17.9987 66.3715 15.8766 56.8547C14.8159 52.0964 13.7363 47.2534 12.6406 42.3387C12.0929 39.8813 11.5411 37.4058 10.9857 34.9138C10.7104 33.6658 10.4239 32.4217 10.1557 31.1597C10.0402 30.5118 10.1877 29.8213 10.5576 29.2748C10.9229 28.7244 11.5079 28.3257 12.1549 28.1841C22.2449 25.9359 32.0963 23.7407 41.6113 21.6207C46.3688 20.5608 51.0422 19.52 55.6193 18.5004C57.9077 17.9909 60.1723 17.4864 62.411 16.9878C63.5305 16.7386 64.6433 16.4906 65.7499 16.2441C66.3032 16.1209 66.8547 15.9981 67.4044 15.8756C67.6795 15.8145 67.9539 15.7534 68.2281 15.6922C68.4984 15.6285 68.7846 15.5703 69.0708 15.5721C69.6447 15.57 70.2085 15.7763 70.6584 16.1221C71.1027 16.4756 71.4353 16.9713 71.569 17.5214C71.8108 18.6009 72.0509 19.6734 72.2895 20.7386C72.7637 22.8689 73.2315 24.9701 73.6928 27.0413C74.6149 31.1838 75.5102 35.2055 76.3758 39.0939C78.1062 46.8708 79.7182 54.1153 81.1897 60.729C84.1293 73.9565 86.5081 84.6615 88.1524 92.0606C88.5623 93.9103 88.9267 95.5534 89.2426 96.9776C89.4001 97.6896 89.5458 98.3469 89.6786 98.9481C89.7418 99.2496 89.8156 99.5328 89.8614 99.8096C89.9043 100.086 89.9081 100.355 89.8646 100.602C89.7876 101.099 89.5746 101.504 89.3398 101.8C89.1004 102.097 88.8403 102.29 88.6193 102.419C88.394 102.541 88.2115 102.61 88.0869 102.645C87.9612 102.678 87.8974 102.694 87.8974 102.694Z" fill="black" fill-opacity="0.85"/>
<g opacity="0.3">
<path d="M34.402 112.346L85.7412 100.61L84.1169 90.5471L81.2073 84.9087L32.0957 104.199L34.402 112.346Z" fill="black" fill-opacity="0.85"/>
</g>
<g opacity="0.3">
<path d="M55.8398 18.6974L57.7818 21.904L58.1606 23.603L56.8421 23.8968L55.8398 18.6974Z" fill="black" fill-opacity="0.85"/>
</g>
<path d="M13.1562 31.7488L30.9677 111.673L86.7996 99.2299L83.6147 84.9386L68.9879 19.3064L13.1562 31.7488Z" fill="white"/>
<path d="M13.1562 31.749C13.5541 31.66 35.044 26.8511 68.9773 19.2581L69.0258 19.2472L69.0367 19.2957C73.9898 41.5064 80.1712 69.2239 86.8583 99.2103L86.8598 99.2168L86.8733 99.2767L86.8134 99.2903C66.8529 103.737 47.8999 107.959 30.9806 111.727L30.9256 111.74L30.9136 111.685C20.4287 64.4878 13.2644 32.2359 13.1562 31.749C13.265 32.2353 20.4736 64.4778 31.0226 111.66L30.9556 111.618C47.8743 107.846 66.8264 103.62 86.7861 99.1698L86.7393 99.2432L86.7379 99.2368C80.0593 69.2485 73.8861 41.5293 68.9394 19.3171L68.9987 19.3547C35.0523 26.8893 13.5538 31.6608 13.1562 31.749Z" fill="black" fill-opacity="0.85"/>
<path d="M57.1455 24.5454L28.8962 30.8411L27.4746 24.4616C27.2513 23.4597 27.8824 22.4665 28.8844 22.2432L53.5055 16.7561C54.5074 16.5328 55.5006 17.1639 55.7239 18.1659L57.1455 24.5454Z" fill="black" fill-opacity="0.85"/>
<path d="M44.1023 15.6169L36.9121 17.2192L39.1262 23.195L44.5418 21.9879L44.1023 15.6169Z" fill="black" fill-opacity="0.85"/>
<path d="M53.4988 16.7565C53.5061 16.7891 48.0002 18.0441 41.2027 19.5591C34.4027 21.0744 28.8863 22.2762 28.8789 22.2433C28.8716 22.2107 34.3763 20.956 41.1762 19.4404C47.9738 17.9257 53.4914 16.7239 53.4988 16.7565Z" fill="black" fill-opacity="0.85"/>
<path d="M29.2312 29.3785C29.1986 29.3859 28.9135 28.2329 28.595 26.8034C28.2762 25.3736 28.0447 24.2088 28.0773 24.2015C28.1099 24.1941 28.3949 25.3471 28.7134 26.7769C29.032 28.2064 29.2638 29.3712 29.2312 29.3785Z" fill="black" fill-opacity="0.85"/>
<path d="M55.7931 22.8146C55.7602 22.822 55.4992 21.7756 55.2101 20.4777C54.9207 19.1796 54.7129 18.1215 54.7456 18.1144C54.7782 18.1071 55.0394 19.1531 55.3285 20.4516C55.6177 21.7492 55.8257 22.8073 55.7931 22.8146Z" fill="black" fill-opacity="0.85"/>
<path d="M54.6784 24.2077C54.6858 24.2406 49.0339 25.5279 42.0562 27.0828C35.0761 28.6384 29.4136 29.8725 29.4063 29.8396C29.3989 29.807 35.0497 28.5197 42.0297 26.9641C49.0074 25.4094 54.6711 24.175 54.6784 24.2077Z" fill="black" fill-opacity="0.85"/>
<path d="M39.8036 47.4582C39.811 47.4914 35.999 48.3691 31.2906 49.4184C26.5804 50.468 22.7574 51.2919 22.75 51.2587C22.7427 51.2255 26.5537 50.3481 31.2639 49.2982C35.9723 48.249 39.7963 47.425 39.8036 47.4582Z" fill="black" fill-opacity="0.85"/>
<path d="M68.2206 44.2579C68.228 44.2911 58.2676 46.539 45.9764 49.2784C33.6809 52.0187 23.7105 54.2122 23.7031 54.1793C23.6958 54.1461 33.6542 51.8985 45.9497 49.1585C58.2411 46.4191 68.2133 44.225 68.2206 44.2579Z" fill="black" fill-opacity="0.85"/>
<path d="M68.832 47.0049C68.8393 47.0381 58.8789 49.2862 46.5878 52.0254C34.2922 54.7657 24.3218 56.9591 24.3145 56.9259C24.3071 56.8927 34.2655 54.6452 46.561 51.9052C58.8521 49.166 68.8243 46.9717 68.832 47.0049Z" fill="black" fill-opacity="0.85"/>
<path d="M69.4433 49.7512C69.4506 49.7844 59.4902 52.0323 47.1991 54.7717C34.9035 57.512 24.9331 59.7055 24.9258 59.6723C24.9184 59.6391 34.8768 57.3915 47.1723 54.6515C59.4635 51.9124 69.4359 49.718 69.4433 49.7512Z" fill="black" fill-opacity="0.85"/>
<path d="M70.0527 52.4982C70.06 52.5314 60.0996 54.7795 47.8085 57.5186C35.5129 60.2589 25.5425 62.4524 25.5352 62.4192C25.5278 62.386 35.4862 60.1385 47.7817 57.3985C60.0728 54.659 70.0453 52.465 70.0527 52.4982Z" fill="black" fill-opacity="0.85"/>
<path d="M70.6718 55.2451C70.6791 55.2783 60.7187 57.5265 48.4276 60.2656C36.1321 63.0059 26.1619 65.1994 26.1543 65.1662C26.147 65.133 36.1053 62.8854 48.4009 60.1454C60.6923 57.406 70.6645 55.2119 70.6718 55.2451Z" fill="black" fill-opacity="0.85"/>
<path d="M34.7821 74.5795C34.7798 74.578 34.7707 74.5463 34.7554 74.4866C34.7386 74.4181 34.7172 74.3321 34.6908 74.2248C34.6343 73.9865 34.5559 73.6568 34.4577 73.2428C34.2615 72.3933 33.9858 71.1995 33.6562 69.7714L33.7196 69.8117C32.3166 70.127 30.6646 70.4978 28.9022 70.8939C28.8913 70.9098 28.9901 70.7555 28.9486 70.8213L28.9489 70.8225L28.9495 70.8251L28.9507 70.8304L28.953 70.8407L28.9577 70.8613L28.9668 70.9024L28.9854 70.985L29.0221 71.1495C29.0465 71.2588 29.0706 71.3678 29.0947 71.4763C29.1429 71.6931 29.1907 71.9082 29.2378 72.1207C29.3321 72.5458 29.4241 72.9619 29.514 73.3668C29.692 74.176 29.8601 74.94 30.0147 75.6417L29.9512 75.6014C31.3842 75.2935 32.5822 75.0361 33.4346 74.853C33.8513 74.766 34.183 74.697 34.4225 74.647C34.5306 74.6256 34.6179 74.6083 34.6869 74.5945C34.7472 74.583 34.7798 74.5777 34.7821 74.5795C34.7845 74.5809 34.7569 74.5892 34.7007 74.6039C34.6349 74.62 34.5521 74.6406 34.4492 74.6661C34.2139 74.722 33.888 74.7995 33.479 74.8965C32.6213 75.0946 31.4163 75.3725 29.9744 75.7054L29.9227 75.7175L29.9109 75.6652C29.7529 74.9644 29.5807 74.2013 29.3982 73.393C29.3074 72.9883 29.2143 72.5723 29.1191 72.1474C29.0714 71.9347 29.0236 71.7199 28.9751 71.503C28.951 71.3946 28.9266 71.2856 28.9022 71.1763L28.8655 71.0117L28.847 70.9292L28.8378 70.8877L28.8331 70.8671L28.8308 70.8569L28.8296 70.8516L28.829 70.8489L28.8287 70.8478C28.787 70.913 28.8852 70.7573 28.8758 70.7734C30.6396 70.3835 32.2928 70.018 33.6967 69.7074L33.749 69.6959L33.7602 69.7479C34.0711 71.1945 34.3311 72.4036 34.5159 73.2643C34.6017 73.6759 34.6699 74.0038 34.7193 74.2407C34.7398 74.3447 34.7566 74.4284 34.7695 74.4951C34.7801 74.5521 34.7845 74.5809 34.7821 74.5795Z" fill="black" fill-opacity="0.85"/>
<path d="M70.602 62.7001L36.9824 70.1914L37.6074 72.9961L71.227 65.5048L70.602 62.7001Z" fill="#E0E0E0"/>
<path d="M36.6457 82.9394C36.6434 82.9379 36.6343 82.9062 36.619 82.8466C36.6022 82.7781 36.5808 82.692 36.5543 82.5847C36.4979 82.3464 36.4195 82.0168 36.3213 81.6027C36.125 80.753 35.8497 79.5594 35.5197 78.1314L35.5832 78.1716C34.1801 78.4869 32.5282 78.8577 30.7658 79.2538C30.7549 79.2697 30.8536 79.1151 30.8122 79.1813L30.8125 79.1824L30.8131 79.1851L30.8143 79.1904L30.8166 79.2006L30.8213 79.2212L30.8304 79.2626L30.8489 79.3452L30.8857 79.5098C30.91 79.6191 30.9341 79.7281 30.9585 79.8365C31.0067 80.0533 31.0543 80.2684 31.1016 80.4809C31.196 80.9061 31.2879 81.3221 31.3778 81.727C31.5559 82.5363 31.724 83.3002 31.8785 84.0019L31.8151 83.9617C33.2481 83.6537 34.4461 83.3963 35.2985 83.2133C35.7151 83.1263 36.0469 83.0572 36.2864 83.0073C36.3945 82.9858 36.4818 82.9685 36.5508 82.9547C36.6107 82.9432 36.6431 82.9379 36.6457 82.9394C36.6481 82.9409 36.6204 82.9491 36.5643 82.9638C36.4985 82.9799 36.4156 83.0005 36.3128 83.0261C36.0774 83.0819 35.7516 83.1595 35.3426 83.2567C34.4848 83.4548 33.2795 83.7328 31.8377 84.0657L31.786 84.0777L31.7742 84.0254C31.6161 83.3246 31.4439 82.5615 31.2615 81.7532C31.1707 81.3486 31.0775 80.9328 30.9823 80.5076C30.9347 80.2952 30.8868 80.0801 30.8384 79.8632C30.8143 79.7548 30.7899 79.6458 30.7655 79.5365L30.7288 79.3719L30.7102 79.2894L30.7011 79.2479L30.6964 79.2274L30.6941 79.2171L30.6929 79.2118L30.6923 79.2092L30.692 79.208C30.6503 79.2732 30.7484 79.1175 30.739 79.1336C32.5029 78.7437 34.156 78.3782 35.56 78.0679L35.6123 78.0562L35.6235 78.1082C35.9343 79.5547 36.1944 80.7638 36.3795 81.6245C36.4653 82.0362 36.5335 82.3641 36.5828 82.6009C36.6034 82.7049 36.6199 82.7887 36.6331 82.8554C36.6437 82.9124 36.6481 82.9412 36.6457 82.9394Z" fill="black" fill-opacity="0.85"/>
<path d="M72.4712 71.0603L38.8516 78.5516L39.4765 81.3564L73.0961 73.8651L72.4712 71.0603Z" fill="#E0E0E0"/>
<path d="M38.5067 91.2996C38.5044 91.2982 38.4953 91.2664 38.48 91.2068C38.4633 91.1383 38.4418 91.0522 38.4154 90.945C38.3589 90.707 38.2805 90.377 38.1824 89.963C37.9861 89.1132 37.7107 87.9196 37.3808 86.4916L37.4442 86.5319C36.0412 86.8471 34.3892 87.218 32.6268 87.6141C32.6159 87.6299 32.715 87.4757 32.6732 87.5415L32.6735 87.543L32.6741 87.5456L32.6753 87.5509L32.6776 87.5612L32.6823 87.5817L32.6915 87.6232L32.71 87.7057L32.7467 87.8703C32.7711 87.9796 32.7952 88.0886 32.8193 88.197C32.8675 88.4139 32.9154 88.629 32.9624 88.8414C33.0567 89.2666 33.1487 89.6827 33.2383 90.0876C33.4163 90.8968 33.5844 91.6608 33.739 92.3624L33.6755 92.3222C35.1085 92.0142 36.3065 91.7568 37.1589 91.5735C37.5756 91.4865 37.9073 91.4175 38.1471 91.3675C38.2552 91.3461 38.3425 91.3287 38.4115 91.3149C38.4721 91.3035 38.5044 91.2982 38.5067 91.2996C38.5091 91.3011 38.4815 91.3093 38.4254 91.324C38.3595 91.3405 38.2767 91.361 38.1738 91.3866C37.9385 91.4424 37.6126 91.52 37.2036 91.617C36.3459 91.815 35.1409 92.093 33.699 92.4259L33.6473 92.438L33.6355 92.3856C33.4775 91.6846 33.3053 90.9218 33.1228 90.1134C33.032 89.7088 32.9389 89.2927 32.8437 88.8679C32.7961 88.6551 32.7482 88.4403 32.6997 88.2235C32.6756 88.115 32.6512 88.006 32.6268 87.8967L32.5901 87.7322L32.5716 87.6496L32.5625 87.6082L32.5578 87.5876L32.5554 87.5773L32.5542 87.572L32.5536 87.5694L32.5534 87.5682C32.5116 87.6335 32.6098 87.4777 32.6004 87.4939C34.3643 87.104 36.0174 86.7384 37.4213 86.4278L37.4736 86.4164L37.4848 86.4684C37.7957 87.9149 38.0557 89.1241 38.2405 89.9847C38.3263 90.3964 38.3945 90.7243 38.4439 90.9611C38.4644 91.0652 38.4812 91.1492 38.4941 91.2156C38.505 91.2726 38.5091 91.3014 38.5067 91.2996Z" fill="black" fill-opacity="0.85"/>
<path d="M74.3325 79.4212L40.7129 86.9125L41.3379 89.7172L74.9574 82.2259L74.3325 79.4212Z" fill="#E0E0E0"/>
<path d="M30.1523 72.8518L30.6572 72.0576L32.1584 72.8918L34.09 69.9775L34.8378 70.4926L32.3446 74.1653L30.1523 72.8518Z" fill="#EDC16A"/>
<path d="M31.9551 80.9328L32.4599 80.1385L33.9608 80.9727L35.8928 78.0585L36.6406 78.5736L34.1474 82.2462L31.9551 80.9328Z" fill="#EDC16A"/>
<path d="M33.8086 89.217L34.3134 88.4227L35.8143 89.2569L37.746 86.3427L38.4941 86.8577L36.0006 90.5304L33.8086 89.217Z" fill="#EDC16A"/>
<path d="M49.1856 99.6142C49.193 99.6474 46.3545 100.308 42.8467 101.09C39.3374 101.872 36.4878 102.479 36.4805 102.446C36.4731 102.412 39.3107 101.752 42.82 100.97C46.3278 100.188 49.178 99.5813 49.1856 99.6142Z" fill="black" fill-opacity="0.85"/>
<path d="M55.5195 98.101C55.5269 98.1342 54.4826 98.3951 53.1874 98.6837C51.8916 98.9725 50.8358 99.1797 50.8282 99.1465C50.8208 99.1133 51.8648 98.8524 53.1606 98.5635C54.4558 98.275 55.5122 98.0678 55.5195 98.101Z" fill="black" fill-opacity="0.85"/>
<path d="M76.4815 91.5029C76.4888 91.5361 73.9348 92.1335 70.7779 92.8369C67.6197 93.5407 65.0542 94.0842 65.0469 94.051C65.0395 94.0178 67.593 93.4205 70.7511 92.7167C73.9081 92.0133 76.4741 91.4697 76.4815 91.5029Z" fill="black" fill-opacity="0.85"/>
<path d="M73.755 99.2375C73.7479 99.2352 73.7799 99.157 73.8111 99.0036C73.8452 98.8505 73.8469 98.614 73.7755 98.3249C73.7018 98.0354 73.5505 97.7008 73.3692 97.3135C73.1958 96.9277 72.9707 96.4702 72.9669 95.9125C72.9751 95.3651 73.2164 94.7571 73.7118 94.3308C74.201 93.8962 74.9682 93.7428 75.6643 93.9667C76.0107 94.0795 76.3451 94.2755 76.5937 94.577C76.7124 94.7307 76.8076 94.9152 76.8144 95.1271C76.8329 95.343 76.6675 95.5575 76.4697 95.6236C76.2743 95.6986 76.0836 95.7209 75.8914 95.767C75.6984 95.8067 75.5039 95.8469 75.3079 95.8872C74.915 95.9648 74.5142 96.0368 74.1052 96.0902C73.2892 96.1996 72.4694 96.2145 71.7014 96.1041C71.3258 96.0644 70.9292 96.0582 70.6462 96.2759C70.3641 96.4913 70.221 96.8413 70.0103 97.1348C69.9066 97.2829 69.7741 97.4246 69.6004 97.5009C69.4291 97.5803 69.2296 97.5782 69.0615 97.5236C68.7224 97.4093 68.4733 97.1821 68.2041 97.0293C68.071 96.9515 67.9323 96.8871 67.7907 96.873C67.6502 96.8595 67.5089 96.8939 67.397 96.9726C67.1698 97.1339 67.0496 97.4013 66.8992 97.6249C66.6018 98.1001 66.0903 98.3252 65.6586 98.3407C65.2158 98.3625 64.8565 98.1744 64.6299 97.9761C64.3987 97.7739 64.2832 97.5588 64.223 97.4122C64.1639 97.2635 64.1562 97.1789 64.1562 97.1789C64.1627 97.1771 64.1803 97.2594 64.2456 97.4022C64.312 97.543 64.4316 97.7489 64.6608 97.9394C64.8858 98.1265 65.2337 98.299 65.6548 98.2717C66.0676 98.2499 66.5492 98.0307 66.8263 97.5773C66.9727 97.359 67.0864 97.0831 67.3429 96.8945C67.4707 96.8031 67.6376 96.7599 67.8007 96.7752C67.9649 96.7907 68.116 96.8613 68.255 96.9412C68.5341 97.0993 68.7868 97.3208 69.0933 97.4204C69.2446 97.468 69.4103 97.4675 69.5555 97.4002C69.7012 97.3352 69.8196 97.2115 69.9181 97.0696C70.1202 96.7905 70.2589 96.4302 70.576 96.1825C70.7335 96.0606 70.9315 95.9977 71.1266 95.9754C71.3229 95.9533 71.5198 95.9654 71.7137 95.9848C72.4809 96.0929 73.2781 96.0767 74.0896 95.9689C74.4948 95.9157 74.893 95.8446 75.2844 95.7676C75.4801 95.7277 75.674 95.6877 75.8668 95.6483C76.0572 95.6037 76.2579 95.5772 76.4245 95.5126C76.5931 95.4506 76.7054 95.3025 76.6957 95.1294C76.6918 94.9584 76.609 94.7883 76.5017 94.6499C76.2758 94.3734 75.9573 94.1821 75.6305 94.0751C74.9697 93.86 74.2439 94.0008 73.7785 94.4089C73.3048 94.8103 73.0674 95.3912 73.0545 95.9142C73.0518 96.4437 73.2643 96.898 73.4323 97.2856C73.6072 97.6746 73.7547 98.0169 73.8223 98.314C73.8881 98.6114 73.8781 98.8546 73.8355 99.0089C73.7958 99.1632 73.755 99.2375 73.755 99.2375Z" fill="black" fill-opacity="0.85"/>
<path d="M79.8242 95.476C79.8251 95.4801 79.7722 95.4957 79.6708 95.5215C79.5568 95.5491 79.4093 95.5847 79.2259 95.6288C78.8246 95.7219 78.2683 95.8509 77.5872 96.0087C76.2035 96.3296 74.2945 96.7824 72.1942 97.3148C70.0932 97.8481 68.1992 98.36 66.8299 98.7375C66.1559 98.9232 65.6055 99.0752 65.2082 99.1845C65.0261 99.2329 64.8794 99.272 64.766 99.302C64.6646 99.3276 64.6106 99.339 64.6094 99.3349C64.6082 99.3308 64.6596 99.3114 64.759 99.2782C64.8706 99.2423 65.0152 99.1959 65.1947 99.1383C65.5738 99.0187 66.1241 98.853 66.8061 98.6535C68.1698 98.2545 70.0615 97.7288 72.1639 97.1952C74.2657 96.6625 76.1789 96.2226 77.5681 95.9235C78.2627 95.7736 78.8257 95.6573 79.2157 95.5815C79.4011 95.5465 79.55 95.5186 79.6652 95.4968C79.7689 95.4792 79.8233 95.4719 79.8242 95.476Z" fill="black" fill-opacity="0.85"/>
<path d="M55.7282 31.002L32.9062 36.0873L33.8617 40.3751L56.6837 35.2898L55.7282 31.002Z" fill="#E0E0E0"/>
<path d="M77.3242 100.581L84.6971 139.533L91.4348 127.084L104.205 134.579L90.6494 96.6495L77.3242 100.581Z" fill="#EDC16A"/>
<g opacity="0.3">
<path d="M79.797 113.682C81.1598 113.963 82.7507 113.481 83.7177 112.48C84.3894 111.785 84.8375 110.841 85.6846 110.376C86.445 109.958 87.3827 110.018 88.2189 110.249C89.0552 110.48 89.8427 110.867 90.6824 111.085C92.3285 111.512 94.1438 111.242 95.5951 110.356L93.4683 104.45L83.5945 103.216L78.8867 108.871L79.797 113.682Z" fill="black" fill-opacity="0.85"/>
</g>
<path d="M90.9508 125.537C90.91 125.547 89.8119 121.502 88.4988 116.502C87.1851 111.501 86.1537 107.439 86.1945 107.428C86.2354 107.418 87.3331 111.462 88.6469 116.464C89.96 121.463 90.9917 125.526 90.9508 125.537Z" fill="black" fill-opacity="0.85"/>
<path d="M78.401 102.608L71.0278 141.559L64.2902 129.11L51.5195 136.606L65.0756 98.6761L78.401 102.608Z" fill="#EDC16A"/>
<g opacity="0.3">
<path d="M61.0156 110.02C61.0156 110.02 63.1124 111.747 65.6144 110.951C68.1162 110.156 69.6694 109.989 71.0228 110.951C72.3762 111.914 76.0403 115.052 76.0403 115.052L76.8909 110.558L71.9704 103.8L66.8315 104.838L63.1718 105.203L61.8113 107.779L61.0156 110.02Z" fill="black" fill-opacity="0.85"/>
</g>
<path d="M121.622 67.4461C121.622 70.2408 118.05 72.6481 117.528 75.2894C116.989 78.0109 119.359 81.5984 118.32 84.1024C117.264 86.6503 113.041 87.5068 111.525 89.7714C109.998 92.0533 110.812 96.2801 108.878 98.2147C106.943 100.149 102.716 99.3345 100.434 100.862C98.1696 102.378 97.3131 106.601 94.7652 107.657C92.2612 108.696 88.6737 106.326 85.9522 106.865C83.3109 107.387 80.9035 110.959 78.1089 110.959C75.3142 110.959 72.9068 107.387 70.2655 106.865C67.544 106.326 63.9566 108.695 61.4525 107.657C58.9047 106.601 58.0482 102.378 55.7836 100.862C53.5016 99.3345 49.2748 100.149 47.3402 98.2144C45.4056 96.2798 46.2204 92.053 44.6928 89.7711C43.1769 87.5065 38.9545 86.65 37.8978 84.1021C36.8594 81.5981 39.2286 78.0106 38.6903 75.2891C38.1679 72.6478 34.5957 70.2405 34.5957 67.4458C34.5957 64.6511 38.1679 62.2437 38.6903 59.6024C39.2286 56.8809 36.8594 53.2935 37.8978 50.7894C38.9542 48.2416 43.1766 47.3851 44.6928 45.1205C46.2204 42.8386 45.4056 38.6117 47.3405 36.6771C49.2751 34.7425 53.5019 35.5573 55.7839 34.0297C58.0485 32.5135 58.905 28.2914 61.4528 27.2347C63.9569 26.1963 67.5443 28.5655 70.2658 28.0272C72.9071 27.5048 75.3145 23.9326 78.1092 23.9326C80.9038 23.9326 83.3112 27.5048 85.9525 28.0272C88.674 28.5655 92.2614 26.1966 94.7655 27.2347C97.3134 28.2911 98.1699 32.5135 100.434 34.0297C102.716 35.5573 106.943 34.7425 108.878 36.6771C110.812 38.6117 109.998 42.8386 111.525 45.1205C113.041 47.3851 117.264 48.2416 118.32 50.7894C119.359 53.2935 116.989 56.8809 117.528 59.6024C118.05 62.244 121.622 64.6514 121.622 67.4461Z" fill="#EDC16A"/>
<path d="M67.9282 43.0559C67.9235 43.0583 67.8965 43.0168 67.8492 42.9357C67.7948 42.8382 67.7287 42.72 67.6488 42.5775C67.4766 42.2655 67.2389 41.8077 66.9556 41.2371C66.3879 40.0961 65.6539 38.4938 64.9461 36.6817C64.2397 34.8685 63.6943 33.1921 63.3397 31.9683C63.1619 31.3566 63.0267 30.8588 62.9421 30.5127C62.9042 30.3537 62.8728 30.2221 62.8469 30.1136C62.8269 30.022 62.8187 29.9732 62.8237 29.9717C62.8287 29.9702 62.8469 30.0164 62.8766 30.1054C62.9101 30.2118 62.9506 30.3408 62.9994 30.4968C63.1114 30.8597 63.2612 31.3463 63.4431 31.9372C63.8239 33.151 64.384 34.8176 65.0886 36.6265C65.7947 38.4342 66.511 40.0394 67.0529 41.1906C67.3191 41.7486 67.5383 42.2082 67.7016 42.5508C67.771 42.6986 67.8289 42.8211 67.8762 42.9219C67.9147 43.0071 67.9329 43.0533 67.9282 43.0559Z" fill="black" fill-opacity="0.85"/>
<path d="M71.801 41.5833C71.7907 41.5859 71.7513 41.4704 71.6887 41.2592C71.6255 41.0482 71.5424 40.7406 71.4454 40.3592C71.2515 39.5961 71.0111 38.5347 70.7937 37.3532C70.5768 36.1711 70.4243 35.0933 70.3347 34.3112C70.2898 33.9201 70.2583 33.603 70.2425 33.3835C70.226 33.164 70.2219 33.0421 70.2322 33.0409C70.2427 33.0397 70.2668 33.1593 70.3015 33.3765C70.3397 33.6259 70.3864 33.9336 70.442 34.2968C70.5589 35.0739 70.7279 36.1462 70.9441 37.3253C71.161 38.5042 71.384 39.5664 71.5506 40.3342C71.6279 40.6935 71.6934 40.9977 71.7463 41.2445C71.7913 41.4602 71.8112 41.5806 71.801 41.5833Z" fill="black" fill-opacity="0.85"/>
<path d="M78.631 40.9047C78.5887 40.9056 78.48 37.6096 78.388 33.5438C78.296 29.4765 78.2558 26.1797 78.2981 26.1788C78.3404 26.178 78.4491 29.4733 78.5411 33.5406C78.6327 37.6061 78.673 40.9038 78.631 40.9047Z" fill="black" fill-opacity="0.85"/>
<path d="M85.5036 34.1323C85.5438 34.1449 85.0696 35.793 84.4443 37.8129C83.8187 39.8336 83.279 41.4611 83.2387 41.4488C83.1985 41.4364 83.6727 39.7886 84.2983 37.7676C84.9236 35.7475 85.463 34.1196 85.5036 34.1323Z" fill="black" fill-opacity="0.85"/>
<path d="M88.3116 42.6493C88.3066 42.6476 88.3195 42.5997 88.3486 42.5103C88.385 42.4049 88.4294 42.277 88.4826 42.1228C88.6007 41.7866 88.7835 41.305 89.0118 40.7106C89.4711 39.5229 90.1316 37.8927 90.8832 36.1018C91.6349 34.31 92.3333 32.696 92.8484 31.5318C93.1023 30.9679 93.3112 30.5034 93.4672 30.1569C93.5372 30.0094 93.5953 29.8872 93.6432 29.7867C93.685 29.7027 93.7093 29.6598 93.7143 29.6618C93.7193 29.6639 93.7044 29.7112 93.6714 29.799C93.6309 29.9028 93.5815 30.0288 93.5219 30.1807C93.3773 30.5322 93.1834 31.0029 92.948 31.5747C92.4473 32.7688 91.7715 34.3802 91.0246 36.1612C90.2821 37.943 89.6103 39.5555 89.1126 40.7509C88.8772 41.3224 88.6833 41.7931 88.5384 42.1442C88.4744 42.2944 88.4215 42.419 88.3777 42.5215C88.3389 42.607 88.3163 42.6511 88.3116 42.6493Z" fill="black" fill-opacity="0.85"/>
<path d="M91.9852 44.565C91.9764 44.5591 92.0366 44.4531 92.1527 44.2659C92.2685 44.0784 92.443 43.8119 92.6637 43.4861C93.105 42.834 93.7385 41.9493 94.4772 41.0017C95.2168 40.0541 95.9209 39.2243 96.4456 38.6375C96.708 38.3439 96.924 38.11 97.0777 37.952C97.2308 37.7936 97.3192 37.7095 97.3272 37.7166C97.3351 37.7236 97.2616 37.8212 97.1223 37.9913C96.9613 38.1856 96.7627 38.425 96.5279 38.708C96.0249 39.3118 95.3358 40.1504 94.598 41.0957C93.8611 42.041 93.2155 42.9134 92.7521 43.5483C92.535 43.8448 92.3511 44.0961 92.2018 44.2994C92.0707 44.476 91.994 44.5709 91.9852 44.565Z" fill="black" fill-opacity="0.85"/>
<path d="M97.3284 48.9445C97.2996 48.9137 99.6244 46.7037 102.52 44.0095C105.417 41.3145 107.789 39.1554 107.817 39.1862C107.846 39.2171 105.522 41.4264 102.625 44.1215C99.7287 46.816 97.3572 48.9754 97.3284 48.9445Z" fill="black" fill-opacity="0.85"/>
<path d="M106.66 49.8572C106.669 49.8784 106.325 50.0508 105.774 50.3397C105.223 50.6276 104.471 51.0431 103.643 51.5083C102.814 51.9737 102.051 52.3762 101.485 52.6401C101.202 52.772 100.971 52.8746 100.809 52.9386C100.647 53.0039 100.555 53.0353 100.551 53.0256C100.542 53.0048 100.886 52.832 101.437 52.5431C101.988 52.2552 102.739 51.8397 103.568 51.3743C104.397 50.9091 105.16 50.5066 105.725 50.2424C106.008 50.1105 106.239 50.0079 106.402 49.9439C106.564 49.8789 106.655 49.8475 106.66 49.8572Z" fill="black" fill-opacity="0.85"/>
<path d="M115.301 53.441C115.315 53.481 112.548 54.4915 109.121 55.698C105.693 56.9048 102.903 57.8506 102.889 57.811C102.875 57.771 105.642 56.7608 109.07 55.5537C112.497 54.3472 115.287 53.4011 115.301 53.441Z" fill="black" fill-opacity="0.85"/>
<path d="M118.049 69.1513C118.045 69.1933 115.037 68.9415 111.332 68.5889C107.625 68.236 104.625 67.916 104.629 67.874C104.633 67.8319 107.64 68.0838 111.346 68.4367C115.052 68.7893 118.052 69.1092 118.049 69.1513Z" fill="black" fill-opacity="0.85"/>
<path d="M115.839 83.2427C115.821 83.2809 113.009 81.9903 109.559 80.3604C106.108 78.73 103.326 77.378 103.344 77.3398C103.362 77.3016 106.173 78.5918 109.624 80.2223C113.074 81.8519 115.857 83.2045 115.839 83.2427Z" fill="black" fill-opacity="0.85"/>
<path d="M106.589 96.6498C106.557 96.6771 104.529 94.3247 102.06 91.3963C99.59 88.4671 97.6146 86.0711 97.6469 86.0438C97.6792 86.0165 99.7069 88.3683 102.177 91.2976C104.646 94.2262 106.621 96.6228 106.589 96.6498Z" fill="black" fill-opacity="0.85"/>
<path d="M98.8701 98.4212C98.8613 98.4268 98.7743 98.3089 98.625 98.0909C98.4752 97.8729 98.2648 97.5535 98.0094 97.1556C97.4987 96.3602 96.8138 95.2475 96.0927 93.9981C95.3717 92.7481 94.7514 91.5983 94.3183 90.7579C94.1017 90.3378 93.9304 89.9957 93.8167 89.7569C93.7027 89.5183 93.6439 89.3843 93.6533 89.3793C93.6627 89.3746 93.7391 89.4995 93.8693 89.7292C94.0121 89.9858 94.1949 90.314 94.4135 90.7068C94.8707 91.5334 95.5054 92.6732 96.2253 93.9217C96.9454 95.1693 97.6145 96.2891 98.1014 97.0986C98.3321 97.4847 98.5248 97.8071 98.6753 98.0589C98.809 98.2869 98.8789 98.4156 98.8701 98.4212Z" fill="black" fill-opacity="0.85"/>
<path d="M94.0734 105.164C94.0687 105.166 94.0426 105.125 93.997 105.043C93.9447 104.946 93.8813 104.827 93.8049 104.684C93.6397 104.372 93.4123 103.913 93.142 103.342C92.6004 102.199 91.9046 100.594 91.2426 98.7801C90.5824 96.9651 90.0823 95.2884 89.7617 94.0652C89.601 93.4534 89.4799 92.9563 89.4053 92.6107C89.3721 92.4523 89.3444 92.3207 89.3215 92.2123C89.3039 92.1209 89.2974 92.0721 89.3024 92.0709C89.3077 92.0698 89.3242 92.1159 89.3515 92.2049C89.3821 92.3116 89.4188 92.4406 89.4631 92.5963C89.5648 92.9595 89.7009 93.4461 89.866 94.0364C90.2127 95.2502 90.7275 96.9175 91.3863 98.7275C92.0465 100.537 92.7247 102.144 93.2401 103.296C93.4937 103.855 93.7023 104.315 93.8583 104.658C93.9244 104.806 93.9794 104.929 94.0246 105.03C94.0611 105.115 94.0781 105.162 94.0734 105.164Z" fill="black" fill-opacity="0.85"/>
<path d="M84.359 100.437C84.3364 100.438 84.3002 100.046 84.2321 99.4137C84.1642 98.7817 84.0575 97.9104 83.898 96.9546C83.7375 95.9984 83.5548 95.1399 83.4134 94.5202C83.2721 93.9005 83.1787 93.5176 83.2004 93.5114C83.2107 93.5085 83.2465 93.6007 83.303 93.77C83.36 93.9392 83.434 94.1864 83.5183 94.494C83.6873 95.109 83.8877 95.9688 84.049 96.9293C84.2091 97.8899 84.2994 98.7678 84.3399 99.4043C84.3605 99.7225 84.371 99.9805 84.3719 100.159C84.3734 100.338 84.3696 100.436 84.359 100.437Z" fill="black" fill-opacity="0.85"/>
<path d="M78.0038 108.895C77.9985 108.895 77.9941 108.843 77.9909 108.744C77.9891 108.628 77.9867 108.486 77.9841 108.312C77.9803 107.937 77.9826 107.394 77.995 106.724C78.0173 105.383 78.0787 103.53 78.1863 101.487C78.2923 99.4421 78.424 97.5936 78.5321 96.2567C78.5867 95.5882 78.6355 95.0478 78.6737 94.6747C78.6931 94.5028 78.709 94.3608 78.7219 94.2454C78.7345 94.1472 78.7443 94.0961 78.7495 94.0967C78.7548 94.097 78.7557 94.1493 78.7528 94.248C78.7475 94.3641 78.741 94.5066 78.7331 94.6797C78.7099 95.0769 78.6781 95.6129 78.6399 96.2649C78.5618 97.6245 78.456 99.463 78.3391 101.495C78.2318 103.538 78.1533 105.388 78.1031 106.727C78.0787 107.38 78.0584 107.916 78.0437 108.314C78.0349 108.487 78.0279 108.629 78.022 108.746C78.0152 108.843 78.0091 108.895 78.0038 108.895Z" fill="black" fill-opacity="0.85"/>
<path d="M72.8324 94.096C72.8526 94.0998 72.8209 94.3863 72.7442 94.8459C72.6678 95.3051 72.5441 95.9369 72.3822 96.6285C72.22 97.3205 72.0502 97.9414 71.9144 98.3869C71.779 98.8326 71.6799 99.1032 71.6603 99.0977C71.6394 99.0918 71.7017 98.8103 71.8101 98.3587C71.9312 97.8541 72.0746 97.2556 72.2332 96.5939C72.3851 95.9307 72.5224 95.331 72.6381 94.825C72.7416 94.3719 72.8109 94.0922 72.8324 94.096Z" fill="black" fill-opacity="0.85"/>
<path d="M63.4971 89.6085C63.5309 89.6341 62.9553 90.4498 62.2116 91.4303C61.4679 92.4111 60.8376 93.1851 60.8041 93.1595C60.7704 93.134 61.346 92.3186 62.09 91.3377C62.8331 90.3572 63.4634 89.583 63.4971 89.6085Z" fill="black" fill-opacity="0.85"/>
<path d="M58.5966 86.3162C58.6284 86.3441 56.8051 88.4853 54.5244 91.0981C52.243 93.712 50.3681 95.8077 50.3363 95.7797C50.3046 95.7518 52.1276 93.6112 54.4092 90.9976C56.6896 88.3845 58.5646 86.2883 58.5966 86.3162Z" fill="black" fill-opacity="0.85"/>
<path d="M56.1452 82.6723C56.172 82.7049 55.1576 83.5853 53.8795 84.6387C52.601 85.6924 51.5432 86.5198 51.5161 86.4872C51.4894 86.4546 52.5034 85.5742 53.7819 84.5205C55.0601 83.4671 56.1182 82.6397 56.1452 82.6723Z" fill="black" fill-opacity="0.85"/>
<path d="M53.2742 77.1732C53.2927 77.2114 50.7528 78.4732 47.6023 79.9914C44.4506 81.5102 41.8816 82.7103 41.8634 82.6721C41.8452 82.6339 44.3842 81.3724 47.5359 79.8536C50.6864 78.3354 53.256 77.1353 53.2742 77.1732Z" fill="black" fill-opacity="0.85"/>
<path d="M52.1246 74.4306C52.1267 74.4409 52.0326 74.4682 51.8607 74.5087C51.6891 74.5499 51.4391 74.6013 51.1288 74.6586C50.5085 74.7738 49.6458 74.9045 48.6876 75.0009C47.7288 75.0964 46.8573 75.139 46.2264 75.1493C45.9109 75.1546 45.6558 75.1537 45.4792 75.1472C45.3029 75.1417 45.2054 75.1334 45.2051 75.1229C45.2048 75.1005 45.5941 75.0791 46.222 75.0412C46.8503 75.0033 47.7171 74.9439 48.672 74.8487C49.6267 74.7529 50.4879 74.6392 51.1112 74.5519C51.7347 74.4647 52.1205 74.4085 52.1246 74.4306Z" fill="black" fill-opacity="0.85"/>
<path d="M51.1875 68.0998C51.1866 68.1104 51.0036 68.1057 50.6733 68.0886C50.318 68.0704 49.8467 68.046 49.2758 68.0169C48.0961 67.9596 46.465 67.9059 44.6632 67.9147C42.8608 67.925 41.2303 67.9964 40.0511 68.0663C39.4808 68.1018 39.0098 68.1309 38.6545 68.153C38.3249 68.1738 38.1418 68.1803 38.1406 68.1697C38.1397 68.1591 38.3207 68.1327 38.6493 68.0936C38.9778 68.0536 39.4541 68.0066 40.0435 67.9582C41.2224 67.8606 42.8558 67.7719 44.662 67.7613C46.4676 67.7522 48.1019 67.8236 49.2817 67.9085C49.8717 67.9505 50.3486 67.9925 50.6774 68.029C51.0071 68.0648 51.1884 68.0892 51.1875 68.0998Z" fill="black" fill-opacity="0.85"/>
<path d="M51.7683 62.5396C51.7569 62.5804 49.8543 62.085 47.5192 61.4333C45.1832 60.7815 43.2994 60.2203 43.3106 60.1795C43.3221 60.1386 45.2243 60.634 47.5603 61.2858C49.8954 61.9375 51.7798 62.499 51.7683 62.5396Z" fill="black" fill-opacity="0.85"/>
<path d="M52.9981 57.8779C52.9963 57.8828 52.9487 57.872 52.8594 57.8467C52.7533 57.8147 52.6252 57.7756 52.4707 57.7289C52.1336 57.6249 51.6506 57.4603 51.0579 57.2446C49.8726 56.8142 48.2568 56.1551 46.5287 55.3053C44.8013 54.4532 43.2936 53.574 42.2296 52.8968C41.6975 52.5586 41.2726 52.2759 40.9847 52.0723C40.8533 51.9782 40.7446 51.9004 40.6544 51.836C40.5798 51.7808 40.5421 51.7493 40.5451 51.7449C40.548 51.7405 40.5915 51.7631 40.6714 51.8104C40.7657 51.8683 40.8798 51.9383 41.0173 52.0226C41.3149 52.2109 41.748 52.4792 42.2863 52.8048C43.3627 53.4571 44.8739 54.3186 46.596 55.1678C48.3188 56.0149 49.9228 56.6878 51.0958 57.1433C51.6823 57.3716 52.1589 57.5514 52.4898 57.6725C52.6405 57.7301 52.7654 57.7779 52.8688 57.8173C52.9555 57.8523 52.9999 57.8729 52.9981 57.8779Z" fill="black" fill-opacity="0.85"/>
<path d="M55.7637 53.1916C55.7393 53.2263 54.2519 52.2205 52.4416 50.9459C50.6307 49.6706 49.1829 48.6093 49.2073 48.5746C49.2317 48.5399 50.7188 49.5454 52.5297 50.8207C54.3401 52.0956 55.7881 53.1573 55.7637 53.1916Z" fill="black" fill-opacity="0.85"/>
<path d="M49.9182 38.9088C49.9218 38.905 49.96 38.9332 50.0296 38.9902C50.1116 39.0604 50.21 39.1447 50.3284 39.2461C50.6026 39.4891 50.9678 39.8129 51.4106 40.2052C52.3389 41.0335 53.5885 42.1483 54.9698 43.3807C56.357 44.6071 57.6117 45.717 58.5438 46.5409C58.9857 46.9343 59.3503 47.2587 59.6239 47.5023C59.7385 47.6078 59.8337 47.6956 59.913 47.7688C59.978 47.8311 60.0106 47.8658 60.0071 47.8696C60.0035 47.8737 59.9645 47.847 59.8928 47.7923C59.8084 47.725 59.7068 47.6445 59.5848 47.5475C59.3192 47.3325 58.9393 47.0169 58.4727 46.6228C57.5394 45.8351 56.2615 44.7329 54.8679 43.4953C53.4748 42.2576 52.2295 41.1193 51.3372 40.2854C50.8911 39.8685 50.5324 39.5282 50.2876 39.2902C50.1768 39.1806 50.0848 39.0892 50.0082 39.0131C49.9459 38.9485 49.9147 38.9126 49.9182 38.9088Z" fill="black" fill-opacity="0.85"/>
<path d="M59.0849 39.176C59.0931 39.1692 59.1639 39.2421 59.2847 39.3793C59.4057 39.5162 59.575 39.7196 59.7795 39.9746C60.1885 40.4844 60.7327 41.2061 61.296 42.0294C61.8593 42.8533 62.3344 43.6223 62.6611 44.1885C62.8248 44.4715 62.9526 44.703 63.0364 44.8655C63.1204 45.028 63.1627 45.1203 63.1536 45.1252C63.1342 45.1364 62.9185 44.7947 62.5689 44.2446C62.2192 43.694 61.7311 42.9371 61.1699 42.1158C60.6084 41.2951 60.0801 40.5658 59.6937 40.0404C59.3076 39.5148 59.0675 39.1901 59.0849 39.176Z" fill="black" fill-opacity="0.85"/>
<g opacity="0.2">
<path d="M47.3398 36.6776L60.1226 47.87L63.3001 45.3275L55.8822 33.9611C55.8822 33.9611 55.3139 34.3792 53.8368 34.8011C52.4061 35.2102 48.1931 35.3195 47.3398 36.6776Z" fill="white" fill-opacity="0.85"/>
</g>
<g opacity="0.2">
<path d="M61.5703 27.2096L67.8128 42.8334L71.8011 41.5837L70.472 28.0329C70.472 28.0329 69.7851 28.1937 68.2612 28C66.785 27.8123 63.2017 26.4113 61.5703 27.2096Z" fill="white" fill-opacity="0.85"/>
</g>
<g opacity="0.3">
<path d="M78.2129 23.938L78.6316 40.9046L82.3707 41.0841L86.1561 28.0622C86.0842 28.0558 85.1072 27.8868 83.955 27.1505C82.6601 26.3233 80.0238 23.8031 78.2129 23.938Z" fill="black" fill-opacity="0.85"/>
</g>
<g opacity="0.2">
<path d="M94.5137 27.1433L88.3105 42.7847L91.6879 44.3994L100.224 33.8621C100.16 33.8284 99.3511 33.1546 98.603 31.956C97.7897 30.6523 96.4034 27.6655 94.5137 27.1433Z" fill="white" fill-opacity="0.85"/>
</g>
<g opacity="0.2">
<path d="M109.082 36.9041L97.5273 48.9445L100.103 52.4147L111.392 44.8799C111.392 44.8799 110.917 44.1283 110.649 42.6817C110.377 41.2184 110.338 38.5522 109.082 36.9041Z" fill="white" fill-opacity="0.85"/>
</g>
<g opacity="0.2">
<path d="M118.201 50.4963L102.643 56.8999L103.933 60.8749L117.47 59.406C117.47 59.406 117.385 58.9876 117.563 57.4617C117.735 55.9834 119.288 52.6819 118.201 50.4963Z" fill="white" fill-opacity="0.85"/>
</g>
<g opacity="0.2">
<path d="M121.647 67.4462L104.686 68.04L104.545 71.7805L117.484 75.566C117.49 75.4937 117.605 74.763 117.997 74.0216C118.95 72.2201 121.647 69.6802 121.647 67.4462Z" fill="white" fill-opacity="0.85"/>
</g>
<g opacity="0.2">
<path d="M118.523 83.4848L102.906 77.3977L101.326 80.7915L111.951 89.2184C111.984 89.1541 112.605 88.579 113.795 87.8186C115.091 86.9917 118.164 85.6559 118.523 83.4848Z" fill="white" fill-opacity="0.85"/>
</g>
<g opacity="0.2">
<path d="M95.5509 83.2428L91.6855 86.487C91.9782 86.7932 97.1303 95.5489 100.304 100.962C100.348 100.93 100.389 100.893 100.434 100.862C102.525 99.4625 106.244 100.024 108.341 98.6395L95.5509 83.2428Z" fill="white" fill-opacity="0.85"/>
<path d="M88.4473 89.3792L82.6758 91.347L85.4085 107.015C85.5886 106.953 85.7696 106.901 85.9518 106.865C88.6733 106.326 92.2607 108.696 94.7647 107.657C95.1091 107.514 95.4203 107.31 95.7106 107.066L88.4473 89.3792Z" fill="white" fill-opacity="0.85"/>
<path d="M77.9074 110.951L78.8298 90.4825L73.8399 89.2184L70.127 106.842C70.1728 106.849 70.2189 106.856 70.2645 106.864C72.8423 107.374 75.1977 110.788 77.9074 110.951Z" fill="white" fill-opacity="0.85"/>
<path d="M65.3635 87.0076C65.3635 87.0076 58.7695 95.8394 55.3223 100.596C55.4836 100.676 55.6387 100.764 55.7854 100.862C58.0499 102.378 58.9065 106.601 61.4543 107.657C61.5713 107.706 61.6911 107.744 61.8125 107.779L71.0239 90.3429L65.3635 87.0076Z" fill="white" fill-opacity="0.85"/>
<path d="M58.5962 79.8962L44.5332 89.562C44.587 89.6316 44.6457 89.6986 44.6942 89.7712C46.2219 92.0531 45.4071 96.2799 47.3417 98.2145C47.5197 98.3926 47.7225 98.5407 47.9361 98.6761C52.9054 93.0748 61.8263 83.0215 62.1495 82.6721L58.5962 79.8962Z" fill="white" fill-opacity="0.85"/>
<path d="M55.3721 72.9955L38.7455 75.6808C39.0102 78.3477 36.9081 81.7165 37.8975 84.1022C37.958 84.2482 38.0315 84.3869 38.1117 84.5223C43.9302 81.6254 56.0873 75.5992 56.593 75.5659L55.3721 72.9955Z" fill="white" fill-opacity="0.85"/>
<path d="M54.4648 63.7341L38.7473 59.1981C38.7341 59.3348 38.7167 59.4702 38.6903 59.603C38.1679 62.2443 34.5957 64.6517 34.5957 67.4464C34.5957 67.6338 34.613 67.8195 34.643 68.0038H53.8284L54.4648 63.7341Z" fill="white" fill-opacity="0.85"/>
<path d="M37.9609 50.6649C43.8341 53.8127 55.3201 60.1798 55.3201 60.1798L58.1468 54.8118L44.8693 44.8152C44.8126 44.9189 44.7573 45.0241 44.6921 45.1211C43.2021 47.3469 39.1037 48.2163 37.9609 50.6649Z" fill="white" fill-opacity="0.85"/>
</g>
<path d="M121.626 67.4462C121.626 67.4462 121.618 67.3836 121.607 67.2602C121.591 67.1374 121.597 66.9502 121.529 66.7136C121.437 66.2341 121.169 65.5451 120.649 64.7438C120.144 63.9319 119.38 63.026 118.582 61.8762C118.193 61.2983 117.789 60.6457 117.573 59.8623C117.358 59.0778 117.399 58.1945 117.568 57.3039C117.73 56.408 117.997 55.4853 118.231 54.5066C118.447 53.5331 118.679 52.4697 118.462 51.3875C118.347 50.853 118.093 50.3432 117.732 49.9004C117.367 49.4591 116.909 49.0882 116.425 48.7406C115.45 48.0486 114.33 47.4945 113.256 46.7725C112.723 46.4099 112.193 46.0062 111.757 45.4908C111.316 44.9769 111.031 44.336 110.839 43.6731C110.461 42.3371 110.378 40.907 110.09 39.4787C109.944 38.7679 109.746 38.0453 109.367 37.4048C108.995 36.7589 108.394 36.2594 107.693 35.9567C106.993 35.6462 106.224 35.4851 105.446 35.3561C104.666 35.228 103.869 35.1372 103.068 34.995C102.269 34.8516 101.451 34.6624 100.712 34.2534C99.9688 33.8473 99.3878 33.1944 98.901 32.4992C98.4132 31.7984 97.9939 31.0462 97.5473 30.3036C97.1 29.5635 96.6299 28.8192 96.0199 28.1866C95.4108 27.5598 94.5983 27.1088 93.7024 27.05C92.8103 26.9836 91.9065 27.1543 91.0156 27.3656C90.1223 27.5801 89.2282 27.841 88.3017 28.015C87.3832 28.1942 86.3953 28.2574 85.4642 27.9618C84.5468 27.6433 83.7379 27.087 82.9569 26.5141C82.1747 25.9384 81.4104 25.3252 80.5724 24.8163C79.7388 24.3238 78.7871 23.9133 77.7971 24.0244L77.6135 24.0385C77.5529 24.0488 77.493 24.0646 77.4328 24.0773C77.3129 24.1058 77.1909 24.1278 77.0722 24.1613C76.8395 24.2471 76.6006 24.3168 76.3785 24.4328C75.9222 24.6356 75.4973 24.9103 75.0759 25.1889C74.2391 25.7595 73.4501 26.4147 72.593 26.9968C72.169 27.2939 71.715 27.5545 71.2408 27.7787C70.761 27.995 70.2397 28.1254 69.7105 28.1654C68.6468 28.2174 67.601 27.9774 66.5762 27.7188C65.5486 27.4614 64.5208 27.1664 63.4606 27.0647C62.9317 27.0203 62.3961 27.0427 61.883 27.1708C61.3662 27.2951 60.9078 27.5886 60.5011 27.93C59.6907 28.6373 59.1242 29.5887 58.5609 30.5243C57.9991 31.4652 57.4655 32.4463 56.7192 33.2908C56.3428 33.7054 55.9073 34.0835 55.3972 34.3395C54.8874 34.5898 54.3438 34.7573 53.7937 34.8872C52.6892 35.1296 51.5609 35.2333 50.449 35.4346C49.3495 35.6344 48.2053 35.947 47.3899 36.7372C46.9976 37.14 46.7229 37.6442 46.5213 38.174C46.3153 38.7047 46.1972 39.2691 46.0929 39.8348C45.8869 40.9684 45.792 42.1326 45.5173 43.2771C45.3865 43.8492 45.1899 44.4157 44.892 44.9325C44.5935 45.4491 44.1797 45.8972 43.7143 46.2651C42.7858 47.0114 41.7297 47.5638 40.721 48.1815C40.218 48.4926 39.7211 48.8164 39.2639 49.1905C38.8137 49.5698 38.4047 50.0053 38.1244 50.5195C37.8403 51.0308 37.7104 51.6208 37.7151 52.2129C37.713 52.8053 37.8018 53.3985 37.9213 53.9859C38.1699 55.1603 38.5428 56.3172 38.7417 57.5248C38.8455 58.1263 38.8828 58.7487 38.8023 59.3634C38.7232 59.9801 38.4849 60.5663 38.1884 61.1055C37.5764 62.1795 36.7772 63.1209 36.0687 64.1208C35.7108 64.6183 35.3806 65.1369 35.1211 65.6888C34.8634 66.2388 34.6809 66.8318 34.6765 67.4394C34.6803 68.0471 34.8587 68.6409 35.1155 69.1919C35.3732 69.7449 35.7044 70.2632 36.0617 70.7612C36.7695 71.762 37.5699 72.7029 38.1829 73.7769C38.4802 74.3158 38.72 74.9011 38.8014 75.5181C38.884 76.1328 38.8472 76.7558 38.7435 77.3575C38.546 78.5658 38.1723 79.7232 37.9237 80.898C37.8041 81.4853 37.7142 82.0786 37.7151 82.6712C37.7086 83.2636 37.8394 83.8536 38.1212 84.3661C38.4 84.8812 38.8087 85.3175 39.2586 85.6975C39.7161 86.0712 40.2121 86.3962 40.7154 86.7074C41.7247 87.3253 42.7808 87.878 43.7102 88.6235C44.1753 88.9917 44.5902 89.4386 44.8897 89.9548C45.1888 90.4714 45.3851 91.0382 45.5164 91.61C45.792 92.7545 45.8866 93.9193 46.0923 95.0529C46.1963 95.6188 46.3147 96.1833 46.5204 96.7142C46.722 97.244 46.9953 97.7494 47.3881 98.1523C48.2026 98.9438 49.3471 99.2568 50.4467 99.4569C51.5588 99.6584 52.6874 99.7622 53.7923 100.004C54.3426 100.134 54.8859 100.301 55.396 100.551C55.9061 100.808 56.3419 101.186 56.7186 101.6C57.4652 102.445 57.9988 103.426 58.5609 104.367C59.1245 105.302 59.691 106.254 60.5014 106.962C60.9081 107.303 61.3665 107.597 61.8836 107.721C62.3966 107.849 62.9326 107.872 63.4615 107.827C64.5217 107.725 65.5498 107.43 66.5773 107.173C67.6025 106.914 68.6483 106.674 69.7123 106.727C70.2415 106.767 70.7627 106.898 71.2425 107.114C71.7168 107.338 72.1708 107.599 72.5948 107.896C73.4519 108.479 74.2408 109.134 75.078 109.704C75.4993 109.983 75.9242 110.258 76.3808 110.46C76.603 110.576 76.8422 110.646 77.0749 110.732C77.1939 110.765 77.3155 110.787 77.4354 110.816C77.4957 110.828 77.5556 110.844 77.6161 110.854L77.7998 110.869C78.79 110.979 79.7414 110.568 80.575 110.075C81.4131 109.566 82.1773 108.953 82.9595 108.377C83.7408 107.804 84.5495 107.248 85.4674 106.93C86.3989 106.635 87.3864 106.699 88.3053 106.878C89.2317 107.052 90.1259 107.313 91.0191 107.528C91.9103 107.739 92.8142 107.909 93.7062 107.843C94.6019 107.782 95.4143 107.331 96.0228 106.704C96.6325 106.071 97.1027 105.326 97.5496 104.586C97.9962 103.844 98.4155 103.092 98.9033 102.391C99.3908 101.696 99.972 101.043 100.716 100.638C101.455 100.229 102.274 100.041 103.072 99.8973C103.873 99.7551 104.67 99.6643 105.45 99.5362C106.228 99.4069 106.997 99.2459 107.697 98.9347C108.398 98.6315 108.999 98.1311 109.369 97.485C109.748 96.8441 109.946 96.1219 110.092 95.4108C110.379 93.9824 110.462 92.552 110.84 91.2166C111.033 90.5537 111.319 89.9131 111.76 89.3995C112.196 88.8844 112.726 88.481 113.26 88.1187C114.333 87.397 115.454 86.8425 116.429 86.1506C116.912 85.8029 117.37 85.4315 117.735 84.9905C118.095 84.5474 118.348 84.0373 118.463 83.5028C118.589 82.968 118.556 82.4224 118.508 81.9017C118.457 81.3778 118.339 80.8747 118.231 80.384C117.997 79.4056 117.73 78.4829 117.568 77.5873C117.399 76.6967 117.359 75.8134 117.574 75.0292C117.79 74.2461 118.195 73.5935 118.584 73.0155C119.381 71.866 120.146 70.9604 120.65 70.1486C121.17 69.3473 121.438 68.6585 121.53 68.179C121.598 67.9425 121.592 67.7553 121.608 67.6328C121.618 67.5088 121.626 67.4462 121.626 67.4462C121.626 67.4462 121.623 67.5088 121.615 67.6325C121.602 67.7556 121.61 67.9436 121.545 68.1816C121.458 68.6641 121.192 69.3585 120.676 70.1644C120.174 70.981 119.412 71.8916 118.621 73.0405C118.235 73.6179 117.835 74.2687 117.624 75.0421C117.414 75.8161 117.456 76.6896 117.626 77.5761C117.79 78.4674 118.058 79.3879 118.295 80.3682C118.405 80.8603 118.523 81.3649 118.577 81.8935C118.626 82.4188 118.661 82.9707 118.534 83.5172C118.418 84.0631 118.159 84.5868 117.793 85.0381C117.423 85.4877 116.961 85.8638 116.474 86.2146C115.493 86.9128 114.373 87.4696 113.307 88.1889C112.777 88.5497 112.253 88.9502 111.827 89.4556C111.397 89.9584 111.117 90.5848 110.928 91.2412C110.555 92.5632 110.473 93.9915 110.187 95.4296C110.041 96.1457 109.842 96.8779 109.455 97.5355C109.076 98.199 108.453 98.7191 107.738 99.0282C107.025 99.3464 106.248 99.5092 105.467 99.6399C104.684 99.7698 103.887 99.8615 103.09 100.004C102.297 100.147 101.489 100.335 100.769 100.734C100.047 101.129 99.4786 101.766 98.9959 102.455C98.5131 103.15 98.0953 103.901 97.6483 104.645C97.2005 105.388 96.728 106.14 96.1066 106.786C95.4889 107.428 94.6383 107.901 93.7165 107.963C92.8004 108.032 91.8859 107.858 90.9903 107.647C90.0933 107.432 89.2 107.173 88.2823 107.001C87.3706 106.824 86.4068 106.765 85.5068 107.051C84.6144 107.36 83.8137 107.909 83.0359 108.481C82.2564 109.056 81.4906 109.671 80.6423 110.188C80.4237 110.306 80.2151 110.443 79.9844 110.541C79.8707 110.593 79.7591 110.65 79.6433 110.698L79.2878 110.824C78.8088 110.969 78.2964 111.067 77.7874 111.001L77.5964 110.986C77.5336 110.976 77.4719 110.959 77.4096 110.946C77.2856 110.917 77.1595 110.894 77.0367 110.859C76.7978 110.772 76.5513 110.7 76.3247 110.582C75.8578 110.375 75.4279 110.097 75.0022 109.816C74.1583 109.241 73.3679 108.585 72.5181 108.009C72.0973 107.714 71.6504 107.459 71.1864 107.239C70.7175 107.028 70.2171 106.904 69.7031 106.864C68.6688 106.814 67.6337 107.05 66.6111 107.308C65.5862 107.565 64.5534 107.864 63.4733 107.968C62.9338 108.013 62.3814 107.992 61.8466 107.858C61.3065 107.728 60.827 107.422 60.408 107.07C59.5726 106.34 59.0031 105.378 58.4369 104.44C57.8742 103.498 57.3412 102.522 56.6104 101.697C56.2414 101.292 55.8224 100.929 55.3296 100.681C54.8351 100.439 54.3024 100.275 53.7597 100.147C52.6681 99.9076 51.5412 99.8039 50.4196 99.6014C49.8608 99.4933 49.2966 99.3778 48.7583 99.1648C48.2212 98.9571 47.7028 98.6691 47.2823 98.2563C46.8704 97.834 46.5874 97.3092 46.3806 96.7662C46.1699 96.2215 46.0503 95.6497 45.9451 95.079C45.7377 93.9363 45.6425 92.7736 45.3701 91.645C45.2405 91.0805 45.0477 90.5278 44.7592 90.0301C44.4706 89.5329 44.0719 89.1015 43.6144 88.7395C42.7026 88.0079 41.6504 87.4561 40.6358 86.8358C40.1292 86.5225 39.6276 86.1946 39.161 85.8135C38.7018 85.4257 38.2787 84.9761 37.9869 84.4375C37.6916 83.9015 37.5558 83.2804 37.5626 82.6724C37.5614 82.0627 37.6534 81.4595 37.7741 80.8662C38.0254 79.6812 38.398 78.5249 38.5925 77.3331C38.6947 76.7393 38.7291 76.1317 38.6498 75.5387C38.5716 74.9451 38.3412 74.3807 38.0492 73.8509C37.4474 72.7957 36.6499 71.8566 35.9368 70.8491C35.5771 70.3478 35.241 69.8221 34.9768 69.2559C34.7138 68.6917 34.5273 68.0759 34.5234 67.4388C34.5281 66.8015 34.7185 66.1868 34.9824 65.6238C35.248 65.0588 35.5836 64.5331 35.9438 64.0324C36.6576 63.026 37.4539 62.0866 38.0547 61.0312C38.3459 60.5011 38.5748 59.9363 38.6509 59.3428C38.7285 58.7501 38.6935 58.1425 38.591 57.5489C38.3953 56.3577 38.023 55.2018 37.7724 54.017C37.6519 53.4238 37.5608 52.8205 37.5632 52.2111C37.5579 51.6035 37.693 50.982 37.9907 50.4472C38.2839 49.9098 38.7077 49.4608 39.1672 49.0738C39.6335 48.6924 40.1357 48.3654 40.642 48.0525C41.656 47.4322 42.7082 46.8806 43.6191 46.1484C44.0766 45.7867 44.4745 45.3545 44.7621 44.857C45.0495 44.3587 45.2425 43.8063 45.3715 43.2418C45.643 42.1135 45.7385 40.9511 45.946 39.8086C46.0515 39.2383 46.1711 38.6665 46.382 38.122C46.5889 37.579 46.873 37.0551 47.2847 36.6329C47.7058 36.2206 48.2244 35.9335 48.7615 35.7261C49.2998 35.5136 49.8637 35.3979 50.4226 35.29C51.5438 35.0876 52.6701 34.9841 53.7617 34.7447C54.3044 34.6169 54.8368 34.4523 55.3311 34.2099C55.8238 33.9625 56.2423 33.5993 56.6113 33.1941C57.3418 32.369 57.8748 31.3932 58.4372 30.4512C59.0031 29.5135 59.5729 28.5521 60.408 27.8225C60.827 27.4705 61.3065 27.1643 61.8466 27.0341C62.3811 26.9007 62.9335 26.8793 63.473 26.9245C64.5528 27.0288 65.5856 27.3271 66.6102 27.5839C67.6328 27.8428 68.6677 28.0784 69.702 28.0282C70.2156 27.9888 70.716 27.8645 71.185 27.6538C71.6486 27.4346 72.0956 27.179 72.5166 26.8843C73.3664 26.3078 74.1565 25.6525 75.0004 25.0778C75.4259 24.7966 75.8558 24.5189 76.3227 24.3118C76.5492 24.1936 76.7954 24.1214 77.0343 24.0338C77.1569 23.9991 77.2829 23.9762 77.4069 23.9468C77.4692 23.9336 77.5312 23.9174 77.5938 23.9069L77.7848 23.8919C78.2937 23.8252 78.8062 23.923 79.2851 24.0679L79.6407 24.1939C79.7567 24.2412 79.8681 24.2985 79.9821 24.3502C80.2127 24.4487 80.4217 24.5853 80.64 24.7034C81.4886 25.2197 82.254 25.8353 83.0336 26.4097C83.8111 26.9818 84.6118 27.5307 85.5038 27.8407C86.4036 28.1269 87.3673 28.069 88.2791 27.8916C89.1968 27.72 90.09 27.4605 90.9871 27.2454C91.8824 27.0344 92.7968 26.8605 93.713 26.9292C94.6348 26.9889 95.4854 27.4623 96.1039 28.1028C96.7257 28.7493 97.1985 29.5006 97.6463 30.2434C98.0932 30.9883 98.511 31.7387 98.9935 32.4334C99.4757 33.1233 100.044 33.7606 100.766 34.1555C101.485 34.5549 102.293 34.7444 103.086 34.8875C103.883 35.0297 104.68 35.1214 105.463 35.2509C106.244 35.3817 107.021 35.5442 107.735 35.8618C108.449 36.1704 109.073 36.6899 109.453 37.3528C109.841 38.0101 110.039 38.7423 110.185 39.4581C110.472 40.8961 110.554 42.3242 110.926 43.6467C111.116 44.3031 111.395 44.9299 111.824 45.4329C112.251 45.9386 112.774 46.3394 113.304 46.7005C114.369 47.4201 115.49 47.9767 116.471 48.6748C116.957 49.0257 117.42 49.4012 117.79 49.851C118.157 50.3021 118.416 50.8254 118.533 51.3713C118.66 51.9179 118.625 52.47 118.576 52.9954C118.523 53.524 118.404 54.0288 118.294 54.5207C118.058 55.5012 117.789 56.4218 117.626 57.313C117.455 58.1995 117.413 59.0731 117.623 59.8473C117.834 60.621 118.234 61.2718 118.619 61.8495C119.41 62.9987 120.173 63.9093 120.674 64.7261C121.191 65.5321 121.457 66.2268 121.544 66.7092C121.609 66.9473 121.601 67.1353 121.614 67.2584C121.624 67.3836 121.626 67.4462 121.626 67.4462Z" fill="black" fill-opacity="0.85"/>
<path d="M69.9454 107.825C69.9863 107.836 68.9017 112.233 67.5231 117.646C66.1441 123.06 64.9931 127.44 64.9523 127.429C64.9114 127.419 65.9957 123.022 67.3747 117.608C68.7533 112.196 69.9046 107.815 69.9454 107.825Z" fill="black" fill-opacity="0.85"/>
<path d="M78.1087 94.1193C92.8399 94.1193 104.782 82.1773 104.782 67.4461C104.782 52.7149 92.8399 40.7729 78.1087 40.7729C63.3775 40.7729 51.4355 52.7149 51.4355 67.4461C51.4355 82.1773 63.3775 94.1193 78.1087 94.1193Z" fill="white"/>
<path d="M61.6824 58.2038C61.3145 58.5716 59.2917 62.2493 59.1078 65.2834C58.9238 68.3176 59.3599 85.3577 59.3599 85.3577L59.4386 86.4869C64.2408 92.1024 81.6934 100.458 97.4145 86.4587L98.2954 75.9781L95.7014 53.7907L86.691 51.584L84.578 48.1593L70.4959 51.4561L69.2401 54.4253L61.6824 58.2038Z" fill="black" fill-opacity="0.85"/>
<path d="M83.607 39.2377C84.227 36.9325 84.837 34.6109 85.0515 32.2335C85.2657 29.8561 85.0674 27.3996 84.1218 25.2079C83.9784 24.8756 82.7881 22.6586 82.4302 22.7124C82.1743 22.7512 82.9447 24.8368 82.8263 25.0669C81.6956 27.261 81.4905 29.8402 81.8152 32.2867C82.1399 34.7338 82.7649 36.9178 83.607 39.2377Z" fill="black" fill-opacity="0.85"/>
<path d="M83.3615 30.1308C83.2478 24.1454 79.6697 19.2227 73.6899 19.5022L73.1387 19.5601C67.5925 20.1448 63.423 24.8888 63.5599 30.4643C63.6871 35.6514 63.8946 41.3812 64.2196 44.137C64.8922 49.8418 70.6995 50.128 70.6995 50.128C70.7125 50.1275 70.9657 53.88 70.9657 53.88L73.4199 56.546L84.7945 49.5007L83.3615 30.1308Z" fill="#FFBF9D"/>
<path d="M70.6992 50.1714C70.6992 50.1714 74.3222 50.003 77.9052 47.1884C77.9052 47.1884 76.7052 52.3628 70.9507 52.4492L70.6992 50.1714Z" fill="#EDC16A"/>
<path d="M66.8222 35.1156C66.8521 35.5478 67.2435 35.879 67.6955 35.8558C68.1468 35.8326 68.4891 35.4641 68.4588 35.0316C68.4286 34.5993 68.0378 34.2676 67.5864 34.2908C67.1342 34.314 66.7919 34.6834 66.8222 35.1156Z" fill="black" fill-opacity="0.85"/>
<path d="M65.035 32.707C65.1473 32.8028 65.717 32.28 66.5953 32.1898C67.4709 32.087 68.1629 32.4707 68.247 32.3532C68.2887 32.3009 68.1653 32.1196 67.8635 31.9448C67.5658 31.7705 67.074 31.6224 66.5274 31.6824C65.9812 31.7432 65.5422 31.9927 65.2995 32.2269C65.0512 32.4625 64.9801 32.6647 65.035 32.707Z" fill="black" fill-opacity="0.85"/>
<path d="M74.6151 34.4586C74.6454 34.8908 75.0365 35.222 75.4887 35.1988C75.94 35.1756 76.2823 34.8071 76.2521 34.3746C76.2218 33.9423 75.8307 33.6109 75.3794 33.6338C74.9272 33.6573 74.5851 34.0264 74.6151 34.4586Z" fill="black" fill-opacity="0.85"/>
<path d="M73.6538 32.1544C73.7664 32.2499 74.337 31.7274 75.2147 31.6372C76.0903 31.5347 76.7823 31.9181 76.8663 31.8006C76.9078 31.748 76.7858 31.567 76.4826 31.3925C76.1852 31.2179 75.693 31.0698 75.1465 31.1298C74.6 31.1906 74.1613 31.4403 73.9186 31.6742C73.6712 31.9099 73.5995 32.1121 73.6538 32.1544Z" fill="black" fill-opacity="0.85"/>
<path d="M71.2344 39.2317C71.2333 39.1815 70.6776 39.1444 69.7814 39.1247C69.5549 39.1253 69.338 39.103 69.284 38.954C69.214 38.7977 69.2825 38.5462 69.3636 38.2738C69.5173 37.7093 69.678 37.1173 69.8464 36.497C70.511 33.9697 70.9668 31.9011 70.8648 31.8752C70.7625 31.8494 70.1414 33.8769 69.477 36.4041C69.3186 37.0268 69.167 37.6203 69.023 38.1883C68.9652 38.4519 68.8497 38.7563 68.9995 39.0804C69.0774 39.2417 69.2549 39.3457 69.4027 39.3695C69.5511 39.398 69.6774 39.3874 69.7891 39.3821C70.6841 39.336 71.2365 39.2819 71.2344 39.2317Z" fill="black" fill-opacity="0.85"/>
<path d="M73.8925 39.5666C73.7488 39.5734 73.8473 40.5266 73.103 41.2888C72.3605 42.0531 71.3335 42.0531 71.34 42.1871C71.3332 42.2482 71.5856 42.3484 72.0158 42.3149C72.4377 42.2849 73.0378 42.0848 73.4932 41.6188C73.9469 41.1513 74.1026 40.5757 74.0938 40.1813C74.0882 39.7791 73.9569 39.5543 73.8925 39.5666Z" fill="black" fill-opacity="0.85"/>
<path d="M73.3423 28.5878C73.4539 28.8175 74.3187 28.6119 75.3615 28.6274C76.4049 28.6221 77.2673 28.836 77.3813 28.6077C77.4313 28.499 77.2629 28.2895 76.9027 28.0938C76.5456 27.8981 75.9915 27.7348 75.3656 27.7312C74.7403 27.7289 74.1844 27.8867 73.8253 28.0788C73.4636 28.2707 73.2932 28.4785 73.3423 28.5878Z" fill="black" fill-opacity="0.85"/>
<path d="M65.0807 29.7495C65.2562 29.9326 65.8391 29.662 66.5652 29.5756C67.288 29.4639 67.9221 29.568 68.042 29.3443C68.0934 29.2368 67.9753 29.0473 67.6865 28.8868C67.4014 28.7267 66.9416 28.6198 66.4435 28.6876C65.9455 28.7561 65.5318 28.9823 65.3002 29.2136C65.0652 29.4451 65.0026 29.6593 65.0807 29.7495Z" fill="black" fill-opacity="0.85"/>
<path d="M83.3457 34.4092C83.4386 34.3569 87.1485 32.8346 87.4353 36.7532C87.7221 40.6718 83.7289 40.1514 83.7139 40.0397C83.6989 39.9278 83.3457 34.4092 83.3457 34.4092Z" fill="#FFBF9D"/>
<path d="M84.8077 38.4677C84.8239 38.4539 84.8797 38.5103 84.9987 38.5547C85.1151 38.5982 85.3111 38.6193 85.5097 38.528C85.9125 38.3458 86.2131 37.6632 86.1802 36.9554C86.1641 36.598 86.0645 36.264 85.9175 35.9922C85.7768 35.7142 85.5767 35.5276 85.3657 35.5056C85.1547 35.473 85.0163 35.6084 84.9767 35.7221C84.9323 35.8355 84.9629 35.9119 84.9423 35.9202C84.932 35.9307 84.8536 35.8608 84.873 35.6966C84.8835 35.6175 84.9226 35.5217 85.0093 35.4398C85.0977 35.3566 85.2332 35.3072 85.3795 35.3125C85.6833 35.3113 85.9757 35.5693 86.137 35.8679C86.3154 36.1667 86.4356 36.5413 86.4538 36.943C86.4864 37.7343 86.1361 38.503 85.5817 38.7081C85.3113 38.8003 85.0754 38.7339 84.9499 38.6502C84.8215 38.5617 84.7945 38.4757 84.8077 38.4677Z" fill="#EDC16A"/>
<path d="M65.6857 23.8049C65.0287 23.4958 66.8008 21.3182 68.3147 20.5101C70.6028 19.289 74.1593 18.3989 76.3722 18.8755C79.0361 19.4488 81.2937 20.6109 82.7605 22.9075C84.2273 25.2042 84.8996 27.9471 84.9983 30.6704C85.0283 31.5013 84.998 32.3717 84.6002 33.1016C84.1083 34.0036 83.0925 34.6175 83.2156 35.8101C83.2606 36.2462 83.1642 36.6952 82.8854 37.0334C82.2172 37.8429 81.2934 37.182 80.8435 36.4892C79.8827 35.0088 79.6688 33.1815 79.4798 31.427C79.3452 30.18 79.2124 28.9059 79.4878 27.6821C79.6373 27.0162 79.9059 26.3789 80.0184 25.7057C80.131 25.0326 80.0625 24.2812 79.6147 23.7661C79.5418 23.6824 79.4237 23.5784 79.2753 23.4644C78.1023 22.5626 76.5291 22.3713 75.169 22.9534C73.0113 23.8766 69.3158 25.2861 68.2826 24.6C66.7964 23.6133 66.4124 22.9322 66.4124 22.9322L65.6857 23.8049Z" fill="black" fill-opacity="0.85"/>
<path d="M61.6847 58.2039C61.4576 58.5183 58.2456 59.5843 57.0274 61.6141C55.8092 63.6439 54.6036 72.759 54.6036 72.759L53.8281 78.7594C55.3561 81.1765 57.4053 84.3764 59.5799 86.6333L61.6847 58.2039Z" fill="black" fill-opacity="0.85"/>
<g opacity="0.3">
<path d="M85.8145 67.0042C85.9496 68.2271 86.0877 69.4635 86.5085 70.6198C86.9293 71.776 87.6668 72.862 88.7434 73.4574C89.1944 73.7068 89.7031 73.8714 90.0804 74.2222C90.4858 74.5992 90.6901 75.146 91.0571 75.5606C91.484 76.0428 92.0987 76.3114 92.7058 76.5262C94.5023 77.1623 96.272 77.4662 98.177 77.3977C98.2346 76.7689 98.2387 74.4587 98.2963 73.8299L85.8145 67.0042Z" fill="black" fill-opacity="0.85"/>
</g>
<path d="M95.704 53.7903C95.704 53.7903 99.754 54.988 100.94 56.7131C102.126 58.4385 104.229 65.1244 104.66 66.3644C105.091 67.6044 104.714 70.4798 103.905 72.547C103.097 74.6138 101.693 76.3933 99.2677 76.6627C96.842 76.9322 93.0113 75.5303 92.1498 74.6138C91.2886 73.697 90.9277 71.6399 90.9277 71.6399C92.0046 71.4507 93.068 71.1839 94.1067 70.8424" fill="black" fill-opacity="0.85"/>
<path d="M94.1049 70.8424C94.1055 70.8441 94.0885 70.8515 94.0544 70.8644C94.0141 70.8788 93.9645 70.8967 93.9016 70.9194C93.7658 70.9658 93.5634 71.0331 93.2963 71.1136C92.7621 71.2737 91.9684 71.4906 90.933 71.6792L90.9656 71.6328C91.0564 72.0909 91.1871 72.5936 91.379 73.1187C91.4754 73.3808 91.5865 73.6503 91.7296 73.9133C91.8729 74.1745 92.0404 74.4401 92.2723 74.652C92.5044 74.8629 92.7912 75.0345 93.0915 75.192C93.3903 75.3542 93.7124 75.4938 94.0444 75.6298C94.7108 75.8984 95.4316 76.1297 96.1959 76.311C96.9601 76.4878 97.772 76.6189 98.6124 76.6215C98.8227 76.6309 99.0325 76.6027 99.245 76.5922C99.4545 76.5575 99.669 76.5384 99.8764 76.4793C100.297 76.3841 100.709 76.2272 101.093 76.0074C101.868 75.577 102.525 74.9091 103.023 74.1231C103.529 73.3388 103.898 72.4488 104.171 71.5188C104.382 70.8045 104.537 70.0822 104.638 69.3641C104.741 68.6466 104.791 67.9296 104.744 67.2332C104.717 66.8824 104.652 66.5536 104.533 66.2274C104.424 65.8983 104.316 65.5725 104.209 65.2498C103.993 64.6057 103.783 63.9752 103.577 63.3599C103.16 62.1316 102.749 60.9695 102.336 59.8932C101.917 58.8222 101.525 57.8146 101.034 56.9737C100.795 56.5508 100.467 56.2191 100.12 55.9505C99.7792 55.6743 99.4257 55.4542 99.0898 55.26C98.4143 54.876 97.8002 54.6036 97.2951 54.392C96.7888 54.1822 96.3889 54.0359 96.1165 53.9395C95.9861 53.8937 95.8835 53.8575 95.8065 53.8305C95.7369 53.8058 95.701 53.7926 95.7019 53.79C95.7025 53.7876 95.7398 53.7955 95.8112 53.8155C95.8894 53.839 95.9937 53.8705 96.1262 53.9101C96.4021 53.9971 96.8062 54.1346 97.3171 54.3368C97.8272 54.5404 98.4472 54.8057 99.1319 55.1854C99.4724 55.3775 99.8312 55.5962 100.18 55.8741C100.533 56.1415 100.879 56.4862 101.127 56.9172C101.632 57.77 102.028 58.7743 102.455 59.8471C102.873 60.924 103.29 62.0861 103.71 63.314C103.918 63.929 104.13 64.5596 104.347 65.2034C104.455 65.5254 104.564 65.8507 104.674 66.1792C104.793 66.5051 104.867 66.8671 104.893 67.2212C104.942 67.9349 104.892 68.6598 104.789 69.3853C104.687 70.1113 104.531 70.84 104.317 71.5623C104.042 72.5026 103.667 73.4055 103.151 74.2053C102.642 75.0066 101.966 75.6939 101.165 76.1364C100.769 76.3624 100.342 76.5234 99.9099 76.6204C99.6957 76.6803 99.4756 76.7 99.2603 76.7347C99.0425 76.7452 98.8266 76.7732 98.6124 76.7632C97.7552 76.7579 96.9357 76.6218 96.165 76.4405C95.3943 76.2545 94.6694 76.018 93.998 75.7436C93.6633 75.6043 93.3389 75.4615 93.0362 75.2952C92.7321 75.1327 92.4421 74.9581 92.1968 74.7328C91.9526 74.5059 91.783 74.2306 91.6382 73.9623C91.4939 73.692 91.384 73.4181 91.2885 73.1519C91.099 72.6183 90.9729 72.1126 90.8863 71.6472L90.8789 71.6075L90.9189 71.6008C91.9529 71.4242 92.7474 71.2203 93.2842 71.0733C93.5458 70.9987 93.7488 70.9408 93.8948 70.8994C93.9589 70.8809 94.0097 70.8665 94.0509 70.8547C94.0864 70.8447 94.1043 70.8406 94.1049 70.8424Z" fill="black" fill-opacity="0.85"/>
<path d="M101.537 68.6777C101.507 68.6847 101.415 68.179 101.074 67.4333C100.742 66.6884 100.145 65.7041 99.247 64.839C98.7998 64.4044 98.3026 64.0742 97.8269 63.8279C97.7046 63.7733 97.5853 63.7198 97.469 63.6678C97.3532 63.6143 97.231 63.592 97.1178 63.5538C96.8922 63.4712 96.67 63.4515 96.4694 63.4198C96.4194 63.4121 96.3703 63.4045 96.3221 63.3972C96.2742 63.3974 96.2272 63.3974 96.1811 63.3974C96.0909 63.3974 96.0045 63.3974 95.9222 63.3977C95.7592 63.3878 95.6222 63.4174 95.5091 63.4336C95.2828 63.4665 95.155 63.4803 95.1524 63.47C95.1497 63.4597 95.2723 63.4265 95.4991 63.3748C95.6125 63.3493 95.7512 63.3105 95.9175 63.3122C96.0019 63.3084 96.0903 63.3043 96.1829 63.3002C96.2302 63.2984 96.2786 63.2964 96.328 63.2943C96.3777 63.3002 96.4282 63.3058 96.4799 63.3119C96.6874 63.3372 96.9177 63.3522 97.1522 63.4315C97.2695 63.468 97.397 63.4894 97.5169 63.542C97.6376 63.5937 97.7616 63.6466 97.8886 63.701C98.3822 63.9469 98.8958 64.2839 99.3525 64.7279C100.27 65.6121 100.862 66.6235 101.174 67.3898C101.254 67.5814 101.323 67.7559 101.367 67.9152C101.415 68.073 101.461 68.2069 101.48 68.3221C101.526 68.5498 101.547 68.6756 101.537 68.6777Z" fill="black" fill-opacity="0.85"/>
<path d="M103.744 65.0446C103.711 65.0575 103.601 64.5242 103.134 63.8113C102.676 63.1105 101.801 62.2308 100.553 61.8579C99.3096 61.4794 98.1029 61.5964 97.2601 61.6772C96.8591 61.7251 96.5217 61.7656 96.2532 61.7977C96.0152 61.8268 95.8826 61.8388 95.8809 61.8282C95.8791 61.8179 96.0084 61.7862 96.2438 61.7389C96.4791 61.6922 96.8211 61.6293 97.2469 61.5699C98.0902 61.4621 99.3143 61.3225 100.598 61.7119C101.235 61.9055 101.794 62.2314 102.231 62.604C102.673 62.973 102.996 63.3864 103.225 63.7534C103.453 64.1225 103.584 64.4507 103.657 64.6808C103.731 64.9103 103.752 65.0428 103.744 65.0446Z" fill="black" fill-opacity="0.85"/>
<path d="M100.691 60.697C100.681 60.7469 99.6251 60.407 98.2843 60.4666C96.9424 60.5122 95.9172 60.9341 95.9025 60.885C95.8957 60.8686 96.1411 60.7422 96.5657 60.6071C96.9891 60.4713 97.5967 60.3414 98.2781 60.3135C98.9595 60.2877 99.5751 60.3697 100.008 60.4716C100.442 60.5733 100.697 60.6802 100.691 60.697Z" fill="black" fill-opacity="0.85"/>
<path d="M94.1389 54.8012C94.163 54.805 94.1045 55.2143 94.0572 55.8778C94.0099 56.541 93.9878 57.4616 94.0789 58.4712C94.1621 59.4423 94.3378 60.3126 94.4929 60.9458L94.3869 60.9799C94.2667 60.6403 94.1721 60.3646 94.1101 60.1728C94.0481 59.9809 94.0187 59.8728 94.029 59.8689C94.0392 59.8651 94.0883 59.9656 94.1679 60.151C94.2476 60.3364 94.3581 60.6062 94.4912 60.9409L94.3851 60.9749C94.2035 60.3438 94.0102 59.4664 93.9264 58.485C93.8344 57.4645 93.8741 56.5339 93.9493 55.8684C93.9864 55.5355 94.0298 55.2675 94.066 55.0838C94.103 54.8999 94.1286 54.7994 94.1389 54.8012Z" fill="black" fill-opacity="0.85"/>
<path d="M88.4155 47.2623C88.4155 47.2623 86.3134 47.2623 86.0498 49.7884C85.8474 51.7274 86.0498 53.6101 86.0498 54.4592C86.0498 55.3084 85.6758 58.3282 85.6758 58.3282C85.6758 58.3282 84.2415 59.6005 84.2659 61.1287C84.2903 62.6643 85.3825 63.1338 85.3825 63.1338C85.3825 63.1338 84.7152 64.5898 85.989 65.9241C85.989 65.9241 85.3781 67.3327 85.8803 68.2812C86.269 69.0155 87.1414 69.2606 87.1414 69.2606C87.1414 69.2606 86.5199 70.6487 88.0115 71.2322C88.893 71.5772 90.1961 71.5005 90.1961 71.5005L91.7646 71.4702L93.1471 72.233C93.1471 72.233 95.5128 71.2017 95.5736 69.8065C95.6341 68.4114 95.6341 68.4114 95.6341 68.4114C95.6341 68.4114 94.9668 66.1063 94.9063 65.3784C94.8458 64.6506 95.4522 62.8914 95.0882 62.1028C94.7241 61.3141 93.4503 60.8507 93.5717 59.748C93.6931 58.6452 93.4503 58.0384 92.9044 57.432C92.3585 56.8255 89.9455 55.6122 89.9455 55.6122C89.9455 55.6122 89.3252 53.8531 89.3252 52.6398C89.3255 51.4263 90.5387 47.726 88.4155 47.2623Z" fill="#FFBF9D"/>
<path d="M89.8318 56.072C89.8424 56.0902 89.6191 56.2333 89.25 56.4495C88.8807 56.6658 88.3653 56.9552 87.7914 57.267C87.2173 57.5788 86.6934 57.8535 86.3108 58.0454C85.9282 58.2372 85.6861 58.3468 85.6761 58.3283C85.6661 58.3098 85.8894 58.1667 86.2588 57.9505C86.6281 57.7342 87.1432 57.4448 87.7171 57.1333C88.2907 56.8218 88.814 56.5474 89.1968 56.3552C89.5791 56.1633 89.8212 56.0535 89.8318 56.072Z" fill="#EDC16A"/>
<path d="M91.212 60.8212C91.2181 60.8297 91.1526 60.8876 91.0286 60.9854C90.9052 61.0842 90.7186 61.2164 90.4815 61.3701C90.0078 61.678 89.3185 62.0544 88.5116 62.3644C87.7039 62.6726 86.939 62.8528 86.381 62.94C86.1019 62.9841 85.8747 63.0103 85.717 63.0191C85.5595 63.0294 85.4719 63.03 85.4707 63.0194C85.4681 62.995 85.813 62.948 86.3613 62.8337C86.9096 62.7202 87.6595 62.526 88.457 62.2216C89.2536 61.9157 89.9414 61.5596 90.4254 61.2778C90.9093 60.9966 91.1976 60.8015 91.212 60.8212Z" fill="#EDC16A"/>
<path d="M93.0148 59.3108C93.053 59.324 92.9743 59.5938 92.7251 59.8189C92.4777 60.046 92.2018 60.0992 92.1921 60.0601C92.1774 60.0184 92.4022 59.9091 92.622 59.7057C92.8447 59.5062 92.9746 59.2923 93.0148 59.3108Z" fill="#EDC16A"/>
<path d="M92.151 64.982C92.1572 64.9999 91.8251 65.1348 91.2716 65.3037C90.7183 65.473 89.9408 65.6678 89.0681 65.8088C88.1948 65.9487 87.3953 66.0075 86.817 66.0204C86.2384 66.0336 85.8809 66.0098 85.8809 65.9907C85.8809 65.9675 86.2376 65.9531 86.8117 65.9123C87.3859 65.872 88.1772 65.7965 89.0437 65.6578C89.9096 65.5179 90.6848 65.3413 91.2425 65.1994C91.8005 65.0581 92.1437 64.9599 92.151 64.982Z" fill="#EDC16A"/>
<path d="M94.0691 64.6324C94.0483 64.6198 94.1406 64.4594 94.2305 64.1826C94.3213 63.9075 94.3974 63.5062 94.3454 63.0689C94.2931 62.6314 94.1244 62.2591 93.9713 62.0135C93.8185 61.7655 93.6913 61.6315 93.7086 61.6142C93.7204 61.6006 93.8773 61.7088 94.0609 61.9527C94.2443 62.1933 94.4414 62.5832 94.4973 63.051C94.5531 63.5185 94.4532 63.944 94.3318 64.2208C94.2108 64.5008 94.0838 64.6427 94.0691 64.6324Z" fill="#EDC16A"/>
<path d="M92.2627 69.2351C92.2665 69.2539 91.9838 69.3336 91.5158 69.4114C91.0483 69.4896 90.3936 69.5572 89.6687 69.5557C88.9435 69.5531 88.2895 69.482 87.8223 69.4011C87.3548 69.3206 87.0724 69.2392 87.0762 69.2207C87.0806 69.1981 87.3698 69.2416 87.8372 69.2939C88.3047 69.3468 88.9521 69.4 89.669 69.4026C90.3857 69.4041 91.0333 69.3544 91.5011 69.3042C91.9689 69.2542 92.2583 69.2122 92.2627 69.2351Z" fill="#EDC16A"/>
<path d="M88.5295 52.6744C88.538 52.6906 88.4343 52.7696 88.238 52.8398C88.0429 52.9104 87.7511 52.9597 87.4329 52.9224C87.1147 52.8839 86.8426 52.7676 86.6695 52.6533C86.495 52.5389 86.4127 52.4379 86.425 52.4241C86.4515 52.3859 86.8514 52.7053 87.4511 52.7705C88.0488 52.8481 88.5127 52.6312 88.5295 52.6744Z" fill="#EDC16A"/>
<path d="M94.5067 64.8102C94.5158 64.8093 94.5331 64.8892 94.5405 65.037C94.5449 65.1848 94.5258 65.3996 94.4676 65.6567C94.4109 65.9138 94.3139 66.2106 94.2214 66.5385C94.1332 66.865 94.0474 67.2346 94.1115 67.6084C94.162 67.9801 94.4403 68.2819 94.4841 68.6594C94.5337 69.0308 94.3871 69.3452 94.2531 69.5683C94.1132 69.7948 93.9728 69.9552 93.8738 70.0628C93.7736 70.1697 93.7125 70.2229 93.7048 70.2165C93.6813 70.1985 93.9067 69.9588 94.1591 69.5148C94.2769 69.2935 94.3962 69 94.3445 68.6797C94.3089 68.3606 94.0274 68.0597 93.9604 67.6348C93.8899 67.2185 93.9892 66.8294 94.0856 66.4992C94.1876 66.1674 94.2939 65.878 94.3624 65.63C94.5093 65.1349 94.4805 64.812 94.5067 64.8102Z" fill="#EDC16A"/>
<path d="M95.2976 66.6562C95.3076 66.6538 95.3434 66.7517 95.396 66.9321C95.4486 67.1128 95.5192 67.3758 95.5856 67.7066C95.6499 68.0375 95.7151 68.4362 95.726 68.8861C95.7351 69.3324 95.691 69.8449 95.4604 70.3256C95.2239 70.7992 94.8833 71.1704 94.5571 71.4759C94.2266 71.7795 93.9022 72.0184 93.6239 72.2085C93.3451 72.3977 93.1118 72.5385 92.9475 72.6304C92.7835 72.7227 92.6892 72.7674 92.6839 72.7585C92.671 72.7377 93.0233 72.5164 93.5613 72.1203C93.829 71.9208 94.1425 71.6758 94.4608 71.3731C94.7749 71.069 95.1001 70.7049 95.3229 70.2586C95.5383 69.8105 95.5867 69.3227 95.5853 68.8876C95.5826 68.4497 95.5297 68.0551 95.4795 67.7254C95.3711 67.0667 95.2732 66.662 95.2976 66.6562Z" fill="black" fill-opacity="0.85"/>
<path d="M73.1239 56.8757C73.1172 56.8836 72.9964 56.7928 72.7837 56.6212C72.5512 56.4288 72.2521 56.1814 71.8933 55.8843C71.7047 55.725 71.5008 55.5532 71.2833 55.3698C71.1743 55.2775 71.0636 55.1832 70.9369 55.1209C70.8114 55.0586 70.6695 55.0425 70.5435 55.1074C70.2899 55.2399 70.1206 55.5655 69.9041 55.8355C69.6949 56.1176 69.4783 56.4091 69.2568 56.7079C68.9015 57.1834 68.5598 57.64 68.2448 58.0613L68.0547 58.3155L68.1149 58.0046C68.3215 56.9415 68.6092 56.0544 68.8463 55.4412C68.9647 55.1341 69.069 54.8944 69.1448 54.7322C69.2212 54.5703 69.2673 54.4848 69.275 54.488C69.2829 54.4915 69.2515 54.5832 69.1895 54.7507C69.1278 54.9182 69.0373 55.1621 68.9312 55.4718C68.7193 56.0903 68.4522 56.9759 68.2577 58.0314L68.1281 57.9747C68.4411 57.5518 68.7808 57.0937 69.1339 56.6165C69.3564 56.3186 69.5735 56.0274 69.7839 55.7459C69.8894 55.6055 69.9931 55.4674 70.0948 55.3322C70.1997 55.1973 70.3172 55.0598 70.4832 54.9802C70.6498 54.895 70.8535 54.9232 70.9969 55.0005C71.1444 55.076 71.2593 55.1797 71.3668 55.274C71.5798 55.4624 71.7796 55.639 71.9645 55.8026C72.3103 56.1144 72.5988 56.3741 72.823 56.5763C73.0231 56.7614 73.1307 56.8678 73.1239 56.8757Z" fill="black" fill-opacity="0.85"/>
<path d="M85.5313 54.3908C85.5342 54.3949 85.4949 54.4302 85.4164 54.4933C85.3236 54.5656 85.209 54.6549 85.0694 54.764C84.7465 55.007 84.3087 55.3363 83.7748 55.738C82.6555 56.5619 81.137 57.6794 79.4516 58.92L79.386 58.9682L79.342 58.8991C79.3082 58.8459 79.2715 58.7886 79.235 58.7313C78.4387 57.4743 77.6947 56.3001 77.0653 55.3064L77.1447 55.3319C76.1071 55.7445 75.2917 56.1967 74.7364 56.5328C74.4584 56.7012 74.2445 56.8405 74.0982 56.9348C73.9524 57.03 73.8734 57.0791 73.8693 57.0735C73.8655 57.0682 73.9366 57.008 74.0753 56.9022C74.2148 56.797 74.4226 56.6474 74.6961 56.4685C75.2424 56.1118 76.0542 55.6393 77.0959 55.2106L77.1458 55.19L77.1752 55.2362C77.8102 56.2261 78.5607 57.3964 79.364 58.6488C79.4007 58.7063 79.4372 58.7636 79.471 58.8168L79.3614 58.7963C81.0574 57.5701 82.5853 56.4656 83.7116 55.6513C84.2569 55.2658 84.7045 54.9494 85.0344 54.7161C85.1808 54.6165 85.3007 54.5345 85.3979 54.4684C85.4828 54.4137 85.5284 54.3867 85.5313 54.3908Z" fill="black" fill-opacity="0.85"/>
<path d="M59.161 66.0764C59.1663 66.0764 59.1716 66.1478 59.1771 66.2839C59.1813 66.4352 59.1865 66.6326 59.1933 66.8786C59.2033 67.4128 59.2171 68.1553 59.2341 69.0656C59.2691 70.9121 59.3429 73.462 59.4387 76.2787C59.5342 79.0963 59.5912 81.6491 59.5985 83.4967C59.6014 84.4206 59.5997 85.1681 59.5909 85.6846C59.5856 85.9306 59.5815 86.128 59.5782 86.2794C59.5735 86.4154 59.5688 86.4868 59.5635 86.4868C59.5582 86.4868 59.553 86.4154 59.5474 86.2794C59.5433 86.128 59.538 85.9306 59.5312 85.6846C59.5212 85.1504 59.5074 84.4079 59.4904 83.4979C59.4554 81.6514 59.3817 79.1013 59.2859 76.2837C59.1904 73.467 59.1337 70.9147 59.1263 69.0668C59.1234 68.143 59.1251 67.3951 59.134 66.8786C59.1392 66.6326 59.1434 66.4349 59.1466 66.2836C59.151 66.1478 59.1557 66.0764 59.161 66.0764Z" fill="black" fill-opacity="0.85"/>
<path d="M73.22 92.618C73.2173 92.6183 73.2124 92.5895 73.205 92.5334C73.1977 92.4687 73.1883 92.3865 73.1768 92.2839C73.1542 92.0533 73.1227 91.7318 73.0828 91.3231C73.0011 90.4886 72.9071 89.2786 72.8136 87.7821C72.7172 86.2856 72.6391 84.5017 72.5882 82.5195C72.5453 80.5373 72.5345 78.357 72.5812 76.0692C72.6338 73.7808 72.7396 71.6026 72.8686 69.6236C73.0055 67.6452 73.1609 65.8661 73.3222 64.3755C73.4809 62.8845 73.6272 61.6798 73.7451 60.8497C73.803 60.4431 73.8482 60.1234 73.8808 59.8939C73.897 59.7919 73.9099 59.7102 73.9199 59.6459C73.9296 59.5901 73.9358 59.5618 73.9384 59.5621C73.9411 59.5624 73.9399 59.5915 73.9355 59.6479C73.9293 59.7129 73.9214 59.7951 73.9114 59.898C73.8855 60.1281 73.8497 60.4492 73.8041 60.8571C73.7045 61.6892 73.5747 62.8951 73.4298 64.3863C73.2826 65.8775 73.1383 67.6558 73.009 69.6328C72.888 71.6103 72.7866 73.7864 72.734 76.0724C72.6873 78.3579 72.694 80.5358 72.729 82.5163C72.7722 84.4967 72.8389 86.2797 72.9212 87.7756C73.0008 89.2718 73.0784 90.4821 73.1418 91.3181C73.1697 91.7277 73.1915 92.05 73.2074 92.2813C73.2126 92.3844 73.2171 92.467 73.2206 92.5322C73.2229 92.5886 73.2226 92.6177 73.22 92.618Z" fill="black" fill-opacity="0.85"/>
<path d="M64.4676 44.5209C64.4676 44.5209 64.3639 44.5935 64.1573 44.7289C63.9481 44.865 63.6408 45.0648 63.2388 45.326C62.8354 45.5887 62.3688 45.9607 61.799 46.3735C61.5184 46.5857 61.2366 46.8401 60.924 47.0978C60.7688 47.2283 60.609 47.3629 60.4438 47.5015C60.2814 47.6432 60.1253 47.8018 59.9587 47.9582C58.6232 49.2014 57.1062 50.8704 55.7087 53.06C55.5374 53.3356 55.3631 53.6157 55.186 53.9007C55.0017 54.1816 54.8589 54.4928 54.6894 54.7948C54.5292 55.1019 54.3509 55.406 54.1984 55.7289C54.05 56.0539 53.8995 56.3839 53.7467 56.7183C53.6724 56.8863 53.589 57.0521 53.5205 57.2254C53.4541 57.3997 53.3874 57.5754 53.3201 57.752C53.1876 58.1061 53.0454 58.4622 52.9155 58.828C52.6981 59.5735 52.4236 60.3242 52.2596 61.1249C51.8524 62.7066 51.6279 64.4112 51.5371 66.1889C51.4346 67.968 51.5406 69.8301 51.8462 71.7239C52.4647 75.5049 53.9565 79.4423 56.4923 82.9422C58.9952 86.4526 62.5327 89.5062 66.781 91.5131C71.0198 93.5323 75.9804 94.405 80.9341 93.8917C85.8953 93.3777 90.5423 91.4249 94.2646 88.5703C95.2031 87.8642 96.0646 87.0791 96.8926 86.2781C97.0918 86.0701 97.2905 85.8626 97.4888 85.6555C97.6895 85.4507 97.8831 85.2403 98.0665 85.0217C98.2534 84.8063 98.4397 84.5912 98.6257 84.3767C98.8014 84.1537 98.9765 83.9312 99.151 83.7097C100.548 81.9332 101.65 79.9956 102.52 78.024C103.39 76.0482 103.965 74.0084 104.319 71.9968C104.501 70.9907 104.602 69.987 104.668 68.9976C104.7 68.5028 104.699 68.0104 104.716 67.5229C104.707 67.0354 104.68 66.5518 104.663 66.0722C104.654 65.8325 104.645 65.5939 104.635 65.3561C104.621 65.119 104.582 64.8845 104.557 64.6504C104.5 64.1823 104.444 63.7183 104.389 63.2588C104.316 62.8018 104.211 62.3546 104.125 61.9086C104.033 61.4637 103.956 61.0194 103.818 60.5951C103.695 60.167 103.573 59.7433 103.452 59.3237C103.398 59.1119 103.324 58.9082 103.245 58.7069C103.169 58.5048 103.093 58.3038 103.018 58.1037C102.862 57.7064 102.734 57.3021 102.558 56.9231C102.381 56.5446 102.206 56.1706 102.034 55.8009C100.615 52.8564 98.7932 50.4766 96.964 48.6399C95.1284 46.799 93.2817 45.5082 91.7258 44.5579C91.3297 44.3305 90.9557 44.1154 90.6043 43.9135C90.4315 43.8072 90.2531 43.7252 90.0821 43.6447C89.9111 43.5633 89.7463 43.4848 89.5873 43.409C89.2697 43.2577 88.9767 43.1178 88.7084 42.99C88.4431 42.8554 88.1834 42.779 87.9615 42.6862C87.5146 42.5128 87.1729 42.3806 86.9401 42.2904C86.7104 42.2005 86.5937 42.1505 86.5937 42.1505C86.5937 42.1505 86.7136 42.1905 86.9454 42.2757C87.1796 42.3627 87.5234 42.4905 87.973 42.6577C88.196 42.7482 88.4572 42.8225 88.7237 42.955C88.9935 43.0811 89.2879 43.2189 89.607 43.3682C89.7665 43.4428 89.9323 43.5207 90.1042 43.6009C90.2763 43.6805 90.4553 43.7616 90.6292 43.8671C90.9824 44.0675 91.3585 44.2808 91.7567 44.5068C93.3208 45.4515 95.1775 46.7385 97.0249 48.5796C98.8657 50.4164 100.7 52.8 102.131 55.7536C102.306 56.1244 102.482 56.4997 102.66 56.8793C102.837 57.2598 102.966 57.6653 103.124 58.064C103.2 58.2647 103.276 58.4666 103.353 58.6693C103.433 58.8712 103.507 59.076 103.562 59.2885C103.684 59.7095 103.808 60.135 103.932 60.5649C104.072 60.9909 104.149 61.437 104.242 61.8839C104.33 62.3317 104.436 62.781 104.51 63.2397C104.566 63.7013 104.624 64.1673 104.681 64.6374C104.707 64.8728 104.746 65.1082 104.761 65.3465C104.771 65.5853 104.781 65.8251 104.791 66.0658C104.808 66.5474 104.835 67.0334 104.845 67.5232C104.829 68.013 104.83 68.5078 104.799 69.005C104.734 69.999 104.634 71.0081 104.452 72.0194C104.099 74.0419 103.522 76.0929 102.65 78.0801C101.777 80.0632 100.67 82.0119 99.2671 83.7993C99.0917 84.0223 98.9157 84.2462 98.7391 84.4704C98.5522 84.6861 98.365 84.9024 98.1773 85.1192C97.993 85.3393 97.7985 85.5509 97.5967 85.7568C97.3974 85.9652 97.1976 86.1741 96.9975 86.3833C96.1657 87.1893 95.2995 87.9791 94.3559 88.6896C90.6143 91.5618 85.9402 93.5273 80.9506 94.0442C75.9689 94.5607 70.9796 93.6816 66.7175 91.6491C62.446 89.629 58.8912 86.5561 56.3783 83.0247C53.8323 79.504 52.3375 75.5446 51.7213 71.7444C51.4169 69.841 51.3132 67.9704 51.4193 66.1836C51.5133 64.3982 51.7425 62.687 52.1545 61.0997C52.3211 60.296 52.5981 59.5426 52.8182 58.7951C52.9493 58.4281 53.093 58.0708 53.227 57.7158C53.2948 57.5387 53.3624 57.3627 53.4294 57.1878C53.4985 57.0139 53.5828 56.8479 53.6577 56.6792C53.812 56.3439 53.9639 56.0131 54.1135 55.6875C54.2671 55.3637 54.447 55.059 54.6086 54.7513C54.7796 54.4487 54.9239 54.1369 55.1093 53.8557C55.2879 53.5704 55.4636 53.2898 55.6364 53.0139C57.0453 50.8219 58.5733 49.1544 59.9179 47.915C60.0857 47.7592 60.2429 47.6012 60.4062 47.4601C60.5722 47.322 60.7336 47.188 60.8896 47.0581C61.2043 46.8019 61.4881 46.5486 61.7705 46.338C62.3441 45.9281 62.8142 45.5596 63.2209 45.3007C63.627 45.0448 63.937 44.8491 64.1482 44.7157C64.3583 44.5846 64.4676 44.5209 64.4676 44.5209Z" fill="black" fill-opacity="0.85"/>
</svg>
