<svg width="135" height="59" viewBox="0 0 135 59" fill="none" xmlns="http://www.w3.org/2000/svg">
<g id="Logo" clip-path="url(#clip0_1_1824)">
<path id="Vector" d="M91.5979 35.8024C89.9712 37.0787 88.7465 38.1373 87.4223 39.0522C85.3603 40.4797 83.1434 40.6678 80.8932 39.4911C78.7501 38.3734 77.5771 36.5364 77.5623 34.1498C77.507 25.0719 77.5439 15.9903 77.5181 6.91236C77.5181 6.15249 77.7873 5.99756 78.4845 6.01232C80.4654 6.05658 82.4499 6.09716 84.427 6.00125C85.6037 5.94223 85.9689 6.20782 85.9615 7.48042C85.8951 16.1895 85.9247 24.9022 85.9247 33.6113C85.9247 35.072 86.6784 35.8024 88.1858 35.8024C89.1818 35.8024 90.1814 35.8024 91.5979 35.8024Z" fill="white"/>
<path id="Vector_2" d="M119.54 36.0459C115.645 40.2031 109.219 41.4203 104.236 39.0891C98.566 36.4369 95.5117 31.0403 96.1757 24.8543C96.7917 19.1368 101.192 14.4521 107.316 13.1685C103.454 18.0634 102.605 23.3493 105.427 28.7791C108.289 34.2937 113.181 36.4996 119.536 36.0422L119.54 36.0459Z" fill="white"/>
<path id="Vector_3" d="M76.312 13.8065C70.8527 16.2226 67.6435 20.1991 67.4369 26.0567C67.2082 32.3976 70.4358 36.743 76.1386 39.3804C72.6269 41.1989 65.9577 40.0591 62.1362 35.7175C57.9975 31.0144 57.4884 24.3009 60.8968 19.2215C64.2868 14.1717 70.6129 11.9031 76.3157 13.8065H76.312Z" fill="white"/>
<path id="Vector_4" d="M29.4062 13.1019C32.4347 13.1019 35.2418 13.1277 38.0489 13.0835C38.7571 13.0724 38.9858 13.456 39.2441 13.9725C41.9848 19.4281 44.7402 24.88 47.4994 30.3282C47.6949 30.7156 47.8056 31.0438 47.5806 31.4828C46.1124 34.3342 44.6775 37.204 43.1246 40.2693C38.5284 31.1656 34.0245 22.2426 29.4099 13.0982L29.4062 13.1019Z" fill="white"/>
<path id="Vector_5" d="M21.1876 51.6049C21.1876 50.395 21.1212 49.3732 21.2061 48.3699C21.2872 47.4108 20.9958 47.1305 20.0072 47.1416C15.4 47.1969 10.7891 47.2006 6.18192 47.1526C3.05758 47.1194 0.9255 44.9505 0.936566 41.9442C0.936566 41.0994 1.08411 40.2658 1.57471 39.576C2.44525 38.355 3.38956 37.182 4.57364 35.6401C4.57364 37.1451 4.63635 38.2296 4.5552 39.303C4.48511 40.1883 4.82078 40.3691 5.63968 40.3617C10.2469 40.3285 14.8578 40.3801 19.465 40.3359C21.7299 40.3137 23.4525 41.2175 24.3857 43.2352C25.2858 45.1755 25.0276 47.0973 23.5779 48.772C22.8033 49.6683 22.2131 50.727 21.1913 51.6086L21.1876 51.6049Z" fill="white"/>
<path id="Vector_6" d="M11.7593 13.209C7.48043 17.4953 7.76078 31.4275 11.8921 35.4335C6.89393 36.1122 1.21699 30.723 0.896074 24.9944C0.553023 18.8121 5.88322 13.0282 11.7557 13.209H11.7593Z" fill="white"/>
<path id="Vector_7" d="M13.8363 13.1609C18.8234 13.183 25.3487 17.7792 24.8434 25.2193C24.4782 30.6048 19.1148 35.7432 13.8252 35.4998C18.2 30.7524 17.9676 17.1373 13.8363 13.1646V13.1609Z" fill="white"/>
<path id="Vector_8" d="M123.49 9.84124C118.927 7.08946 114.361 4.33768 109.798 1.5859L109.846 1.30924C111.181 1.24653 112.513 1.18383 113.848 1.12112C120.525 0.803888 127.198 0.48297 133.874 0.176806C134.206 0.162052 134.616 -0.0371391 134.877 0.372308C130.986 3.41181 127.212 6.59517 123.487 9.84124H123.49Z" fill="white"/>
<path id="Vector_9" d="M123.491 9.84101C127.216 6.59862 130.986 3.41526 134.881 0.37207C134.575 3.44477 133.605 6.37361 132.926 9.36516C131.757 14.5072 130.51 19.6309 129.201 25.1566C128.445 23.1868 127.795 21.5601 127.198 19.9112C125.977 16.5471 124.527 13.2678 123.494 9.83732L123.491 9.84101Z" fill="#EDC16A"/>
<path id="Vector_10" d="M5.43681 47.5841C5.43681 48.5284 5.51428 49.4801 5.41837 50.417C5.30402 51.531 5.61756 51.9073 6.81271 51.8778C10.2137 51.7892 13.6184 51.8888 17.0194 51.8187C18.0485 51.7966 18.3879 52.1544 18.4506 53.1208C18.6387 55.9353 16.7575 58.3256 13.9651 58.5765C11.4015 58.8052 8.81937 58.8236 6.25571 58.5691C2.41207 58.1855 0.479179 53.8586 2.6961 50.6863C3.45597 49.5981 4.32651 48.5837 5.14541 47.5361C5.24131 47.5546 5.34091 47.5693 5.43681 47.5878V47.5841Z" fill="white"/>
<path id="Vector_11" d="M110.093 13.1941C117.319 12.9359 122.31 19.8006 119.828 26.3665C119.606 26.9493 119.385 27.2518 118.684 27.2444C114.914 27.2075 111.148 27.226 106.954 27.226C108.5 26.0013 109.758 25.0017 111.023 24.0057C113.516 22.0359 113.911 20.4203 112.742 17.3845C112.144 15.8315 111.167 14.5257 110.093 13.1941Z" fill="white"/>
<path id="Vector_12" d="M50.1038 21.564C47.8242 21.6045 45.8729 19.7159 45.8102 17.4105C45.7475 15.0681 47.5513 13.1684 49.9047 13.102C52.2913 13.0356 54.2795 14.928 54.3016 17.285C54.3237 19.5388 52.3761 21.5234 50.1075 21.564H50.1038Z" fill="white"/>
<path id="Vector_13" d="M40.9335 43.7551C40.9335 45.6511 39.4064 47.1782 37.5104 47.1856C35.607 47.193 34.0983 45.6991 34.0725 43.7809C34.0504 41.8222 35.6291 40.2213 37.551 40.2582C39.4138 40.2914 40.9372 41.8665 40.9335 43.7551Z" fill="white"/>
<path id="Vector_14" d="M18.5098 13.0908C18.5098 10.8222 18.5098 8.90779 18.5098 6.98965C18.5098 6.55807 18.4987 6.156 19.1258 6.15969C21.5972 6.17445 24.0687 6.16338 26.8537 6.16338C23.9949 8.53892 21.387 10.7005 18.5098 13.0871V13.0908Z" fill="white"/>
</g>
<defs>
<clipPath id="clip0_1_1824">
<rect width="134" height="58.6358" fill="white" transform="translate(0.881348 0.117676)"/>
</clipPath>
</defs>
</svg>
