<svg width="39" height="54" viewBox="0 0 39 54" fill="none" xmlns="http://www.w3.org/2000/svg">
<g clip-path="url(#clip0_90_7324)">
<path d="M2.96759 35.0149C2.96759 36.1203 3.0048 37.0911 2.95342 38.0583C2.92331 38.6322 3.12348 38.7385 3.6567 38.735C7.48664 38.712 11.3148 38.7279 15.1447 38.7226C16.0872 38.7226 16.9835 38.8395 17.8161 39.3408C19.9348 40.6198 20.4964 43.4241 18.9995 45.3851C18.3423 46.2461 17.6709 47.0946 16.8737 48.1185C16.8737 47.1743 16.8737 46.4037 16.8737 45.6331C16.8749 44.7805 16.4474 44.3541 15.5911 44.3541C11.9171 44.3541 8.24306 44.3524 4.56724 44.3524C1.61241 44.3524 -0.36987 42.1043 0.124372 39.316C0.239518 38.6677 0.540669 38.1061 0.933938 37.5942C1.57876 36.7563 2.24129 35.9343 2.96759 35.0149Z" fill="#FAFAFA"/>
<path d="M27.2061 9.22748C23.3124 6.84307 19.4187 4.45866 15.525 2.07425C14.9634 1.73058 14.4054 1.38337 13.6826 0.936961C15.3354 0.862559 16.8075 0.788157 18.2796 0.733241C24.7738 0.485234 31.2663 0.244313 37.7605 -0.000151092C37.8916 -0.00546553 38.0245 0.0104778 38.1556 0.0157922C37.9908 0.191169 37.8438 0.389574 37.6596 0.541921C35.5267 2.3134 33.385 4.07425 31.2504 5.84396C29.8987 6.9653 28.5542 8.09905 27.2079 9.22571L27.2061 9.22748Z" fill="#EDE2CC"/>
<path d="M27.207 9.22774C28.5551 8.09931 29.8979 6.96733 31.2495 5.84598C33.3842 4.07628 35.5259 2.31543 37.6588 0.543951C37.843 0.391604 37.99 0.19497 38.1548 0.0178223C38.5693 0.166626 38.254 0.453606 38.2185 0.61481C37.5383 3.65112 36.8244 6.68212 36.1229 9.71312C35.0565 14.3172 33.9936 18.9213 32.9271 23.5253C32.9023 23.6299 32.8545 23.7291 32.7695 23.9629C32.3496 22.8575 31.9723 21.8672 31.595 20.877C30.1565 17.102 28.7181 13.3269 27.2814 9.55015C27.2425 9.44917 27.2318 9.3358 27.207 9.22951V9.22774Z" fill="#EBBF67"/>
<path d="M10.6842 16.2122C15.2528 16.2919 19.515 20.338 19.8321 24.6267C20.2466 30.2406 15.6833 34.5151 10.6328 34.7826C11.7099 33.6701 12.2962 32.3628 12.6736 30.9491C13.701 27.1033 13.6514 23.2609 12.5974 19.4328C12.2608 18.2087 11.7116 17.0856 10.6824 16.2104L10.6842 16.2122Z" fill="#FCFCFC"/>
<path d="M9.10394 16.1892C7.24211 17.9394 6.85947 20.2689 6.56895 22.586C6.23414 25.2521 6.33334 27.9199 7.03485 30.5435C7.44937 32.0918 7.9879 33.5674 9.17125 34.7596C4.09065 34.5222 0.0410548 30.4266 0.000310808 25.5391C-0.0404332 20.6285 3.92945 16.5293 9.10394 16.1892Z" fill="#FBFBFB"/>
<path d="M3.72035 44.7441C3.72035 45.7166 3.75046 46.6892 3.70794 47.6582C3.68669 48.1648 3.84612 48.2835 4.33682 48.28C7.4121 48.2587 10.4892 48.2924 13.5644 48.2534C14.211 48.2445 14.4006 48.5085 14.4838 49.0629C14.8488 51.5111 13.0737 53.7414 10.5955 53.8459C8.58482 53.931 6.56888 53.938 4.55648 53.8371C2.94444 53.7556 1.79652 52.8734 1.14639 51.4597C0.499799 50.0514 0.572429 48.6077 1.52017 47.311C2.17916 46.4093 2.89306 45.5483 3.58394 44.6697C3.62823 44.6945 3.67252 44.7175 3.71857 44.7423L3.72035 44.7441Z" fill="#FBFBFB"/>
<path d="M21.4295 10.4144C19.1053 12.3453 16.9299 14.1522 14.6465 16.0494C14.6465 14.1929 14.6465 12.4604 14.6465 10.7297C14.6465 10.5047 14.7492 10.4126 14.9689 10.4126C17.0575 10.4144 19.146 10.4126 21.4312 10.4126L21.4295 10.4144Z" fill="#F6F6F6"/>
</g>
<defs>
<clipPath id="clip0_90_7324">
<rect width="38.3684" height="53.9132" fill="white"/>
</clipPath>
</defs>
</svg>
